M48
;GenerationSoftware,Autodesk,EAGLE,9.6.2*%
;CreationDate,2022-07-24T20:13:24Z*%
FMAT,2
ICI,OFF
METRIC,TZ,000.000
T8C0.300
T7C0.610
T6C0.700
T5C0.800
T4C1.000
T3C1.016
T2C1.300
T1C2.800
%
G90
M71
T1
X2501Y80486
X2501Y25486
X95501Y80486
X95501Y25486
X2461Y2461
X95488Y2461
X18788Y11469
X9788Y11469
X20038Y5219
X8538Y5219
T2
X64431Y5105
X59351Y5105
X54271Y5105
X49191Y5105
T3
X87789Y78264
X85249Y78264
X82709Y78264
X80169Y78264
X77629Y78264
X75089Y78264
T4
X8500Y47736
X8500Y41236
X86990Y47267
X90290Y42268
X83990Y42268
T5
X16788Y6469
X11787Y6469
X52070Y58102
X16788Y18469
X11787Y18469
X14287Y3969
X11787Y3969
X16788Y3969
X52070Y65723
X52070Y63182
X52070Y60642
X48101Y80486
X45561Y80486
X43021Y80486
X40481Y80486
X37941Y80486
X35401Y80486
X32861Y80486
X30321Y80486
X27781Y80486
X25241Y80486
X22701Y80486
X20161Y80486
X17621Y80486
X15081Y80486
X12541Y80486
X10001Y80486
X52070Y55562
X52070Y53022
X52070Y50482
T6
X5398Y72231
X7937Y74771
X7937Y69691
T7
X5398Y69691
X7937Y72231
X5398Y74771
T8
X84614Y16828
X81439Y21590
X83820Y29845
X22066Y57467
X49530Y59372
X47942Y11906
X41434Y53499
X44132Y53499
X60007Y52705
X61436Y63341
X44926Y43339
X41434Y39688
X26987Y48577
X18891Y48577
X16828Y40323
X7779Y15557
X17780Y15557
X1905Y34766
X12382Y44450
X11430Y51117
X44132Y1429
X32544Y52070
X44926Y18256
X59531Y17780
X64611Y19844
X68898Y22066
X68898Y25559
X48260Y27781
X54134Y27781
X57150Y32385
X59372Y27781
X63341Y31274
X65087Y25559
X49054Y23336
X54610Y23336
X59849Y23336
X40005Y12541
X32544Y18415
X30797Y28416
X42704Y38418
X70961Y38418
X72231Y30480
X76200Y28892
X74136Y14922
X66675Y14287
X92075Y16669
X73501Y6191
X51752Y8414
X56832Y8414
X61912Y6826
X65881Y11271
X37148Y26352
X43815Y23336
X42069Y29686
X80963Y35243
X36830Y18098
X41593Y21431
X53975Y12541
X78105Y9049
X83344Y9049
X77788Y1429
X86678Y1429
X9684Y25876
X13200Y33449
X17463Y29527
X5239Y51435
X14129Y55245
X41116Y61277
X49212Y47942
X82709Y38418
X54927Y32385
X36513Y39688
X36513Y38418
X49054Y39688
X58102Y38418
X96044Y41910
X17939Y54927
X5556Y61912
X29845Y41910
X55086Y47307
X50006Y38418
X59055Y31591
X63817Y35878
X43974Y33338
X19368Y62547
X47784Y53499
X36195Y48101
X28575Y52546
X29686Y56674
X63817Y47307
X49371Y75089
X36354Y74613
X81280Y55245
X79534Y55245
X79534Y56991
X83026Y55245
X83026Y56991
X77311Y55245
X85249Y55245
X77311Y56991
X36830Y60166
X85249Y56991
X85249Y58737
X85249Y60484
X85249Y62230
X85249Y63976
X83026Y58737
X81280Y58737
X79534Y58737
X77311Y58737
X77311Y60484
X79534Y60484
X81280Y60484
X83026Y60484
X83026Y62230
X81280Y62230
X79534Y62230
X77311Y62230
X77311Y63976
X79534Y63976
X81280Y63976
X83026Y63976
X14287Y75089
X66675Y67151
X87471Y58737
X75089Y58737
X75089Y60484
X66675Y56039
X87471Y62230
X73343Y73501
X94139Y56039
X87471Y56991
X75089Y62230
X87471Y60484
X75089Y55245
X75089Y56991
X94139Y70644
X87471Y55245
X85249Y74454
X36036Y50800
X5239Y35084
X4445Y35878
X50482Y75089
X46037Y24765
X50641Y24765
X55880Y24765
X61119Y24765
X80804Y12700
X93186Y12700
X73184Y23812
X90170Y23812
X36830Y24606
X22701Y69056
X33496Y69056
X14446Y27305
X14287Y19685
X15716Y27305
X9843Y19844
X16986Y27305
X45244Y59372
X62230Y33179
X16669Y45085
X16669Y48260
X21590Y60325
X29686Y71755
X61595Y74295
X25876Y50324
X16192Y57467
X28416Y72549
X27146Y70961
X35243Y69533
X60484Y40799
X70803Y28416
X60007Y19844
X54769Y19844
X49530Y19844
X41275Y16986
X54610Y11271
X49371Y8414
X59690Y12700
X62071Y14129
X72390Y12700
X68580Y36195
X78423Y31750
X42386Y65564
X42704Y63817
X49371Y44767
X64611Y29051
X30004Y53657
X44767Y34925
X38418Y53022
X41116Y56674
X38894Y48101
X58102Y26194
X37624Y48101
X53022Y26194
X39370Y64611
X63500Y26194
X32067Y42863
X54927Y13970
X46514Y14605
X72866Y3175
X73819Y3175
X25241Y1508
X87471Y39688
X28019Y19844
X64770Y54134
X62865Y69850
X70961Y39688
X25876Y36830
X96202Y53181
X68421Y1746
X5398Y1587
X1587Y5556
X92392Y1587
X96361Y5556
X80804Y5398
X51752Y34925
X56039Y40481
X87471Y38418
X25321Y20876
X27464Y36830
X88424Y19526
X69533Y9684
X22860Y52784
X35878Y56674
X48101Y65723
X28416Y63182
X76835Y49847
X26511Y77946
X96520Y77629
X92551Y81439
X81280Y51117
X75565Y43974
X49847Y31591
X57785Y79375
X28099Y1429
X15399Y62706
X43815Y73501
X41751Y78264
X39211Y78264
X76835Y52705
X70644Y80248
X11430Y72390
X5239Y81598
X1429Y77629
X45561Y69215
X59531Y67945
X44291Y78264
X38418Y73501
X16034Y73025
X16351Y77946
X24924Y73025
X21431Y73025
X18891Y73025
X23971Y77946
X21431Y77946
X18891Y77946
X96202Y35878
X38576Y69850
X81280Y56991
M30