G04 EAGLE Gerber RS-274X export*
G75*
%MOMM*%
%FSLAX34Y34*%
%LPD*%
%INBottom Copper*%
%IPPOS*%
%AMOC8*
5,1,8,0,0,1.08239X$1,22.5*%
G01*
%ADD10C,1.676400*%
%ADD11C,1.117600*%
%ADD12C,1.422400*%
%ADD13C,3.816000*%
%ADD14C,2.000000*%
%ADD15C,1.524000*%
%ADD16C,1.676400*%
%ADD17C,2.000000*%
%ADD18C,1.778000*%
%ADD19C,0.706400*%
%ADD20C,1.270000*%
%ADD21C,0.406400*%
%ADD22C,0.254000*%
%ADD23C,1.422400*%
%ADD24C,1.016000*%
%ADD25C,0.812800*%
%ADD26C,3.810000*%
%ADD27C,0.609600*%
%ADD28C,0.304800*%
%ADD29C,1.270000*%
%ADD30C,0.355600*%

G36*
X263545Y7624D02*
X263545Y7624D01*
X263564Y7622D01*
X263666Y7644D01*
X263768Y7660D01*
X263785Y7670D01*
X263805Y7674D01*
X263894Y7727D01*
X263985Y7776D01*
X263999Y7790D01*
X264016Y7800D01*
X264083Y7879D01*
X264155Y7954D01*
X264163Y7972D01*
X264176Y7987D01*
X264215Y8083D01*
X264258Y8177D01*
X264260Y8197D01*
X264268Y8215D01*
X264286Y8382D01*
X264286Y392939D01*
X308991Y392939D01*
X309011Y392942D01*
X309030Y392940D01*
X309132Y392962D01*
X309234Y392979D01*
X309251Y392988D01*
X309271Y392992D01*
X309360Y393045D01*
X309451Y393094D01*
X309465Y393108D01*
X309482Y393118D01*
X309549Y393197D01*
X309621Y393272D01*
X309629Y393290D01*
X309642Y393305D01*
X309681Y393401D01*
X309724Y393495D01*
X309726Y393515D01*
X309734Y393533D01*
X309752Y393700D01*
X309752Y430798D01*
X311415Y434812D01*
X314488Y437885D01*
X318502Y439548D01*
X322848Y439548D01*
X326862Y437885D01*
X329935Y434812D01*
X331598Y430798D01*
X331598Y393700D01*
X331601Y393680D01*
X331599Y393661D01*
X331621Y393559D01*
X331637Y393457D01*
X331647Y393440D01*
X331651Y393420D01*
X331704Y393331D01*
X331753Y393240D01*
X331767Y393226D01*
X331777Y393209D01*
X331856Y393142D01*
X331931Y393071D01*
X331949Y393062D01*
X331964Y393049D01*
X332060Y393010D01*
X332154Y392967D01*
X332174Y392965D01*
X332192Y392957D01*
X332359Y392939D01*
X393886Y392939D01*
X393956Y392950D01*
X394028Y392952D01*
X394077Y392970D01*
X394128Y392979D01*
X394192Y393012D01*
X394259Y393037D01*
X394300Y393069D01*
X394346Y393094D01*
X394395Y393146D01*
X394451Y393190D01*
X394479Y393234D01*
X394515Y393272D01*
X394545Y393337D01*
X394584Y393397D01*
X394597Y393448D01*
X394619Y393495D01*
X394627Y393566D01*
X394644Y393636D01*
X394640Y393688D01*
X394646Y393739D01*
X394631Y393810D01*
X394625Y393881D01*
X394605Y393929D01*
X394594Y393980D01*
X394557Y394041D01*
X394529Y394107D01*
X394484Y394163D01*
X394467Y394191D01*
X394450Y394206D01*
X394424Y394238D01*
X295084Y493578D01*
X294195Y495725D01*
X294195Y520844D01*
X294179Y520940D01*
X294170Y521037D01*
X294159Y521061D01*
X294155Y521087D01*
X294110Y521173D01*
X294070Y521262D01*
X294052Y521281D01*
X294040Y521304D01*
X293969Y521371D01*
X293903Y521443D01*
X293881Y521456D01*
X293862Y521474D01*
X293773Y521515D01*
X293688Y521562D01*
X293662Y521566D01*
X293639Y521577D01*
X293542Y521588D01*
X293446Y521605D01*
X293420Y521602D01*
X293394Y521604D01*
X293299Y521584D01*
X293203Y521570D01*
X293179Y521558D01*
X293154Y521552D01*
X293070Y521502D01*
X292983Y521458D01*
X292965Y521439D01*
X292943Y521426D01*
X292879Y521352D01*
X292811Y521282D01*
X292795Y521254D01*
X292783Y521239D01*
X292770Y521208D01*
X292730Y521136D01*
X292621Y520872D01*
X290341Y518592D01*
X287362Y517358D01*
X284138Y517358D01*
X281159Y518592D01*
X278879Y520872D01*
X277645Y523850D01*
X277645Y527075D01*
X278879Y530053D01*
X279684Y530859D01*
X279732Y530925D01*
X279739Y530933D01*
X279741Y530937D01*
X279797Y531002D01*
X279809Y531032D01*
X279828Y531058D01*
X279855Y531145D01*
X279889Y531230D01*
X279893Y531271D01*
X279900Y531293D01*
X279899Y531326D01*
X279907Y531397D01*
X279907Y556787D01*
X280797Y558935D01*
X288535Y566673D01*
X288588Y566747D01*
X288647Y566816D01*
X288660Y566846D01*
X288678Y566872D01*
X288705Y566959D01*
X288739Y567044D01*
X288744Y567085D01*
X288751Y567107D01*
X288750Y567139D01*
X288758Y567211D01*
X288758Y568350D01*
X289992Y571328D01*
X290797Y572134D01*
X290850Y572208D01*
X290909Y572277D01*
X290922Y572307D01*
X290940Y572333D01*
X290967Y572420D01*
X291001Y572505D01*
X291006Y572546D01*
X291013Y572568D01*
X291012Y572601D01*
X291020Y572672D01*
X291020Y623462D01*
X291909Y625610D01*
X330670Y664370D01*
X330712Y664428D01*
X330761Y664480D01*
X330783Y664528D01*
X330813Y664570D01*
X330834Y664638D01*
X330865Y664704D01*
X330870Y664755D01*
X330886Y664805D01*
X330884Y664877D01*
X330892Y664948D01*
X330881Y664999D01*
X330879Y665051D01*
X330855Y665118D01*
X330840Y665188D01*
X330813Y665233D01*
X330795Y665282D01*
X330750Y665338D01*
X330713Y665399D01*
X330674Y665433D01*
X330641Y665474D01*
X330581Y665513D01*
X330526Y665559D01*
X330478Y665579D01*
X330434Y665607D01*
X330365Y665624D01*
X330298Y665651D01*
X330227Y665659D01*
X330196Y665667D01*
X330173Y665665D01*
X330132Y665670D01*
X286898Y665670D01*
X286808Y665655D01*
X286717Y665648D01*
X286687Y665635D01*
X286655Y665630D01*
X286575Y665587D01*
X286491Y665552D01*
X286459Y665526D01*
X286438Y665515D01*
X286416Y665492D01*
X286360Y665447D01*
X224228Y603315D01*
X224175Y603241D01*
X224115Y603171D01*
X224103Y603141D01*
X224084Y603115D01*
X224057Y603028D01*
X224023Y602943D01*
X224019Y602902D01*
X224012Y602880D01*
X224013Y602848D01*
X224005Y602777D01*
X224005Y601638D01*
X222771Y598659D01*
X220491Y596379D01*
X217512Y595145D01*
X214288Y595145D01*
X211309Y596379D01*
X209029Y598659D01*
X207795Y601638D01*
X207795Y604862D01*
X209029Y607841D01*
X211309Y610121D01*
X214288Y611355D01*
X215427Y611355D01*
X215517Y611369D01*
X215608Y611377D01*
X215637Y611389D01*
X215669Y611394D01*
X215750Y611437D01*
X215834Y611473D01*
X215866Y611499D01*
X215887Y611510D01*
X215909Y611533D01*
X215965Y611578D01*
X280853Y676466D01*
X283000Y677355D01*
X456052Y677355D01*
X456142Y677370D01*
X456233Y677377D01*
X456263Y677390D01*
X456295Y677395D01*
X456375Y677438D01*
X456459Y677473D01*
X456491Y677499D01*
X456512Y677510D01*
X456534Y677533D01*
X456590Y677578D01*
X481482Y702470D01*
X481524Y702528D01*
X481574Y702580D01*
X481596Y702628D01*
X481626Y702670D01*
X481647Y702738D01*
X481677Y702804D01*
X481683Y702855D01*
X481698Y702905D01*
X481696Y702977D01*
X481704Y703048D01*
X481693Y703099D01*
X481692Y703151D01*
X481667Y703218D01*
X481652Y703288D01*
X481625Y703333D01*
X481607Y703382D01*
X481563Y703438D01*
X481526Y703499D01*
X481486Y703533D01*
X481454Y703574D01*
X481393Y703613D01*
X481339Y703659D01*
X481291Y703679D01*
X481247Y703707D01*
X481177Y703724D01*
X481111Y703751D01*
X481039Y703759D01*
X481008Y703767D01*
X480985Y703765D01*
X480944Y703770D01*
X277397Y703770D01*
X277307Y703755D01*
X277216Y703748D01*
X277186Y703735D01*
X277154Y703730D01*
X277073Y703687D01*
X276990Y703652D01*
X276957Y703626D01*
X276937Y703615D01*
X276915Y703592D01*
X276859Y703547D01*
X276053Y702742D01*
X273075Y701508D01*
X269850Y701508D01*
X266872Y702742D01*
X264592Y705022D01*
X263358Y708000D01*
X263358Y711225D01*
X264592Y714203D01*
X266872Y716483D01*
X269850Y717717D01*
X273075Y717717D01*
X276053Y716483D01*
X276859Y715678D01*
X276933Y715625D01*
X277002Y715566D01*
X277032Y715553D01*
X277058Y715535D01*
X277145Y715508D01*
X277230Y715474D01*
X277271Y715469D01*
X277293Y715462D01*
X277326Y715463D01*
X277397Y715455D01*
X287997Y715455D01*
X288016Y715458D01*
X288036Y715456D01*
X288137Y715478D01*
X288239Y715495D01*
X288257Y715504D01*
X288276Y715509D01*
X288365Y715562D01*
X288457Y715610D01*
X288470Y715624D01*
X288487Y715635D01*
X288555Y715713D01*
X288626Y715788D01*
X288634Y715806D01*
X288647Y715822D01*
X288686Y715918D01*
X288730Y716011D01*
X288732Y716031D01*
X288739Y716050D01*
X288758Y716216D01*
X288758Y717479D01*
X288750Y717524D01*
X288752Y717570D01*
X288731Y717645D01*
X288718Y717722D01*
X288697Y717762D01*
X288684Y717807D01*
X288639Y717871D01*
X288603Y717939D01*
X288570Y717971D01*
X288543Y718009D01*
X288481Y718055D01*
X288425Y718109D01*
X288383Y718128D01*
X288346Y718155D01*
X288272Y718179D01*
X288202Y718212D01*
X288156Y718217D01*
X288112Y718232D01*
X288034Y718231D01*
X287957Y718239D01*
X287912Y718230D01*
X287866Y718229D01*
X287735Y718191D01*
X287717Y718187D01*
X287712Y718185D01*
X287705Y718182D01*
X285775Y717383D01*
X282550Y717383D01*
X279572Y718617D01*
X277292Y720897D01*
X276058Y723875D01*
X276058Y727100D01*
X277292Y730078D01*
X279572Y732358D01*
X282550Y733592D01*
X285775Y733592D01*
X288753Y732358D01*
X289559Y731553D01*
X289633Y731500D01*
X289702Y731441D01*
X289732Y731428D01*
X289758Y731410D01*
X289845Y731383D01*
X289930Y731349D01*
X289971Y731344D01*
X289993Y731337D01*
X290026Y731338D01*
X290097Y731330D01*
X578290Y731330D01*
X578380Y731345D01*
X578471Y731352D01*
X578500Y731365D01*
X578532Y731370D01*
X578613Y731413D01*
X578697Y731448D01*
X578729Y731474D01*
X578750Y731485D01*
X578772Y731508D01*
X578828Y731553D01*
X611053Y763778D01*
X613200Y764668D01*
X742156Y764668D01*
X742227Y764679D01*
X742299Y764681D01*
X742348Y764699D01*
X742399Y764707D01*
X742462Y764741D01*
X742530Y764766D01*
X742570Y764798D01*
X742616Y764823D01*
X742666Y764875D01*
X742722Y764919D01*
X742750Y764963D01*
X742786Y765001D01*
X742816Y765066D01*
X742855Y765126D01*
X742868Y765177D01*
X742889Y765224D01*
X742897Y765295D01*
X742915Y765365D01*
X742911Y765417D01*
X742917Y765468D01*
X742901Y765539D01*
X742896Y765610D01*
X742875Y765658D01*
X742864Y765709D01*
X742827Y765770D01*
X742799Y765836D01*
X742755Y765892D01*
X742738Y765920D01*
X742720Y765935D01*
X742695Y765967D01*
X740551Y768111D01*
X738695Y772592D01*
X738695Y792683D01*
X740551Y797164D01*
X743981Y800594D01*
X748462Y802450D01*
X753313Y802450D01*
X757794Y800594D01*
X761224Y797164D01*
X762884Y793156D01*
X762922Y793095D01*
X762951Y793030D01*
X762986Y792991D01*
X763014Y792947D01*
X763069Y792901D01*
X763118Y792848D01*
X763163Y792823D01*
X763203Y792790D01*
X763270Y792764D01*
X763333Y792730D01*
X763384Y792721D01*
X763433Y792702D01*
X763504Y792699D01*
X763575Y792686D01*
X763627Y792694D01*
X763679Y792692D01*
X763748Y792712D01*
X763818Y792722D01*
X763865Y792746D01*
X763915Y792760D01*
X763974Y792801D01*
X764038Y792833D01*
X764074Y792871D01*
X764117Y792900D01*
X764160Y792958D01*
X764210Y793009D01*
X764244Y793072D01*
X764264Y793098D01*
X764271Y793120D01*
X764291Y793156D01*
X765951Y797164D01*
X769381Y800594D01*
X773862Y802450D01*
X778713Y802450D01*
X783194Y800594D01*
X786624Y797164D01*
X788284Y793156D01*
X788322Y793095D01*
X788351Y793030D01*
X788386Y792991D01*
X788414Y792947D01*
X788469Y792901D01*
X788518Y792848D01*
X788563Y792823D01*
X788603Y792790D01*
X788670Y792764D01*
X788733Y792730D01*
X788784Y792721D01*
X788833Y792702D01*
X788904Y792699D01*
X788975Y792686D01*
X789027Y792694D01*
X789079Y792692D01*
X789148Y792712D01*
X789218Y792722D01*
X789265Y792746D01*
X789315Y792760D01*
X789374Y792801D01*
X789438Y792833D01*
X789474Y792871D01*
X789517Y792900D01*
X789560Y792958D01*
X789610Y793009D01*
X789644Y793072D01*
X789664Y793098D01*
X789671Y793120D01*
X789691Y793156D01*
X791351Y797164D01*
X794781Y800594D01*
X799262Y802450D01*
X804113Y802450D01*
X808594Y800594D01*
X812024Y797164D01*
X813880Y792683D01*
X813880Y772592D01*
X812024Y768111D01*
X808594Y764681D01*
X808265Y764545D01*
X808182Y764493D01*
X808096Y764448D01*
X808078Y764429D01*
X808056Y764415D01*
X807994Y764340D01*
X807927Y764270D01*
X807916Y764246D01*
X807899Y764226D01*
X807865Y764135D01*
X807823Y764046D01*
X807821Y764020D01*
X807811Y763996D01*
X807807Y763899D01*
X807796Y763802D01*
X807802Y763777D01*
X807801Y763750D01*
X807828Y763657D01*
X807849Y763562D01*
X807862Y763539D01*
X807869Y763514D01*
X807925Y763434D01*
X807975Y763351D01*
X807995Y763334D01*
X808010Y763312D01*
X808088Y763254D01*
X808162Y763191D01*
X808186Y763181D01*
X808207Y763165D01*
X808300Y763135D01*
X808390Y763099D01*
X808422Y763095D01*
X808441Y763089D01*
X808474Y763089D01*
X808557Y763080D01*
X845618Y763080D01*
X845714Y763096D01*
X845811Y763105D01*
X845835Y763116D01*
X845861Y763120D01*
X845947Y763165D01*
X846036Y763205D01*
X846056Y763223D01*
X846079Y763235D01*
X846146Y763306D01*
X846217Y763372D01*
X846230Y763394D01*
X846248Y763413D01*
X846289Y763502D01*
X846336Y763587D01*
X846341Y763613D01*
X846352Y763636D01*
X846362Y763733D01*
X846380Y763829D01*
X846376Y763855D01*
X846379Y763881D01*
X846358Y763976D01*
X846344Y764072D01*
X846332Y764096D01*
X846326Y764121D01*
X846276Y764205D01*
X846232Y764292D01*
X846214Y764310D01*
X846200Y764332D01*
X846126Y764396D01*
X846057Y764464D01*
X846028Y764480D01*
X846013Y764492D01*
X845982Y764505D01*
X845910Y764545D01*
X845581Y764681D01*
X842151Y768111D01*
X840295Y772592D01*
X840295Y792683D01*
X842151Y797164D01*
X845581Y800594D01*
X850062Y802450D01*
X854913Y802450D01*
X859394Y800594D01*
X862824Y797164D01*
X864484Y793156D01*
X864522Y793095D01*
X864551Y793030D01*
X864586Y792991D01*
X864614Y792947D01*
X864669Y792901D01*
X864718Y792849D01*
X864763Y792823D01*
X864803Y792790D01*
X864870Y792765D01*
X864933Y792730D01*
X864984Y792721D01*
X865033Y792702D01*
X865104Y792699D01*
X865175Y792686D01*
X865227Y792694D01*
X865279Y792692D01*
X865348Y792712D01*
X865418Y792722D01*
X865465Y792746D01*
X865515Y792760D01*
X865574Y792801D01*
X865638Y792834D01*
X865674Y792871D01*
X865717Y792900D01*
X865760Y792958D01*
X865810Y793009D01*
X865844Y793072D01*
X865864Y793098D01*
X865871Y793120D01*
X865891Y793156D01*
X867551Y797164D01*
X870981Y800594D01*
X875462Y802450D01*
X880313Y802450D01*
X884794Y800594D01*
X888224Y797164D01*
X890080Y792683D01*
X890080Y772592D01*
X888224Y768111D01*
X885068Y764955D01*
X885011Y764876D01*
X884949Y764801D01*
X884940Y764776D01*
X884924Y764755D01*
X884896Y764662D01*
X884861Y764571D01*
X884860Y764545D01*
X884852Y764520D01*
X884855Y764423D01*
X884851Y764325D01*
X884858Y764300D01*
X884858Y764274D01*
X884892Y764183D01*
X884919Y764089D01*
X884934Y764068D01*
X884943Y764043D01*
X885004Y763967D01*
X885059Y763887D01*
X885080Y763872D01*
X885097Y763851D01*
X885179Y763798D01*
X885257Y763740D01*
X885282Y763732D01*
X885304Y763718D01*
X885398Y763694D01*
X885491Y763664D01*
X885517Y763664D01*
X885542Y763658D01*
X885639Y763666D01*
X885737Y763667D01*
X885768Y763676D01*
X885787Y763677D01*
X885818Y763690D01*
X885898Y763713D01*
X887282Y764287D01*
X927230Y764287D01*
X930405Y762972D01*
X959822Y733555D01*
X961137Y730380D01*
X961137Y555495D01*
X959822Y552320D01*
X949455Y541953D01*
X946280Y540638D01*
X661857Y540638D01*
X658683Y541953D01*
X648316Y552320D01*
X647001Y555495D01*
X647001Y714505D01*
X648316Y717680D01*
X669619Y738983D01*
X669660Y739041D01*
X669710Y739093D01*
X669732Y739140D01*
X669762Y739182D01*
X669783Y739251D01*
X669813Y739316D01*
X669819Y739368D01*
X669834Y739418D01*
X669833Y739489D01*
X669840Y739560D01*
X669829Y739611D01*
X669828Y739663D01*
X669803Y739731D01*
X669788Y739801D01*
X669762Y739846D01*
X669744Y739894D01*
X669699Y739950D01*
X669662Y740012D01*
X669622Y740046D01*
X669590Y740086D01*
X669530Y740125D01*
X669475Y740172D01*
X669427Y740191D01*
X669383Y740219D01*
X669314Y740237D01*
X669247Y740264D01*
X669176Y740272D01*
X669144Y740280D01*
X669121Y740278D01*
X669080Y740282D01*
X650435Y740282D01*
X650345Y740268D01*
X650254Y740260D01*
X650225Y740248D01*
X650193Y740243D01*
X650112Y740200D01*
X650028Y740164D01*
X649996Y740138D01*
X649975Y740127D01*
X649953Y740104D01*
X649897Y740059D01*
X608082Y698245D01*
X608071Y698228D01*
X608055Y698216D01*
X607999Y698129D01*
X607939Y698045D01*
X607933Y698026D01*
X607922Y698009D01*
X607897Y697908D01*
X607866Y697810D01*
X607867Y697790D01*
X607862Y697770D01*
X607870Y697668D01*
X607873Y697564D01*
X607880Y697545D01*
X607881Y697525D01*
X607922Y697430D01*
X607957Y697333D01*
X607970Y697317D01*
X607978Y697299D01*
X608082Y697168D01*
X635191Y670060D01*
X636080Y667912D01*
X636080Y483748D01*
X636095Y483658D01*
X636102Y483567D01*
X636115Y483537D01*
X636120Y483505D01*
X636163Y483425D01*
X636198Y483341D01*
X636224Y483309D01*
X636235Y483288D01*
X636258Y483266D01*
X636303Y483210D01*
X638110Y481403D01*
X638184Y481350D01*
X638254Y481290D01*
X638284Y481278D01*
X638310Y481259D01*
X638397Y481232D01*
X638482Y481198D01*
X638523Y481194D01*
X638545Y481187D01*
X638577Y481188D01*
X638648Y481180D01*
X639787Y481180D01*
X642766Y479946D01*
X645046Y477666D01*
X646280Y474687D01*
X646280Y471463D01*
X645046Y468484D01*
X642766Y466204D01*
X639787Y464970D01*
X636563Y464970D01*
X633584Y466204D01*
X631304Y468484D01*
X630070Y471463D01*
X630070Y472602D01*
X630056Y472692D01*
X630048Y472783D01*
X630036Y472812D01*
X630031Y472844D01*
X629988Y472925D01*
X629952Y473009D01*
X629926Y473041D01*
X629915Y473062D01*
X629892Y473084D01*
X629847Y473140D01*
X625284Y477703D01*
X624395Y479850D01*
X624395Y664015D01*
X624380Y664105D01*
X624373Y664196D01*
X624360Y664225D01*
X624355Y664257D01*
X624312Y664338D01*
X624277Y664422D01*
X624251Y664454D01*
X624240Y664475D01*
X624217Y664497D01*
X624172Y664553D01*
X601053Y687672D01*
X600979Y687725D01*
X600909Y687784D01*
X600879Y687797D01*
X600853Y687815D01*
X600766Y687842D01*
X600681Y687876D01*
X600640Y687881D01*
X600618Y687888D01*
X600586Y687887D01*
X600515Y687895D01*
X494860Y687895D01*
X494770Y687880D01*
X494679Y687873D01*
X494650Y687860D01*
X494618Y687855D01*
X494537Y687812D01*
X494453Y687777D01*
X494421Y687751D01*
X494400Y687740D01*
X494378Y687717D01*
X494322Y687672D01*
X466860Y660209D01*
X464712Y659320D01*
X432249Y659320D01*
X432204Y659312D01*
X432158Y659314D01*
X432083Y659293D01*
X432006Y659280D01*
X431966Y659259D01*
X431922Y659246D01*
X431858Y659201D01*
X431789Y659165D01*
X431757Y659132D01*
X431720Y659105D01*
X431673Y659043D01*
X431620Y658987D01*
X431600Y658945D01*
X431573Y658908D01*
X431549Y658834D01*
X431516Y658764D01*
X431511Y658718D01*
X431497Y658674D01*
X431497Y658596D01*
X431489Y658519D01*
X431499Y658474D01*
X431499Y658428D01*
X431537Y658297D01*
X431541Y658279D01*
X431544Y658274D01*
X431546Y658267D01*
X431967Y657250D01*
X431967Y656111D01*
X431982Y656021D01*
X431989Y655930D01*
X432002Y655900D01*
X432007Y655868D01*
X432050Y655788D01*
X432085Y655704D01*
X432111Y655672D01*
X432122Y655651D01*
X432145Y655629D01*
X432190Y655573D01*
X475272Y612491D01*
X475346Y612438D01*
X475416Y612378D01*
X475446Y612366D01*
X475472Y612347D01*
X475559Y612320D01*
X475644Y612286D01*
X475685Y612282D01*
X475707Y612275D01*
X475739Y612276D01*
X475810Y612268D01*
X508589Y612268D01*
X508704Y612287D01*
X508820Y612304D01*
X508826Y612306D01*
X508832Y612307D01*
X508935Y612362D01*
X509040Y612415D01*
X509044Y612420D01*
X509050Y612423D01*
X509129Y612507D01*
X509212Y612591D01*
X509215Y612597D01*
X509219Y612601D01*
X509227Y612618D01*
X509293Y612738D01*
X509718Y613763D01*
X513362Y617407D01*
X518123Y619380D01*
X523277Y619380D01*
X528038Y617407D01*
X531682Y613763D01*
X533655Y609002D01*
X533655Y603848D01*
X531682Y599087D01*
X528038Y595443D01*
X525590Y594428D01*
X525529Y594390D01*
X525463Y594361D01*
X525425Y594326D01*
X525381Y594299D01*
X525335Y594243D01*
X525282Y594195D01*
X525257Y594149D01*
X525224Y594109D01*
X525198Y594042D01*
X525164Y593979D01*
X525154Y593928D01*
X525136Y593880D01*
X525133Y593808D01*
X525120Y593737D01*
X525127Y593686D01*
X525125Y593634D01*
X525145Y593565D01*
X525156Y593494D01*
X525179Y593448D01*
X525194Y593398D01*
X525235Y593339D01*
X525267Y593275D01*
X525304Y593238D01*
X525334Y593196D01*
X525392Y593153D01*
X525443Y593103D01*
X525506Y593068D01*
X525531Y593049D01*
X525554Y593042D01*
X525590Y593022D01*
X528038Y592007D01*
X531682Y588363D01*
X533655Y583602D01*
X533655Y578448D01*
X531682Y573687D01*
X528038Y570043D01*
X525590Y569028D01*
X525529Y568990D01*
X525463Y568961D01*
X525425Y568926D01*
X525381Y568899D01*
X525335Y568843D01*
X525282Y568795D01*
X525257Y568749D01*
X525224Y568709D01*
X525198Y568642D01*
X525164Y568579D01*
X525154Y568528D01*
X525136Y568480D01*
X525133Y568408D01*
X525120Y568337D01*
X525127Y568286D01*
X525125Y568234D01*
X525145Y568165D01*
X525156Y568094D01*
X525179Y568048D01*
X525194Y567998D01*
X525235Y567939D01*
X525267Y567875D01*
X525304Y567838D01*
X525334Y567796D01*
X525392Y567753D01*
X525443Y567703D01*
X525506Y567668D01*
X525531Y567649D01*
X525554Y567642D01*
X525590Y567622D01*
X528038Y566607D01*
X531682Y562963D01*
X533655Y558202D01*
X533655Y553048D01*
X531682Y548287D01*
X528038Y544643D01*
X525590Y543628D01*
X525507Y543577D01*
X525421Y543531D01*
X525403Y543513D01*
X525381Y543499D01*
X525318Y543423D01*
X525252Y543353D01*
X525241Y543329D01*
X525224Y543309D01*
X525189Y543218D01*
X525148Y543130D01*
X525145Y543104D01*
X525136Y543080D01*
X525132Y542982D01*
X525121Y542886D01*
X525126Y542860D01*
X525125Y542834D01*
X525152Y542740D01*
X525173Y542645D01*
X525187Y542623D01*
X525194Y542598D01*
X525249Y542518D01*
X525299Y542434D01*
X525319Y542417D01*
X525334Y542396D01*
X525412Y542337D01*
X525486Y542274D01*
X525510Y542264D01*
X525531Y542249D01*
X525624Y542219D01*
X525714Y542182D01*
X525747Y542179D01*
X525765Y542173D01*
X525798Y542173D01*
X525881Y542164D01*
X526735Y542164D01*
X532862Y536037D01*
X532936Y535984D01*
X533005Y535924D01*
X533035Y535912D01*
X533061Y535893D01*
X533148Y535866D01*
X533233Y535832D01*
X533274Y535828D01*
X533297Y535821D01*
X533329Y535822D01*
X533400Y535814D01*
X547372Y535814D01*
X588201Y494985D01*
X588201Y396875D01*
X588216Y396785D01*
X588223Y396694D01*
X588236Y396664D01*
X588241Y396632D01*
X588284Y396552D01*
X588319Y396468D01*
X588345Y396436D01*
X588356Y396415D01*
X588379Y396393D01*
X588424Y396337D01*
X591599Y393162D01*
X591673Y393109D01*
X591743Y393049D01*
X591773Y393037D01*
X591799Y393018D01*
X591886Y392991D01*
X591971Y392957D01*
X592012Y392953D01*
X592034Y392946D01*
X592066Y392947D01*
X592138Y392939D01*
X609426Y392939D01*
X609497Y392950D01*
X609569Y392952D01*
X609618Y392970D01*
X609669Y392979D01*
X609732Y393012D01*
X609800Y393037D01*
X609840Y393069D01*
X609886Y393094D01*
X609936Y393146D01*
X609992Y393190D01*
X610020Y393234D01*
X610056Y393272D01*
X610086Y393337D01*
X610125Y393397D01*
X610138Y393448D01*
X610159Y393495D01*
X610167Y393566D01*
X610185Y393636D01*
X610181Y393688D01*
X610187Y393739D01*
X610171Y393810D01*
X610166Y393881D01*
X610145Y393929D01*
X610134Y393980D01*
X610097Y394041D01*
X610069Y394107D01*
X610025Y394163D01*
X610008Y394191D01*
X609990Y394206D01*
X609965Y394238D01*
X604543Y399660D01*
X604469Y399713D01*
X604400Y399772D01*
X604370Y399785D01*
X604343Y399803D01*
X604256Y399830D01*
X604172Y399864D01*
X604131Y399869D01*
X604108Y399876D01*
X604076Y399875D01*
X604005Y399883D01*
X603225Y399883D01*
X600247Y401117D01*
X597967Y403397D01*
X596733Y406375D01*
X596733Y409600D01*
X597967Y412578D01*
X600247Y414858D01*
X603225Y416092D01*
X606450Y416092D01*
X609428Y414858D01*
X611708Y412578D01*
X612942Y409600D01*
X612942Y408820D01*
X612957Y408730D01*
X612964Y408639D01*
X612977Y408609D01*
X612982Y408577D01*
X613025Y408497D01*
X613060Y408413D01*
X613086Y408381D01*
X613097Y408360D01*
X613120Y408338D01*
X613138Y408316D01*
X613142Y408309D01*
X613147Y408305D01*
X613165Y408282D01*
X628285Y393162D01*
X628359Y393109D01*
X628429Y393049D01*
X628459Y393037D01*
X628485Y393018D01*
X628572Y392991D01*
X628657Y392957D01*
X628698Y392953D01*
X628720Y392946D01*
X628752Y392947D01*
X628824Y392939D01*
X971106Y392939D01*
X971125Y392942D01*
X971145Y392940D01*
X971246Y392962D01*
X971348Y392979D01*
X971366Y392988D01*
X971385Y392992D01*
X971474Y393045D01*
X971566Y393094D01*
X971579Y393108D01*
X971596Y393118D01*
X971664Y393197D01*
X971735Y393272D01*
X971743Y393290D01*
X971756Y393305D01*
X971795Y393401D01*
X971839Y393495D01*
X971841Y393515D01*
X971848Y393533D01*
X971867Y393700D01*
X971867Y789303D01*
X971855Y789373D01*
X971853Y789445D01*
X971835Y789494D01*
X971827Y789545D01*
X971793Y789609D01*
X971769Y789676D01*
X971736Y789717D01*
X971712Y789763D01*
X971660Y789812D01*
X971615Y789868D01*
X971571Y789896D01*
X971534Y789932D01*
X971469Y789962D01*
X971408Y790001D01*
X971358Y790014D01*
X971311Y790036D01*
X971239Y790044D01*
X971170Y790061D01*
X971118Y790057D01*
X971066Y790063D01*
X970996Y790048D01*
X970925Y790042D01*
X970877Y790022D01*
X970826Y790011D01*
X970764Y789974D01*
X970698Y789946D01*
X970642Y789901D01*
X970615Y789884D01*
X970599Y789867D01*
X970567Y789841D01*
X967260Y786533D01*
X959313Y783242D01*
X950712Y783242D01*
X942765Y786533D01*
X936683Y792615D01*
X933392Y800562D01*
X933392Y809163D01*
X936683Y817110D01*
X940916Y821342D01*
X940958Y821400D01*
X941007Y821452D01*
X941029Y821500D01*
X941059Y821542D01*
X941081Y821610D01*
X941111Y821676D01*
X941116Y821727D01*
X941132Y821777D01*
X941130Y821849D01*
X941138Y821920D01*
X941127Y821971D01*
X941125Y822023D01*
X941101Y822090D01*
X941086Y822160D01*
X941059Y822205D01*
X941041Y822254D01*
X940996Y822310D01*
X940959Y822371D01*
X940920Y822405D01*
X940887Y822446D01*
X940827Y822485D01*
X940772Y822531D01*
X940724Y822551D01*
X940680Y822579D01*
X940611Y822596D01*
X940544Y822623D01*
X940473Y822631D01*
X940442Y822639D01*
X940419Y822637D01*
X940378Y822642D01*
X488900Y822642D01*
X488829Y822630D01*
X488758Y822628D01*
X488709Y822610D01*
X488657Y822602D01*
X488594Y822568D01*
X488527Y822544D01*
X488486Y822511D01*
X488440Y822487D01*
X488391Y822435D01*
X488335Y822390D01*
X488306Y822346D01*
X488271Y822309D01*
X488240Y822244D01*
X488202Y822183D01*
X488189Y822133D01*
X488167Y822086D01*
X488159Y822014D01*
X488142Y821945D01*
X488146Y821893D01*
X488140Y821841D01*
X488155Y821771D01*
X488161Y821700D01*
X488181Y821652D01*
X488192Y821601D01*
X488229Y821539D01*
X488257Y821473D01*
X488302Y821417D01*
X488318Y821390D01*
X488336Y821374D01*
X488362Y821342D01*
X489344Y820360D01*
X490354Y818969D01*
X491135Y817437D01*
X491666Y815802D01*
X491935Y814104D01*
X491935Y806386D01*
X481775Y806386D01*
X481755Y806382D01*
X481735Y806385D01*
X481634Y806363D01*
X481532Y806346D01*
X481514Y806337D01*
X481495Y806332D01*
X481406Y806279D01*
X481315Y806231D01*
X481301Y806216D01*
X481284Y806206D01*
X481216Y806128D01*
X481145Y806053D01*
X481137Y806034D01*
X481124Y806019D01*
X481085Y805923D01*
X481042Y805829D01*
X481039Y805810D01*
X481032Y805791D01*
X481013Y805624D01*
X481013Y804862D01*
X481012Y804862D01*
X481012Y805624D01*
X481008Y805644D01*
X481011Y805664D01*
X480989Y805765D01*
X480972Y805867D01*
X480963Y805885D01*
X480958Y805904D01*
X480905Y805993D01*
X480857Y806085D01*
X480842Y806098D01*
X480832Y806115D01*
X480753Y806183D01*
X480678Y806254D01*
X480660Y806262D01*
X480645Y806275D01*
X480549Y806314D01*
X480455Y806358D01*
X480436Y806360D01*
X480417Y806367D01*
X480250Y806386D01*
X470090Y806386D01*
X470090Y814104D01*
X470359Y815802D01*
X470890Y817437D01*
X471671Y818969D01*
X472681Y820360D01*
X473663Y821342D01*
X473705Y821400D01*
X473754Y821452D01*
X473776Y821500D01*
X473807Y821542D01*
X473828Y821610D01*
X473858Y821676D01*
X473864Y821727D01*
X473879Y821777D01*
X473877Y821849D01*
X473885Y821920D01*
X473874Y821971D01*
X473873Y822023D01*
X473848Y822090D01*
X473833Y822160D01*
X473806Y822205D01*
X473788Y822254D01*
X473743Y822310D01*
X473707Y822371D01*
X473667Y822405D01*
X473635Y822446D01*
X473574Y822485D01*
X473520Y822531D01*
X473471Y822551D01*
X473428Y822579D01*
X473358Y822596D01*
X473292Y822623D01*
X473220Y822631D01*
X473189Y822639D01*
X473166Y822637D01*
X473125Y822642D01*
X466374Y822642D01*
X466303Y822630D01*
X466231Y822628D01*
X466182Y822610D01*
X466131Y822602D01*
X466068Y822568D01*
X466000Y822544D01*
X465960Y822511D01*
X465914Y822487D01*
X465864Y822435D01*
X465808Y822390D01*
X465780Y822346D01*
X465744Y822309D01*
X465714Y822244D01*
X465675Y822183D01*
X465663Y822133D01*
X465641Y822086D01*
X465633Y822014D01*
X465615Y821945D01*
X465619Y821893D01*
X465614Y821841D01*
X465629Y821771D01*
X465634Y821700D01*
X465655Y821652D01*
X465666Y821601D01*
X465703Y821539D01*
X465731Y821473D01*
X465776Y821417D01*
X465792Y821390D01*
X465810Y821374D01*
X465836Y821342D01*
X466595Y820583D01*
X468567Y815821D01*
X468567Y793904D01*
X466595Y789142D01*
X462951Y785498D01*
X458189Y783526D01*
X453036Y783526D01*
X448274Y785498D01*
X444630Y789142D01*
X443616Y791591D01*
X443578Y791652D01*
X443549Y791717D01*
X443514Y791756D01*
X443486Y791800D01*
X443431Y791846D01*
X443382Y791898D01*
X443337Y791923D01*
X443297Y791957D01*
X443230Y791982D01*
X443167Y792017D01*
X443116Y792026D01*
X443067Y792045D01*
X442996Y792048D01*
X442925Y792061D01*
X442873Y792053D01*
X442821Y792055D01*
X442752Y792035D01*
X442682Y792025D01*
X442635Y792001D01*
X442585Y791987D01*
X442526Y791946D01*
X442462Y791913D01*
X442426Y791876D01*
X442383Y791846D01*
X442340Y791789D01*
X442290Y791738D01*
X442255Y791675D01*
X442236Y791649D01*
X442229Y791627D01*
X442209Y791591D01*
X441195Y789142D01*
X437551Y785498D01*
X432789Y783526D01*
X427636Y783526D01*
X422874Y785498D01*
X419230Y789142D01*
X418216Y791591D01*
X418178Y791652D01*
X418149Y791717D01*
X418114Y791756D01*
X418086Y791800D01*
X418031Y791846D01*
X417982Y791898D01*
X417937Y791923D01*
X417897Y791957D01*
X417830Y791982D01*
X417767Y792017D01*
X417716Y792026D01*
X417667Y792045D01*
X417596Y792048D01*
X417525Y792061D01*
X417473Y792053D01*
X417421Y792055D01*
X417352Y792035D01*
X417282Y792025D01*
X417235Y792001D01*
X417185Y791987D01*
X417126Y791946D01*
X417062Y791913D01*
X417026Y791876D01*
X416983Y791846D01*
X416940Y791789D01*
X416890Y791738D01*
X416855Y791675D01*
X416836Y791649D01*
X416829Y791627D01*
X416809Y791591D01*
X415795Y789142D01*
X412151Y785498D01*
X407389Y783526D01*
X402236Y783526D01*
X397474Y785498D01*
X393830Y789142D01*
X392816Y791591D01*
X392778Y791652D01*
X392749Y791717D01*
X392714Y791756D01*
X392686Y791800D01*
X392631Y791846D01*
X392582Y791898D01*
X392537Y791923D01*
X392497Y791957D01*
X392430Y791982D01*
X392367Y792017D01*
X392316Y792026D01*
X392267Y792045D01*
X392196Y792048D01*
X392125Y792061D01*
X392073Y792053D01*
X392021Y792055D01*
X391952Y792035D01*
X391882Y792025D01*
X391835Y792001D01*
X391785Y791987D01*
X391726Y791946D01*
X391662Y791913D01*
X391626Y791876D01*
X391583Y791846D01*
X391540Y791789D01*
X391490Y791738D01*
X391455Y791675D01*
X391436Y791649D01*
X391429Y791627D01*
X391409Y791591D01*
X390395Y789142D01*
X386751Y785498D01*
X381989Y783526D01*
X376836Y783526D01*
X372074Y785498D01*
X368430Y789142D01*
X367416Y791591D01*
X367378Y791652D01*
X367349Y791717D01*
X367314Y791755D01*
X367286Y791800D01*
X367231Y791846D01*
X367182Y791898D01*
X367137Y791923D01*
X367097Y791957D01*
X367030Y791982D01*
X366967Y792017D01*
X366916Y792026D01*
X366867Y792045D01*
X366796Y792048D01*
X366725Y792061D01*
X366673Y792053D01*
X366621Y792055D01*
X366552Y792035D01*
X366482Y792025D01*
X366435Y792001D01*
X366385Y791987D01*
X366326Y791946D01*
X366262Y791913D01*
X366226Y791876D01*
X366183Y791846D01*
X366140Y791789D01*
X366090Y791738D01*
X366056Y791675D01*
X366036Y791649D01*
X366029Y791627D01*
X366009Y791591D01*
X364995Y789142D01*
X361351Y785498D01*
X356589Y783526D01*
X351436Y783526D01*
X346674Y785498D01*
X343030Y789142D01*
X341058Y793904D01*
X341058Y815821D01*
X343030Y820583D01*
X343789Y821342D01*
X343831Y821400D01*
X343881Y821452D01*
X343903Y821500D01*
X343933Y821542D01*
X343954Y821610D01*
X343984Y821676D01*
X343990Y821727D01*
X344005Y821777D01*
X344004Y821849D01*
X344011Y821920D01*
X344000Y821971D01*
X343999Y822023D01*
X343974Y822090D01*
X343959Y822160D01*
X343932Y822205D01*
X343915Y822254D01*
X343870Y822310D01*
X343833Y822371D01*
X343793Y822405D01*
X343761Y822446D01*
X343701Y822485D01*
X343646Y822531D01*
X343598Y822551D01*
X343554Y822579D01*
X343484Y822596D01*
X343418Y822623D01*
X343347Y822631D01*
X343315Y822639D01*
X343292Y822637D01*
X343251Y822642D01*
X336500Y822642D01*
X336429Y822630D01*
X336358Y822628D01*
X336309Y822610D01*
X336257Y822602D01*
X336194Y822568D01*
X336127Y822544D01*
X336086Y822511D01*
X336040Y822487D01*
X335991Y822435D01*
X335935Y822390D01*
X335906Y822346D01*
X335871Y822309D01*
X335840Y822244D01*
X335802Y822183D01*
X335789Y822133D01*
X335767Y822086D01*
X335759Y822014D01*
X335742Y821945D01*
X335746Y821893D01*
X335740Y821841D01*
X335755Y821771D01*
X335761Y821700D01*
X335781Y821652D01*
X335792Y821601D01*
X335829Y821539D01*
X335857Y821473D01*
X335902Y821417D01*
X335918Y821390D01*
X335936Y821374D01*
X335962Y821342D01*
X336944Y820360D01*
X337954Y818969D01*
X338735Y817437D01*
X339266Y815802D01*
X339535Y814104D01*
X339535Y806386D01*
X329375Y806386D01*
X329355Y806382D01*
X329335Y806385D01*
X329234Y806363D01*
X329132Y806346D01*
X329114Y806337D01*
X329095Y806332D01*
X329006Y806279D01*
X328915Y806231D01*
X328901Y806216D01*
X328884Y806206D01*
X328816Y806128D01*
X328745Y806053D01*
X328737Y806034D01*
X328724Y806019D01*
X328685Y805923D01*
X328642Y805829D01*
X328639Y805810D01*
X328632Y805791D01*
X328613Y805624D01*
X328613Y804862D01*
X328612Y804862D01*
X328612Y805624D01*
X328608Y805644D01*
X328611Y805664D01*
X328589Y805765D01*
X328572Y805867D01*
X328563Y805885D01*
X328558Y805904D01*
X328505Y805993D01*
X328457Y806085D01*
X328442Y806098D01*
X328432Y806115D01*
X328353Y806183D01*
X328278Y806254D01*
X328260Y806262D01*
X328245Y806275D01*
X328149Y806314D01*
X328055Y806358D01*
X328036Y806360D01*
X328017Y806367D01*
X327850Y806386D01*
X317690Y806386D01*
X317690Y814104D01*
X317959Y815802D01*
X318490Y817437D01*
X319271Y818969D01*
X320281Y820360D01*
X321263Y821342D01*
X321305Y821400D01*
X321354Y821452D01*
X321376Y821500D01*
X321407Y821542D01*
X321428Y821610D01*
X321458Y821676D01*
X321464Y821727D01*
X321479Y821777D01*
X321477Y821849D01*
X321485Y821920D01*
X321474Y821971D01*
X321473Y822023D01*
X321448Y822090D01*
X321433Y822160D01*
X321406Y822205D01*
X321388Y822254D01*
X321343Y822310D01*
X321307Y822371D01*
X321267Y822405D01*
X321235Y822446D01*
X321174Y822485D01*
X321120Y822531D01*
X321071Y822551D01*
X321028Y822579D01*
X320958Y822596D01*
X320892Y822623D01*
X320820Y822631D01*
X320789Y822639D01*
X320766Y822637D01*
X320725Y822642D01*
X311100Y822642D01*
X311029Y822630D01*
X310958Y822628D01*
X310909Y822610D01*
X310857Y822602D01*
X310794Y822568D01*
X310727Y822544D01*
X310686Y822511D01*
X310640Y822487D01*
X310591Y822435D01*
X310535Y822390D01*
X310506Y822346D01*
X310471Y822309D01*
X310440Y822244D01*
X310402Y822183D01*
X310389Y822133D01*
X310367Y822086D01*
X310359Y822014D01*
X310342Y821945D01*
X310346Y821893D01*
X310340Y821841D01*
X310355Y821771D01*
X310361Y821700D01*
X310381Y821652D01*
X310392Y821601D01*
X310429Y821539D01*
X310457Y821473D01*
X310502Y821417D01*
X310518Y821390D01*
X310536Y821374D01*
X310562Y821342D01*
X311544Y820360D01*
X312554Y818969D01*
X313335Y817437D01*
X313866Y815802D01*
X314135Y814104D01*
X314135Y806386D01*
X303975Y806386D01*
X303955Y806382D01*
X303935Y806385D01*
X303834Y806363D01*
X303732Y806346D01*
X303714Y806337D01*
X303695Y806332D01*
X303606Y806279D01*
X303515Y806231D01*
X303501Y806216D01*
X303484Y806206D01*
X303416Y806128D01*
X303345Y806053D01*
X303337Y806034D01*
X303324Y806019D01*
X303285Y805923D01*
X303242Y805829D01*
X303239Y805810D01*
X303232Y805791D01*
X303213Y805624D01*
X303213Y804862D01*
X303212Y804862D01*
X303212Y805624D01*
X303208Y805644D01*
X303211Y805664D01*
X303189Y805765D01*
X303172Y805867D01*
X303163Y805885D01*
X303158Y805904D01*
X303105Y805993D01*
X303057Y806085D01*
X303042Y806098D01*
X303032Y806115D01*
X302953Y806183D01*
X302878Y806254D01*
X302860Y806262D01*
X302845Y806275D01*
X302749Y806314D01*
X302655Y806358D01*
X302636Y806360D01*
X302617Y806367D01*
X302450Y806386D01*
X292290Y806386D01*
X292290Y814104D01*
X292559Y815802D01*
X293090Y817437D01*
X293871Y818969D01*
X294881Y820360D01*
X295863Y821342D01*
X295905Y821400D01*
X295954Y821452D01*
X295976Y821500D01*
X296007Y821542D01*
X296028Y821610D01*
X296058Y821676D01*
X296064Y821727D01*
X296079Y821777D01*
X296077Y821849D01*
X296085Y821920D01*
X296074Y821971D01*
X296073Y822023D01*
X296048Y822090D01*
X296033Y822160D01*
X296006Y822205D01*
X295988Y822254D01*
X295943Y822310D01*
X295907Y822371D01*
X295867Y822405D01*
X295835Y822446D01*
X295774Y822485D01*
X295720Y822531D01*
X295671Y822551D01*
X295628Y822579D01*
X295558Y822596D01*
X295492Y822623D01*
X295420Y822631D01*
X295389Y822639D01*
X295366Y822637D01*
X295325Y822642D01*
X285700Y822642D01*
X285629Y822630D01*
X285558Y822628D01*
X285509Y822610D01*
X285457Y822602D01*
X285394Y822568D01*
X285327Y822544D01*
X285286Y822511D01*
X285240Y822487D01*
X285191Y822435D01*
X285135Y822390D01*
X285106Y822346D01*
X285071Y822309D01*
X285040Y822244D01*
X285002Y822183D01*
X284989Y822133D01*
X284967Y822086D01*
X284959Y822014D01*
X284942Y821945D01*
X284946Y821893D01*
X284940Y821841D01*
X284955Y821771D01*
X284961Y821700D01*
X284981Y821652D01*
X284992Y821601D01*
X285029Y821539D01*
X285057Y821473D01*
X285102Y821417D01*
X285118Y821390D01*
X285136Y821374D01*
X285162Y821342D01*
X286144Y820360D01*
X287154Y818969D01*
X287935Y817437D01*
X288466Y815802D01*
X288735Y814104D01*
X288735Y806386D01*
X278575Y806386D01*
X278555Y806382D01*
X278535Y806385D01*
X278434Y806363D01*
X278332Y806346D01*
X278314Y806337D01*
X278295Y806332D01*
X278206Y806279D01*
X278115Y806231D01*
X278101Y806216D01*
X278084Y806206D01*
X278016Y806128D01*
X277945Y806053D01*
X277937Y806034D01*
X277924Y806019D01*
X277885Y805923D01*
X277842Y805829D01*
X277839Y805810D01*
X277832Y805791D01*
X277813Y805624D01*
X277813Y804862D01*
X277812Y804862D01*
X277812Y805624D01*
X277808Y805644D01*
X277811Y805664D01*
X277789Y805765D01*
X277772Y805867D01*
X277763Y805885D01*
X277758Y805904D01*
X277705Y805993D01*
X277657Y806085D01*
X277642Y806098D01*
X277632Y806115D01*
X277553Y806183D01*
X277478Y806254D01*
X277460Y806262D01*
X277445Y806275D01*
X277349Y806314D01*
X277255Y806358D01*
X277236Y806360D01*
X277217Y806367D01*
X277050Y806386D01*
X266890Y806386D01*
X266890Y814104D01*
X267159Y815802D01*
X267690Y817437D01*
X268471Y818969D01*
X269481Y820360D01*
X270463Y821342D01*
X270505Y821400D01*
X270554Y821452D01*
X270576Y821500D01*
X270607Y821542D01*
X270628Y821610D01*
X270658Y821676D01*
X270664Y821727D01*
X270679Y821777D01*
X270677Y821849D01*
X270685Y821920D01*
X270674Y821971D01*
X270673Y822023D01*
X270648Y822090D01*
X270633Y822160D01*
X270606Y822205D01*
X270588Y822254D01*
X270543Y822310D01*
X270507Y822371D01*
X270467Y822405D01*
X270435Y822446D01*
X270374Y822485D01*
X270320Y822531D01*
X270271Y822551D01*
X270228Y822579D01*
X270158Y822596D01*
X270092Y822623D01*
X270020Y822631D01*
X269989Y822639D01*
X269966Y822637D01*
X269925Y822642D01*
X260300Y822642D01*
X260229Y822630D01*
X260158Y822628D01*
X260109Y822610D01*
X260057Y822602D01*
X259994Y822568D01*
X259927Y822544D01*
X259886Y822511D01*
X259840Y822487D01*
X259791Y822435D01*
X259735Y822390D01*
X259706Y822346D01*
X259671Y822309D01*
X259640Y822244D01*
X259602Y822183D01*
X259589Y822133D01*
X259567Y822086D01*
X259559Y822014D01*
X259542Y821945D01*
X259546Y821893D01*
X259540Y821841D01*
X259555Y821771D01*
X259561Y821700D01*
X259581Y821652D01*
X259592Y821601D01*
X259629Y821539D01*
X259657Y821473D01*
X259702Y821417D01*
X259718Y821390D01*
X259736Y821374D01*
X259762Y821342D01*
X260744Y820360D01*
X261754Y818969D01*
X262535Y817437D01*
X263066Y815802D01*
X263335Y814104D01*
X263335Y806386D01*
X253175Y806386D01*
X253155Y806382D01*
X253135Y806385D01*
X253034Y806363D01*
X252932Y806346D01*
X252914Y806337D01*
X252895Y806332D01*
X252806Y806279D01*
X252715Y806231D01*
X252701Y806216D01*
X252684Y806206D01*
X252616Y806128D01*
X252545Y806053D01*
X252537Y806034D01*
X252524Y806019D01*
X252485Y805923D01*
X252442Y805829D01*
X252439Y805810D01*
X252432Y805791D01*
X252413Y805624D01*
X252413Y804862D01*
X252412Y804862D01*
X252412Y805624D01*
X252408Y805644D01*
X252411Y805664D01*
X252389Y805765D01*
X252372Y805867D01*
X252363Y805885D01*
X252358Y805904D01*
X252305Y805993D01*
X252257Y806085D01*
X252242Y806098D01*
X252232Y806115D01*
X252153Y806183D01*
X252078Y806254D01*
X252060Y806262D01*
X252045Y806275D01*
X251949Y806314D01*
X251855Y806358D01*
X251836Y806360D01*
X251817Y806367D01*
X251650Y806386D01*
X241490Y806386D01*
X241490Y814104D01*
X241759Y815802D01*
X242290Y817437D01*
X243071Y818969D01*
X244081Y820360D01*
X245063Y821342D01*
X245105Y821400D01*
X245154Y821452D01*
X245176Y821500D01*
X245207Y821542D01*
X245228Y821610D01*
X245258Y821676D01*
X245264Y821727D01*
X245279Y821777D01*
X245277Y821849D01*
X245285Y821920D01*
X245274Y821971D01*
X245273Y822023D01*
X245248Y822090D01*
X245233Y822160D01*
X245206Y822205D01*
X245188Y822254D01*
X245143Y822310D01*
X245107Y822371D01*
X245067Y822405D01*
X245035Y822446D01*
X244974Y822485D01*
X244920Y822531D01*
X244871Y822551D01*
X244828Y822579D01*
X244758Y822596D01*
X244692Y822623D01*
X244620Y822631D01*
X244589Y822639D01*
X244566Y822637D01*
X244525Y822642D01*
X237774Y822642D01*
X237703Y822630D01*
X237631Y822628D01*
X237582Y822610D01*
X237531Y822602D01*
X237468Y822568D01*
X237400Y822544D01*
X237360Y822511D01*
X237314Y822487D01*
X237264Y822435D01*
X237208Y822390D01*
X237180Y822346D01*
X237144Y822309D01*
X237114Y822244D01*
X237075Y822183D01*
X237063Y822133D01*
X237041Y822086D01*
X237033Y822014D01*
X237015Y821945D01*
X237019Y821893D01*
X237014Y821841D01*
X237029Y821771D01*
X237034Y821700D01*
X237055Y821652D01*
X237066Y821601D01*
X237103Y821539D01*
X237131Y821473D01*
X237176Y821417D01*
X237192Y821390D01*
X237210Y821374D01*
X237236Y821342D01*
X237995Y820583D01*
X239967Y815821D01*
X239967Y793904D01*
X237995Y789142D01*
X234351Y785498D01*
X229589Y783526D01*
X224436Y783526D01*
X219674Y785498D01*
X216030Y789142D01*
X215016Y791591D01*
X214978Y791652D01*
X214949Y791717D01*
X214914Y791756D01*
X214886Y791800D01*
X214831Y791846D01*
X214782Y791898D01*
X214737Y791923D01*
X214697Y791957D01*
X214630Y791982D01*
X214567Y792017D01*
X214516Y792026D01*
X214467Y792045D01*
X214396Y792048D01*
X214325Y792061D01*
X214273Y792053D01*
X214221Y792055D01*
X214152Y792035D01*
X214082Y792025D01*
X214035Y792001D01*
X213985Y791987D01*
X213926Y791946D01*
X213862Y791913D01*
X213826Y791876D01*
X213783Y791846D01*
X213740Y791789D01*
X213690Y791738D01*
X213655Y791675D01*
X213636Y791649D01*
X213629Y791627D01*
X213609Y791591D01*
X212595Y789142D01*
X208951Y785498D01*
X204189Y783526D01*
X199036Y783526D01*
X194274Y785498D01*
X190630Y789142D01*
X189616Y791591D01*
X189578Y791652D01*
X189549Y791717D01*
X189514Y791756D01*
X189486Y791800D01*
X189431Y791846D01*
X189382Y791898D01*
X189337Y791923D01*
X189297Y791957D01*
X189230Y791982D01*
X189167Y792017D01*
X189116Y792026D01*
X189067Y792045D01*
X188996Y792048D01*
X188925Y792061D01*
X188873Y792053D01*
X188821Y792055D01*
X188752Y792035D01*
X188682Y792025D01*
X188635Y792001D01*
X188585Y791987D01*
X188526Y791946D01*
X188462Y791913D01*
X188426Y791876D01*
X188383Y791846D01*
X188340Y791789D01*
X188290Y791738D01*
X188255Y791675D01*
X188236Y791649D01*
X188229Y791627D01*
X188209Y791591D01*
X187195Y789142D01*
X183551Y785498D01*
X178789Y783526D01*
X173636Y783526D01*
X168874Y785498D01*
X165230Y789142D01*
X164216Y791591D01*
X164178Y791652D01*
X164149Y791717D01*
X164114Y791756D01*
X164086Y791800D01*
X164031Y791846D01*
X163982Y791898D01*
X163937Y791923D01*
X163897Y791957D01*
X163830Y791982D01*
X163767Y792017D01*
X163716Y792026D01*
X163667Y792045D01*
X163596Y792048D01*
X163525Y792061D01*
X163473Y792053D01*
X163421Y792055D01*
X163352Y792035D01*
X163282Y792025D01*
X163235Y792001D01*
X163185Y791987D01*
X163126Y791946D01*
X163062Y791913D01*
X163026Y791876D01*
X162983Y791846D01*
X162940Y791789D01*
X162890Y791738D01*
X162855Y791675D01*
X162836Y791649D01*
X162829Y791627D01*
X162809Y791591D01*
X161795Y789142D01*
X158151Y785498D01*
X153389Y783526D01*
X148236Y783526D01*
X143474Y785498D01*
X139830Y789142D01*
X138816Y791591D01*
X138778Y791652D01*
X138749Y791717D01*
X138714Y791756D01*
X138686Y791800D01*
X138631Y791846D01*
X138582Y791898D01*
X138537Y791923D01*
X138497Y791957D01*
X138430Y791982D01*
X138367Y792017D01*
X138316Y792026D01*
X138267Y792045D01*
X138196Y792048D01*
X138125Y792061D01*
X138073Y792053D01*
X138021Y792055D01*
X137952Y792035D01*
X137882Y792025D01*
X137835Y792001D01*
X137785Y791987D01*
X137726Y791946D01*
X137662Y791913D01*
X137626Y791876D01*
X137583Y791846D01*
X137540Y791789D01*
X137490Y791738D01*
X137455Y791675D01*
X137436Y791649D01*
X137429Y791627D01*
X137409Y791591D01*
X136395Y789142D01*
X135288Y788035D01*
X135235Y787961D01*
X135176Y787892D01*
X135164Y787862D01*
X135145Y787836D01*
X135118Y787749D01*
X135084Y787664D01*
X135079Y787623D01*
X135072Y787601D01*
X135073Y787568D01*
X135065Y787497D01*
X135065Y769187D01*
X135080Y769097D01*
X135087Y769006D01*
X135100Y768977D01*
X135105Y768945D01*
X135148Y768864D01*
X135183Y768780D01*
X135209Y768748D01*
X135220Y768727D01*
X135243Y768705D01*
X135288Y768649D01*
X141142Y762795D01*
X141216Y762742D01*
X141285Y762683D01*
X141316Y762670D01*
X141342Y762652D01*
X141429Y762625D01*
X141514Y762591D01*
X141555Y762586D01*
X141577Y762579D01*
X141609Y762580D01*
X141680Y762572D01*
X507149Y762572D01*
X511444Y760793D01*
X514731Y757506D01*
X516510Y753212D01*
X516510Y748563D01*
X514731Y744269D01*
X511444Y740982D01*
X507149Y739203D01*
X370582Y739203D01*
X370492Y739188D01*
X370401Y739181D01*
X370371Y739168D01*
X370339Y739163D01*
X370258Y739120D01*
X370174Y739085D01*
X370142Y739059D01*
X370121Y739048D01*
X370103Y739028D01*
X370101Y739027D01*
X370095Y739021D01*
X370043Y738980D01*
X369005Y737942D01*
X365458Y736472D01*
X361617Y736472D01*
X358070Y737942D01*
X357032Y738980D01*
X356958Y739033D01*
X356888Y739092D01*
X356858Y739105D01*
X356832Y739123D01*
X356745Y739150D01*
X356660Y739184D01*
X356619Y739189D01*
X356597Y739196D01*
X356565Y739195D01*
X356493Y739203D01*
X148030Y739203D01*
X147940Y739188D01*
X147849Y739181D01*
X147820Y739168D01*
X147788Y739163D01*
X147707Y739120D01*
X147623Y739085D01*
X147591Y739059D01*
X147570Y739048D01*
X147551Y739028D01*
X147549Y739027D01*
X147544Y739021D01*
X147492Y738980D01*
X146319Y737807D01*
X142024Y736028D01*
X48018Y736028D01*
X47928Y736013D01*
X47837Y736006D01*
X47807Y735993D01*
X47775Y735988D01*
X47694Y735945D01*
X47610Y735910D01*
X47578Y735884D01*
X47558Y735873D01*
X47535Y735850D01*
X47480Y735805D01*
X43658Y731983D01*
X43605Y731909D01*
X43545Y731840D01*
X43533Y731810D01*
X43514Y731783D01*
X43487Y731696D01*
X43453Y731611D01*
X43449Y731571D01*
X43442Y731548D01*
X43443Y731516D01*
X43435Y731445D01*
X43435Y729057D01*
X43446Y728986D01*
X43448Y728915D01*
X43466Y728866D01*
X43474Y728814D01*
X43508Y728751D01*
X43533Y728684D01*
X43565Y728643D01*
X43590Y728597D01*
X43642Y728548D01*
X43686Y728492D01*
X43730Y728463D01*
X43768Y728428D01*
X43833Y728397D01*
X43893Y728359D01*
X43944Y728346D01*
X43991Y728324D01*
X44062Y728316D01*
X44132Y728299D01*
X44184Y728303D01*
X44235Y728297D01*
X44306Y728312D01*
X44377Y728318D01*
X44425Y728338D01*
X44476Y728349D01*
X44537Y728386D01*
X44603Y728414D01*
X44659Y728459D01*
X44687Y728475D01*
X44702Y728493D01*
X44734Y728519D01*
X47788Y731572D01*
X51802Y733235D01*
X56148Y733235D01*
X60162Y731572D01*
X63235Y728500D01*
X64898Y724485D01*
X64898Y720140D01*
X63235Y716125D01*
X60162Y713053D01*
X56148Y711390D01*
X51802Y711390D01*
X47788Y713053D01*
X44734Y716106D01*
X44676Y716148D01*
X44624Y716197D01*
X44577Y716219D01*
X44535Y716250D01*
X44466Y716271D01*
X44401Y716301D01*
X44349Y716307D01*
X44299Y716322D01*
X44228Y716320D01*
X44157Y716328D01*
X44106Y716317D01*
X44054Y716316D01*
X43986Y716291D01*
X43916Y716276D01*
X43871Y716249D01*
X43823Y716231D01*
X43767Y716186D01*
X43705Y716150D01*
X43671Y716110D01*
X43631Y716078D01*
X43592Y716017D01*
X43545Y715963D01*
X43526Y715914D01*
X43498Y715871D01*
X43480Y715801D01*
X43453Y715735D01*
X43445Y715663D01*
X43437Y715632D01*
X43439Y715609D01*
X43435Y715568D01*
X43435Y376630D01*
X43449Y376540D01*
X43457Y376449D01*
X43469Y376420D01*
X43474Y376388D01*
X43517Y376307D01*
X43553Y376223D01*
X43579Y376191D01*
X43590Y376170D01*
X43613Y376148D01*
X43658Y376092D01*
X62293Y357456D01*
X64072Y353162D01*
X64072Y348513D01*
X62293Y344219D01*
X59006Y340932D01*
X54712Y339153D01*
X50063Y339153D01*
X45769Y340932D01*
X21844Y364856D01*
X20065Y369151D01*
X20065Y738924D01*
X21844Y743219D01*
X25238Y746613D01*
X36244Y757618D01*
X40538Y759397D01*
X105970Y759397D01*
X106060Y759412D01*
X106151Y759419D01*
X106180Y759432D01*
X106212Y759437D01*
X106293Y759480D01*
X106377Y759515D01*
X106409Y759541D01*
X106430Y759552D01*
X106452Y759575D01*
X106508Y759620D01*
X115537Y768649D01*
X115590Y768723D01*
X115649Y768792D01*
X115662Y768823D01*
X115680Y768849D01*
X115707Y768936D01*
X115741Y769021D01*
X115746Y769062D01*
X115753Y769084D01*
X115752Y769116D01*
X115760Y769187D01*
X115760Y787497D01*
X115745Y787587D01*
X115738Y787678D01*
X115725Y787708D01*
X115720Y787740D01*
X115677Y787821D01*
X115642Y787905D01*
X115616Y787937D01*
X115605Y787957D01*
X115582Y787979D01*
X115537Y788035D01*
X114430Y789142D01*
X112458Y793904D01*
X112458Y815821D01*
X114430Y820583D01*
X115189Y821342D01*
X115231Y821400D01*
X115281Y821452D01*
X115303Y821500D01*
X115333Y821542D01*
X115354Y821610D01*
X115384Y821676D01*
X115390Y821727D01*
X115405Y821777D01*
X115404Y821849D01*
X115411Y821920D01*
X115400Y821971D01*
X115399Y822023D01*
X115374Y822090D01*
X115359Y822160D01*
X115332Y822205D01*
X115315Y822254D01*
X115270Y822310D01*
X115233Y822371D01*
X115193Y822405D01*
X115161Y822446D01*
X115101Y822485D01*
X115046Y822531D01*
X114998Y822551D01*
X114954Y822579D01*
X114884Y822596D01*
X114818Y822623D01*
X114747Y822631D01*
X114715Y822639D01*
X114692Y822637D01*
X114651Y822642D01*
X107900Y822642D01*
X107829Y822630D01*
X107758Y822628D01*
X107709Y822610D01*
X107657Y822602D01*
X107594Y822568D01*
X107527Y822544D01*
X107486Y822511D01*
X107440Y822487D01*
X107391Y822435D01*
X107335Y822390D01*
X107306Y822346D01*
X107271Y822309D01*
X107240Y822244D01*
X107202Y822183D01*
X107189Y822133D01*
X107167Y822086D01*
X107159Y822014D01*
X107142Y821945D01*
X107146Y821893D01*
X107140Y821841D01*
X107155Y821771D01*
X107161Y821700D01*
X107181Y821652D01*
X107192Y821601D01*
X107229Y821539D01*
X107257Y821473D01*
X107302Y821417D01*
X107318Y821390D01*
X107336Y821374D01*
X107362Y821342D01*
X108344Y820360D01*
X109354Y818969D01*
X110135Y817437D01*
X110666Y815802D01*
X110935Y814104D01*
X110935Y806386D01*
X100775Y806386D01*
X100755Y806382D01*
X100735Y806385D01*
X100634Y806363D01*
X100532Y806346D01*
X100514Y806337D01*
X100495Y806332D01*
X100406Y806279D01*
X100315Y806231D01*
X100301Y806216D01*
X100284Y806206D01*
X100216Y806128D01*
X100145Y806053D01*
X100137Y806034D01*
X100124Y806019D01*
X100085Y805923D01*
X100042Y805829D01*
X100039Y805810D01*
X100032Y805791D01*
X100013Y805624D01*
X100013Y804862D01*
X100012Y804862D01*
X100012Y805624D01*
X100008Y805644D01*
X100011Y805664D01*
X99989Y805765D01*
X99972Y805867D01*
X99963Y805885D01*
X99958Y805904D01*
X99905Y805993D01*
X99857Y806085D01*
X99842Y806098D01*
X99832Y806115D01*
X99753Y806183D01*
X99678Y806254D01*
X99660Y806262D01*
X99645Y806275D01*
X99549Y806314D01*
X99455Y806358D01*
X99436Y806360D01*
X99417Y806367D01*
X99250Y806386D01*
X89090Y806386D01*
X89090Y814104D01*
X89359Y815802D01*
X89890Y817437D01*
X90671Y818969D01*
X91681Y820360D01*
X92663Y821342D01*
X92705Y821400D01*
X92754Y821452D01*
X92776Y821500D01*
X92807Y821542D01*
X92828Y821610D01*
X92858Y821676D01*
X92864Y821727D01*
X92879Y821777D01*
X92877Y821849D01*
X92885Y821920D01*
X92874Y821971D01*
X92873Y822023D01*
X92848Y822090D01*
X92833Y822160D01*
X92806Y822205D01*
X92788Y822254D01*
X92743Y822310D01*
X92707Y822371D01*
X92667Y822405D01*
X92635Y822446D01*
X92574Y822485D01*
X92520Y822531D01*
X92471Y822551D01*
X92428Y822579D01*
X92358Y822596D01*
X92292Y822623D01*
X92220Y822631D01*
X92189Y822639D01*
X92166Y822637D01*
X92125Y822642D01*
X39647Y822642D01*
X39577Y822630D01*
X39505Y822628D01*
X39456Y822610D01*
X39405Y822602D01*
X39341Y822568D01*
X39274Y822544D01*
X39233Y822511D01*
X39187Y822487D01*
X39138Y822435D01*
X39082Y822390D01*
X39054Y822346D01*
X39018Y822309D01*
X38988Y822244D01*
X38949Y822183D01*
X38936Y822133D01*
X38914Y822086D01*
X38906Y822014D01*
X38889Y821945D01*
X38893Y821893D01*
X38887Y821841D01*
X38902Y821771D01*
X38908Y821700D01*
X38928Y821652D01*
X38939Y821601D01*
X38976Y821539D01*
X39004Y821473D01*
X39049Y821417D01*
X39066Y821390D01*
X39083Y821374D01*
X39109Y821342D01*
X43342Y817110D01*
X46633Y809163D01*
X46633Y800562D01*
X43342Y792615D01*
X37260Y786533D01*
X29313Y783242D01*
X20712Y783242D01*
X12765Y786533D01*
X8920Y790378D01*
X8862Y790420D01*
X8810Y790470D01*
X8763Y790492D01*
X8721Y790522D01*
X8652Y790543D01*
X8587Y790573D01*
X8535Y790579D01*
X8485Y790594D01*
X8414Y790592D01*
X8343Y790600D01*
X8292Y790589D01*
X8240Y790588D01*
X8172Y790563D01*
X8102Y790548D01*
X8057Y790521D01*
X8009Y790503D01*
X7953Y790459D01*
X7891Y790422D01*
X7857Y790382D01*
X7817Y790350D01*
X7778Y790289D01*
X7731Y790235D01*
X7712Y790187D01*
X7684Y790143D01*
X7666Y790073D01*
X7639Y790007D01*
X7631Y789935D01*
X7623Y789904D01*
X7625Y789881D01*
X7621Y789840D01*
X7621Y269885D01*
X7632Y269814D01*
X7634Y269742D01*
X7652Y269693D01*
X7660Y269642D01*
X7694Y269579D01*
X7719Y269511D01*
X7751Y269471D01*
X7776Y269425D01*
X7828Y269375D01*
X7872Y269319D01*
X7916Y269291D01*
X7954Y269255D01*
X8019Y269225D01*
X8079Y269186D01*
X8130Y269174D01*
X8177Y269152D01*
X8248Y269144D01*
X8318Y269126D01*
X8370Y269130D01*
X8421Y269125D01*
X8492Y269140D01*
X8563Y269145D01*
X8611Y269166D01*
X8662Y269177D01*
X8723Y269214D01*
X8789Y269242D01*
X8845Y269287D01*
X8873Y269303D01*
X8888Y269321D01*
X8920Y269347D01*
X12765Y273192D01*
X20712Y276483D01*
X29313Y276483D01*
X37260Y273192D01*
X43342Y267110D01*
X46633Y259163D01*
X46633Y250562D01*
X43342Y242615D01*
X37260Y236533D01*
X29313Y233242D01*
X20712Y233242D01*
X12765Y236533D01*
X8920Y240378D01*
X8862Y240420D01*
X8810Y240470D01*
X8763Y240492D01*
X8721Y240522D01*
X8652Y240543D01*
X8587Y240573D01*
X8535Y240579D01*
X8485Y240594D01*
X8414Y240592D01*
X8343Y240600D01*
X8292Y240589D01*
X8240Y240588D01*
X8172Y240563D01*
X8102Y240548D01*
X8057Y240521D01*
X8009Y240503D01*
X7953Y240459D01*
X7891Y240422D01*
X7857Y240382D01*
X7817Y240350D01*
X7778Y240289D01*
X7731Y240235D01*
X7712Y240187D01*
X7684Y240143D01*
X7666Y240073D01*
X7639Y240007D01*
X7631Y239935D01*
X7623Y239904D01*
X7625Y239881D01*
X7621Y239840D01*
X7621Y40035D01*
X7632Y39964D01*
X7634Y39892D01*
X7652Y39843D01*
X7660Y39792D01*
X7694Y39729D01*
X7719Y39661D01*
X7751Y39621D01*
X7776Y39575D01*
X7828Y39525D01*
X7872Y39469D01*
X7916Y39441D01*
X7954Y39405D01*
X8019Y39375D01*
X8079Y39336D01*
X8130Y39324D01*
X8177Y39302D01*
X8248Y39294D01*
X8318Y39276D01*
X8370Y39280D01*
X8421Y39275D01*
X8492Y39290D01*
X8563Y39295D01*
X8611Y39316D01*
X8662Y39327D01*
X8723Y39364D01*
X8789Y39392D01*
X8845Y39437D01*
X8873Y39453D01*
X8888Y39471D01*
X8920Y39497D01*
X12359Y42935D01*
X20306Y46227D01*
X28907Y46227D01*
X36853Y42935D01*
X42935Y36853D01*
X46227Y28907D01*
X46227Y20306D01*
X42935Y12359D01*
X39497Y8920D01*
X39455Y8862D01*
X39405Y8810D01*
X39383Y8763D01*
X39353Y8721D01*
X39332Y8652D01*
X39302Y8587D01*
X39296Y8535D01*
X39281Y8485D01*
X39283Y8414D01*
X39275Y8343D01*
X39286Y8292D01*
X39287Y8240D01*
X39312Y8172D01*
X39327Y8102D01*
X39354Y8057D01*
X39372Y8009D01*
X39416Y7953D01*
X39453Y7891D01*
X39493Y7857D01*
X39525Y7817D01*
X39586Y7778D01*
X39640Y7731D01*
X39688Y7712D01*
X39732Y7684D01*
X39802Y7666D01*
X39868Y7639D01*
X39940Y7631D01*
X39971Y7623D01*
X39994Y7625D01*
X40035Y7621D01*
X263525Y7621D01*
X263545Y7624D01*
G37*
G36*
X939523Y7632D02*
X939523Y7632D01*
X939595Y7634D01*
X939644Y7652D01*
X939695Y7660D01*
X939759Y7694D01*
X939826Y7719D01*
X939867Y7751D01*
X939913Y7776D01*
X939962Y7828D01*
X940018Y7872D01*
X940046Y7916D01*
X940082Y7954D01*
X940112Y8019D01*
X940151Y8079D01*
X940164Y8130D01*
X940186Y8177D01*
X940194Y8248D01*
X940211Y8318D01*
X940207Y8370D01*
X940213Y8421D01*
X940198Y8492D01*
X940192Y8563D01*
X940172Y8611D01*
X940161Y8662D01*
X940124Y8723D01*
X940096Y8789D01*
X940051Y8845D01*
X940034Y8873D01*
X940017Y8888D01*
X939991Y8920D01*
X936552Y12359D01*
X933261Y20306D01*
X933261Y28907D01*
X936552Y36853D01*
X942634Y42935D01*
X950581Y46227D01*
X959182Y46227D01*
X967128Y42935D01*
X970567Y39497D01*
X970625Y39455D01*
X970677Y39405D01*
X970725Y39383D01*
X970767Y39353D01*
X970835Y39332D01*
X970901Y39302D01*
X970952Y39296D01*
X971002Y39281D01*
X971074Y39283D01*
X971145Y39275D01*
X971196Y39286D01*
X971248Y39287D01*
X971315Y39312D01*
X971385Y39327D01*
X971430Y39354D01*
X971479Y39372D01*
X971535Y39416D01*
X971596Y39453D01*
X971630Y39493D01*
X971671Y39525D01*
X971710Y39586D01*
X971756Y39640D01*
X971776Y39688D01*
X971804Y39732D01*
X971821Y39802D01*
X971848Y39868D01*
X971856Y39940D01*
X971864Y39971D01*
X971862Y39994D01*
X971867Y40035D01*
X971867Y239303D01*
X971855Y239373D01*
X971853Y239445D01*
X971835Y239494D01*
X971827Y239545D01*
X971793Y239609D01*
X971769Y239676D01*
X971736Y239717D01*
X971712Y239763D01*
X971660Y239812D01*
X971615Y239868D01*
X971571Y239896D01*
X971534Y239932D01*
X971469Y239962D01*
X971408Y240001D01*
X971358Y240014D01*
X971311Y240036D01*
X971239Y240044D01*
X971170Y240061D01*
X971118Y240057D01*
X971066Y240063D01*
X970996Y240048D01*
X970925Y240042D01*
X970877Y240022D01*
X970826Y240011D01*
X970764Y239974D01*
X970698Y239946D01*
X970642Y239901D01*
X970615Y239884D01*
X970599Y239867D01*
X970567Y239841D01*
X967260Y236533D01*
X959313Y233242D01*
X950712Y233242D01*
X942765Y236533D01*
X936683Y242615D01*
X933392Y250562D01*
X933392Y259163D01*
X936683Y267110D01*
X942765Y273192D01*
X950712Y276483D01*
X959313Y276483D01*
X967260Y273192D01*
X970567Y269884D01*
X970625Y269842D01*
X970677Y269793D01*
X970725Y269771D01*
X970767Y269741D01*
X970835Y269719D01*
X970901Y269689D01*
X970952Y269684D01*
X971002Y269668D01*
X971074Y269670D01*
X971145Y269662D01*
X971196Y269673D01*
X971248Y269675D01*
X971315Y269699D01*
X971385Y269714D01*
X971430Y269741D01*
X971479Y269759D01*
X971535Y269804D01*
X971596Y269841D01*
X971630Y269880D01*
X971671Y269913D01*
X971710Y269973D01*
X971756Y270028D01*
X971776Y270076D01*
X971804Y270120D01*
X971821Y270189D01*
X971848Y270256D01*
X971856Y270327D01*
X971864Y270358D01*
X971862Y270381D01*
X971867Y270422D01*
X971867Y387350D01*
X971864Y387370D01*
X971866Y387389D01*
X971844Y387491D01*
X971827Y387593D01*
X971818Y387610D01*
X971813Y387630D01*
X971760Y387719D01*
X971712Y387810D01*
X971698Y387824D01*
X971687Y387841D01*
X971609Y387908D01*
X971534Y387979D01*
X971516Y387988D01*
X971500Y388001D01*
X971404Y388040D01*
X971311Y388083D01*
X971291Y388085D01*
X971272Y388093D01*
X971106Y388111D01*
X634455Y388111D01*
X634385Y388100D01*
X634313Y388098D01*
X634264Y388080D01*
X634212Y388072D01*
X634149Y388038D01*
X634082Y388013D01*
X634041Y387981D01*
X633995Y387956D01*
X633946Y387905D01*
X633890Y387860D01*
X633862Y387816D01*
X633826Y387778D01*
X633796Y387713D01*
X633757Y387653D01*
X633744Y387602D01*
X633722Y387555D01*
X633714Y387484D01*
X633697Y387414D01*
X633701Y387362D01*
X633695Y387311D01*
X633710Y387240D01*
X633716Y387169D01*
X633736Y387121D01*
X633747Y387070D01*
X633784Y387009D01*
X633812Y386943D01*
X633857Y386887D01*
X633873Y386859D01*
X633891Y386844D01*
X633917Y386812D01*
X712763Y307966D01*
X713614Y305912D01*
X713614Y289632D01*
X713628Y289542D01*
X713636Y289451D01*
X713648Y289422D01*
X713653Y289390D01*
X713696Y289309D01*
X713732Y289225D01*
X713758Y289193D01*
X713769Y289172D01*
X713792Y289150D01*
X713837Y289094D01*
X714465Y288466D01*
X715622Y285674D01*
X715622Y282651D01*
X714465Y279859D01*
X712328Y277722D01*
X709536Y276566D01*
X706514Y276566D01*
X703722Y277722D01*
X701585Y279859D01*
X700428Y282651D01*
X700428Y285674D01*
X701585Y288466D01*
X702213Y289094D01*
X702266Y289168D01*
X702326Y289238D01*
X702338Y289268D01*
X702357Y289294D01*
X702384Y289381D01*
X702418Y289466D01*
X702422Y289507D01*
X702429Y289529D01*
X702428Y289561D01*
X702436Y289632D01*
X702436Y302170D01*
X702422Y302260D01*
X702414Y302351D01*
X702402Y302381D01*
X702397Y302412D01*
X702354Y302493D01*
X702318Y302577D01*
X702292Y302609D01*
X702281Y302630D01*
X702258Y302652D01*
X702213Y302708D01*
X617033Y387888D01*
X616959Y387941D01*
X616890Y388001D01*
X616859Y388013D01*
X616833Y388032D01*
X616746Y388059D01*
X616661Y388093D01*
X616621Y388097D01*
X616598Y388104D01*
X616566Y388103D01*
X616495Y388111D01*
X562659Y388111D01*
X562588Y388100D01*
X562516Y388098D01*
X562467Y388080D01*
X562416Y388072D01*
X562353Y388038D01*
X562285Y388013D01*
X562244Y387981D01*
X562198Y387956D01*
X562149Y387905D01*
X562093Y387860D01*
X562065Y387816D01*
X562029Y387778D01*
X561999Y387713D01*
X561960Y387653D01*
X561947Y387602D01*
X561925Y387555D01*
X561917Y387484D01*
X561900Y387414D01*
X561904Y387362D01*
X561898Y387311D01*
X561914Y387240D01*
X561919Y387169D01*
X561939Y387121D01*
X561951Y387070D01*
X561987Y387009D01*
X562015Y386943D01*
X562060Y386887D01*
X562077Y386859D01*
X562095Y386844D01*
X562120Y386812D01*
X589362Y359570D01*
X589436Y359517D01*
X589505Y359458D01*
X589535Y359445D01*
X589562Y359427D01*
X589648Y359400D01*
X589733Y359366D01*
X589774Y359361D01*
X589797Y359354D01*
X589829Y359355D01*
X589900Y359347D01*
X628124Y359347D01*
X630084Y358535D01*
X650635Y337984D01*
X651447Y336024D01*
X651447Y296236D01*
X651462Y296146D01*
X651469Y296055D01*
X651482Y296026D01*
X651487Y295994D01*
X651530Y295913D01*
X651565Y295829D01*
X651591Y295797D01*
X651602Y295776D01*
X651625Y295754D01*
X651670Y295698D01*
X652553Y294816D01*
X653709Y292024D01*
X653709Y289001D01*
X652553Y286209D01*
X650416Y284072D01*
X647624Y282916D01*
X644601Y282916D01*
X641809Y284072D01*
X641634Y284247D01*
X641576Y284289D01*
X641524Y284339D01*
X641477Y284361D01*
X641435Y284391D01*
X641366Y284412D01*
X641301Y284442D01*
X641249Y284448D01*
X641199Y284463D01*
X641128Y284461D01*
X641057Y284469D01*
X641006Y284458D01*
X640954Y284457D01*
X640886Y284432D01*
X640816Y284417D01*
X640771Y284390D01*
X640723Y284372D01*
X640667Y284328D01*
X640605Y284291D01*
X640571Y284251D01*
X640531Y284219D01*
X640492Y284159D01*
X640445Y284104D01*
X640426Y284056D01*
X640398Y284012D01*
X640380Y283942D01*
X640353Y283876D01*
X640345Y283805D01*
X640337Y283773D01*
X640339Y283750D01*
X640335Y283709D01*
X640335Y267661D01*
X640349Y267571D01*
X640357Y267480D01*
X640369Y267451D01*
X640374Y267419D01*
X640417Y267338D01*
X640453Y267254D01*
X640479Y267222D01*
X640490Y267201D01*
X640513Y267179D01*
X640558Y267123D01*
X641440Y266241D01*
X642597Y263449D01*
X642597Y260426D01*
X641440Y257634D01*
X639303Y255497D01*
X636511Y254341D01*
X633489Y254341D01*
X630697Y255497D01*
X628560Y257634D01*
X627403Y260426D01*
X627403Y263449D01*
X628560Y266241D01*
X629442Y267123D01*
X629495Y267197D01*
X629555Y267267D01*
X629567Y267297D01*
X629586Y267323D01*
X629613Y267410D01*
X629647Y267495D01*
X629651Y267536D01*
X629658Y267558D01*
X629657Y267590D01*
X629665Y267661D01*
X629665Y283225D01*
X629664Y283232D01*
X629664Y283233D01*
X629663Y283237D01*
X629651Y283315D01*
X629643Y283406D01*
X629631Y283436D01*
X629626Y283468D01*
X629583Y283548D01*
X629547Y283632D01*
X629521Y283664D01*
X629510Y283685D01*
X629487Y283707D01*
X629442Y283763D01*
X587659Y325546D01*
X587601Y325588D01*
X587549Y325638D01*
X587502Y325660D01*
X587460Y325690D01*
X587391Y325711D01*
X587326Y325741D01*
X587274Y325747D01*
X587224Y325762D01*
X587153Y325760D01*
X587082Y325768D01*
X587031Y325757D01*
X586979Y325756D01*
X586911Y325731D01*
X586841Y325716D01*
X586796Y325689D01*
X586748Y325671D01*
X586692Y325627D01*
X586630Y325590D01*
X586596Y325550D01*
X586556Y325518D01*
X586517Y325457D01*
X586470Y325403D01*
X586451Y325355D01*
X586423Y325311D01*
X586405Y325241D01*
X586378Y325175D01*
X586370Y325103D01*
X586362Y325072D01*
X586364Y325049D01*
X586360Y325008D01*
X586360Y267661D01*
X586374Y267571D01*
X586382Y267480D01*
X586394Y267451D01*
X586399Y267419D01*
X586442Y267338D01*
X586478Y267254D01*
X586504Y267222D01*
X586515Y267201D01*
X586538Y267179D01*
X586583Y267123D01*
X587465Y266241D01*
X588622Y263449D01*
X588622Y260426D01*
X587465Y257634D01*
X586909Y257078D01*
X586867Y257020D01*
X586818Y256968D01*
X586796Y256921D01*
X586766Y256879D01*
X586745Y256810D01*
X586714Y256745D01*
X586709Y256693D01*
X586693Y256643D01*
X586695Y256572D01*
X586687Y256501D01*
X586698Y256450D01*
X586700Y256398D01*
X586724Y256330D01*
X586739Y256260D01*
X586766Y256215D01*
X586784Y256167D01*
X586829Y256111D01*
X586866Y256049D01*
X586905Y256015D01*
X586938Y255975D01*
X586998Y255936D01*
X587053Y255889D01*
X587101Y255870D01*
X587145Y255842D01*
X587214Y255824D01*
X587281Y255797D01*
X587352Y255789D01*
X587383Y255781D01*
X587406Y255783D01*
X587447Y255779D01*
X612804Y255779D01*
X615792Y254541D01*
X623857Y246477D01*
X623931Y246424D01*
X624000Y246364D01*
X624030Y246352D01*
X624056Y246333D01*
X624143Y246306D01*
X624228Y246272D01*
X624269Y246268D01*
X624291Y246261D01*
X624324Y246262D01*
X624395Y246254D01*
X903317Y246254D01*
X906305Y245016D01*
X908591Y242730D01*
X909829Y239742D01*
X909829Y236508D01*
X908591Y233520D01*
X906305Y231234D01*
X903317Y229996D01*
X619096Y229996D01*
X616108Y231234D01*
X608043Y239298D01*
X607969Y239351D01*
X607900Y239411D01*
X607870Y239423D01*
X607844Y239442D01*
X607757Y239469D01*
X607672Y239503D01*
X607631Y239507D01*
X607609Y239514D01*
X607576Y239513D01*
X607505Y239521D01*
X458758Y239521D01*
X456445Y240479D01*
X456381Y240494D01*
X456321Y240519D01*
X456238Y240528D01*
X456206Y240535D01*
X456186Y240534D01*
X456154Y240537D01*
X373833Y240537D01*
X373743Y240523D01*
X373652Y240515D01*
X373623Y240503D01*
X373591Y240498D01*
X373510Y240455D01*
X373426Y240419D01*
X373394Y240393D01*
X373373Y240382D01*
X373351Y240359D01*
X373295Y240314D01*
X372603Y239622D01*
X369811Y238466D01*
X366789Y238466D01*
X363997Y239622D01*
X361860Y241759D01*
X360703Y244551D01*
X360703Y247574D01*
X361860Y250366D01*
X363997Y252503D01*
X365025Y252929D01*
X365081Y252963D01*
X365141Y252989D01*
X365206Y253041D01*
X365234Y253058D01*
X365247Y253073D01*
X365272Y253094D01*
X365858Y253680D01*
X368473Y254763D01*
X456154Y254763D01*
X456218Y254773D01*
X456284Y254774D01*
X456364Y254797D01*
X456397Y254802D01*
X456414Y254812D01*
X456445Y254821D01*
X458758Y255779D01*
X523803Y255779D01*
X523873Y255790D01*
X523945Y255792D01*
X523994Y255810D01*
X524045Y255818D01*
X524109Y255852D01*
X524176Y255877D01*
X524217Y255909D01*
X524263Y255934D01*
X524312Y255985D01*
X524368Y256030D01*
X524396Y256074D01*
X524432Y256112D01*
X524462Y256177D01*
X524501Y256237D01*
X524514Y256288D01*
X524536Y256335D01*
X524544Y256406D01*
X524561Y256476D01*
X524557Y256528D01*
X524563Y256579D01*
X524548Y256650D01*
X524542Y256721D01*
X524522Y256769D01*
X524511Y256820D01*
X524474Y256881D01*
X524446Y256947D01*
X524401Y257003D01*
X524384Y257031D01*
X524376Y257038D01*
X524375Y257040D01*
X524363Y257050D01*
X524341Y257078D01*
X523785Y257634D01*
X522628Y260426D01*
X522628Y263449D01*
X523785Y266241D01*
X524667Y267123D01*
X524720Y267197D01*
X524780Y267267D01*
X524792Y267297D01*
X524811Y267323D01*
X524838Y267410D01*
X524872Y267495D01*
X524876Y267536D01*
X524883Y267558D01*
X524882Y267590D01*
X524890Y267661D01*
X524890Y289986D01*
X525702Y291947D01*
X554830Y321074D01*
X554883Y321148D01*
X554942Y321218D01*
X554955Y321248D01*
X554973Y321274D01*
X555000Y321361D01*
X555034Y321446D01*
X555039Y321487D01*
X555046Y321509D01*
X555045Y321541D01*
X555053Y321613D01*
X555053Y341962D01*
X555038Y342053D01*
X555031Y342143D01*
X555018Y342173D01*
X555013Y342205D01*
X554970Y342286D01*
X554935Y342370D01*
X554909Y342402D01*
X554898Y342423D01*
X554875Y342445D01*
X554830Y342501D01*
X509442Y387888D01*
X509368Y387941D01*
X509299Y388001D01*
X509269Y388013D01*
X509243Y388032D01*
X509156Y388059D01*
X509071Y388093D01*
X509030Y388097D01*
X509007Y388104D01*
X508975Y388103D01*
X508904Y388111D01*
X488950Y388111D01*
X488879Y388100D01*
X488808Y388098D01*
X488759Y388080D01*
X488707Y388072D01*
X488644Y388038D01*
X488577Y388013D01*
X488536Y387981D01*
X488490Y387956D01*
X488441Y387905D01*
X488385Y387860D01*
X488356Y387816D01*
X488321Y387778D01*
X488290Y387713D01*
X488252Y387653D01*
X488239Y387602D01*
X488217Y387555D01*
X488209Y387484D01*
X488191Y387414D01*
X488196Y387362D01*
X488190Y387311D01*
X488205Y387240D01*
X488211Y387169D01*
X488231Y387121D01*
X488242Y387070D01*
X488279Y387009D01*
X488307Y386943D01*
X488352Y386887D01*
X488368Y386859D01*
X488386Y386844D01*
X488412Y386812D01*
X516987Y358237D01*
X517061Y358184D01*
X517130Y358124D01*
X517160Y358112D01*
X517186Y358093D01*
X517273Y358066D01*
X517358Y358032D01*
X517399Y358028D01*
X517422Y358021D01*
X517454Y358022D01*
X517525Y358014D01*
X520385Y358014D01*
X526289Y352110D01*
X526289Y344803D01*
X521972Y340486D01*
X514665Y340486D01*
X508761Y346390D01*
X508761Y349250D01*
X508747Y349340D01*
X508739Y349431D01*
X508727Y349461D01*
X508722Y349493D01*
X508679Y349573D01*
X508643Y349657D01*
X508617Y349689D01*
X508606Y349710D01*
X508583Y349732D01*
X508538Y349788D01*
X478376Y379951D01*
X478302Y380004D01*
X478232Y380063D01*
X478202Y380076D01*
X478176Y380094D01*
X478089Y380121D01*
X478004Y380155D01*
X477963Y380160D01*
X477941Y380167D01*
X477909Y380166D01*
X477838Y380174D01*
X438465Y380174D01*
X430751Y387888D01*
X430677Y387941D01*
X430607Y388001D01*
X430577Y388013D01*
X430551Y388032D01*
X430464Y388059D01*
X430379Y388093D01*
X430338Y388097D01*
X430316Y388104D01*
X430284Y388103D01*
X430213Y388111D01*
X418196Y388111D01*
X418125Y388100D01*
X418054Y388098D01*
X418005Y388080D01*
X417953Y388072D01*
X417890Y388038D01*
X417823Y388013D01*
X417782Y387981D01*
X417736Y387956D01*
X417687Y387905D01*
X417631Y387860D01*
X417602Y387816D01*
X417567Y387778D01*
X417536Y387713D01*
X417498Y387653D01*
X417485Y387602D01*
X417463Y387555D01*
X417455Y387484D01*
X417437Y387414D01*
X417442Y387362D01*
X417436Y387311D01*
X417451Y387240D01*
X417457Y387169D01*
X417477Y387121D01*
X417488Y387070D01*
X417525Y387009D01*
X417553Y386943D01*
X417598Y386887D01*
X417614Y386859D01*
X417632Y386844D01*
X417658Y386812D01*
X447400Y357070D01*
X447474Y357017D01*
X447543Y356957D01*
X447573Y356945D01*
X447600Y356926D01*
X447686Y356899D01*
X447771Y356865D01*
X447812Y356861D01*
X447835Y356854D01*
X447867Y356855D01*
X447938Y356847D01*
X449186Y356847D01*
X451978Y355690D01*
X454115Y353553D01*
X455272Y350761D01*
X455272Y347739D01*
X454115Y344947D01*
X451978Y342810D01*
X449186Y341653D01*
X446164Y341653D01*
X443372Y342810D01*
X441235Y344947D01*
X440078Y347739D01*
X440078Y348987D01*
X440064Y349077D01*
X440056Y349168D01*
X440044Y349198D01*
X440039Y349230D01*
X439996Y349310D01*
X439960Y349394D01*
X439934Y349426D01*
X439923Y349447D01*
X439900Y349469D01*
X439855Y349525D01*
X401492Y387888D01*
X401418Y387941D01*
X401349Y388001D01*
X401319Y388013D01*
X401293Y388032D01*
X401206Y388059D01*
X401121Y388093D01*
X401080Y388097D01*
X401057Y388104D01*
X401025Y388103D01*
X400954Y388111D01*
X331851Y388111D01*
X331831Y388108D01*
X331812Y388110D01*
X331710Y388088D01*
X331608Y388072D01*
X331591Y388062D01*
X331571Y388058D01*
X331482Y388005D01*
X331391Y387956D01*
X331377Y387942D01*
X331360Y387932D01*
X331293Y387853D01*
X331221Y387778D01*
X331213Y387760D01*
X331200Y387745D01*
X331161Y387649D01*
X331118Y387555D01*
X331116Y387535D01*
X331108Y387517D01*
X331090Y387350D01*
X331090Y363404D01*
X331104Y363314D01*
X331112Y363223D01*
X331124Y363193D01*
X331129Y363162D01*
X331172Y363081D01*
X331208Y362997D01*
X331234Y362965D01*
X331245Y362944D01*
X331268Y362922D01*
X331313Y362866D01*
X347105Y347074D01*
X350142Y344037D01*
X351727Y340209D01*
X351727Y180842D01*
X351742Y180752D01*
X351749Y180661D01*
X351762Y180631D01*
X351767Y180599D01*
X351810Y180518D01*
X351845Y180434D01*
X351871Y180402D01*
X351882Y180382D01*
X351905Y180359D01*
X351950Y180303D01*
X375566Y156688D01*
X375640Y156635D01*
X375709Y156575D01*
X375740Y156563D01*
X375766Y156544D01*
X375853Y156517D01*
X375938Y156483D01*
X375978Y156479D01*
X376001Y156472D01*
X376033Y156473D01*
X376104Y156465D01*
X467209Y156465D01*
X471037Y154879D01*
X475578Y150338D01*
X475652Y150285D01*
X475722Y150225D01*
X475752Y150213D01*
X475778Y150194D01*
X475865Y150167D01*
X475950Y150133D01*
X475991Y150129D01*
X476013Y150122D01*
X476045Y150123D01*
X476117Y150115D01*
X551347Y150115D01*
X555175Y148529D01*
X597816Y105888D01*
X597890Y105835D01*
X597959Y105775D01*
X597990Y105763D01*
X598016Y105744D01*
X598103Y105717D01*
X598188Y105683D01*
X598228Y105679D01*
X598251Y105672D01*
X598283Y105673D01*
X598354Y105665D01*
X667234Y105665D01*
X671062Y104079D01*
X674099Y101043D01*
X674099Y101042D01*
X732753Y42388D01*
X732827Y42335D01*
X732897Y42275D01*
X732927Y42263D01*
X732953Y42244D01*
X733040Y42217D01*
X733125Y42183D01*
X733166Y42179D01*
X733188Y42172D01*
X733220Y42173D01*
X733292Y42165D01*
X740259Y42165D01*
X744087Y40579D01*
X747017Y37650D01*
X748602Y33822D01*
X748602Y29678D01*
X747017Y25850D01*
X744087Y22921D01*
X740259Y21335D01*
X726591Y21335D01*
X722763Y22921D01*
X719726Y25957D01*
X719726Y25958D01*
X661072Y84612D01*
X660998Y84665D01*
X660928Y84725D01*
X660898Y84737D01*
X660872Y84756D01*
X660785Y84783D01*
X660700Y84817D01*
X660659Y84821D01*
X660637Y84828D01*
X660605Y84827D01*
X660533Y84835D01*
X591653Y84835D01*
X587825Y86421D01*
X545184Y129062D01*
X545110Y129115D01*
X545041Y129175D01*
X545010Y129187D01*
X544984Y129206D01*
X544897Y129233D01*
X544812Y129267D01*
X544772Y129271D01*
X544749Y129278D01*
X544717Y129277D01*
X544646Y129285D01*
X469416Y129285D01*
X465588Y130871D01*
X461047Y135412D01*
X460973Y135465D01*
X460903Y135525D01*
X460873Y135537D01*
X460847Y135556D01*
X460760Y135583D01*
X460675Y135617D01*
X460634Y135621D01*
X460612Y135628D01*
X460580Y135627D01*
X460508Y135635D01*
X369403Y135635D01*
X365575Y137221D01*
X332483Y170313D01*
X330898Y174141D01*
X330898Y333508D01*
X330883Y333598D01*
X330876Y333689D01*
X330863Y333719D01*
X330858Y333751D01*
X330815Y333832D01*
X330780Y333916D01*
X330754Y333948D01*
X330743Y333968D01*
X330720Y333991D01*
X330675Y334047D01*
X311846Y352875D01*
X310260Y356703D01*
X310260Y387350D01*
X310257Y387370D01*
X310259Y387389D01*
X310237Y387491D01*
X310221Y387593D01*
X310211Y387610D01*
X310207Y387630D01*
X310154Y387719D01*
X310105Y387810D01*
X310091Y387824D01*
X310081Y387841D01*
X310002Y387908D01*
X309927Y387980D01*
X309909Y387988D01*
X309894Y388001D01*
X309798Y388040D01*
X309704Y388083D01*
X309684Y388085D01*
X309666Y388093D01*
X309499Y388111D01*
X269875Y388111D01*
X269855Y388108D01*
X269836Y388110D01*
X269734Y388088D01*
X269632Y388072D01*
X269615Y388062D01*
X269595Y388058D01*
X269506Y388005D01*
X269415Y387956D01*
X269401Y387942D01*
X269384Y387932D01*
X269317Y387853D01*
X269246Y387778D01*
X269237Y387760D01*
X269224Y387745D01*
X269185Y387649D01*
X269142Y387555D01*
X269140Y387535D01*
X269132Y387517D01*
X269114Y387350D01*
X269114Y8382D01*
X269117Y8362D01*
X269115Y8343D01*
X269137Y8241D01*
X269154Y8139D01*
X269163Y8122D01*
X269167Y8102D01*
X269220Y8013D01*
X269269Y7922D01*
X269283Y7908D01*
X269293Y7891D01*
X269372Y7824D01*
X269447Y7752D01*
X269465Y7744D01*
X269480Y7731D01*
X269576Y7692D01*
X269670Y7649D01*
X269690Y7647D01*
X269708Y7639D01*
X269875Y7621D01*
X939453Y7621D01*
X939523Y7632D01*
G37*
G36*
X423933Y392950D02*
X423933Y392950D01*
X424005Y392952D01*
X424054Y392970D01*
X424105Y392979D01*
X424168Y393012D01*
X424236Y393037D01*
X424277Y393069D01*
X424323Y393094D01*
X424372Y393145D01*
X424428Y393190D01*
X424456Y393234D01*
X424492Y393272D01*
X424522Y393337D01*
X424561Y393397D01*
X424574Y393448D01*
X424596Y393495D01*
X424604Y393566D01*
X424621Y393636D01*
X424617Y393688D01*
X424623Y393739D01*
X424607Y393810D01*
X424602Y393881D01*
X424582Y393929D01*
X424570Y393980D01*
X424534Y394041D01*
X424506Y394107D01*
X424461Y394163D01*
X424444Y394191D01*
X424427Y394206D01*
X424401Y394238D01*
X319849Y498790D01*
X319849Y515938D01*
X319834Y516028D01*
X319827Y516119D01*
X319814Y516148D01*
X319809Y516180D01*
X319766Y516261D01*
X319731Y516345D01*
X319705Y516377D01*
X319694Y516398D01*
X319671Y516420D01*
X319626Y516476D01*
X318261Y517840D01*
X318261Y523560D01*
X322578Y527876D01*
X328297Y527876D01*
X332614Y523560D01*
X332614Y516253D01*
X331249Y514888D01*
X331196Y514814D01*
X331137Y514745D01*
X331125Y514715D01*
X331106Y514689D01*
X331079Y514602D01*
X331045Y514517D01*
X331040Y514476D01*
X331033Y514453D01*
X331034Y514421D01*
X331026Y514350D01*
X331026Y504825D01*
X331041Y504735D01*
X331048Y504644D01*
X331061Y504614D01*
X331066Y504582D01*
X331109Y504502D01*
X331144Y504418D01*
X331170Y504386D01*
X331181Y504365D01*
X331204Y504343D01*
X331249Y504287D01*
X442374Y393162D01*
X442448Y393109D01*
X442518Y393049D01*
X442548Y393037D01*
X442574Y393018D01*
X442661Y392991D01*
X442746Y392957D01*
X442787Y392953D01*
X442809Y392946D01*
X442841Y392947D01*
X442913Y392939D01*
X501836Y392939D01*
X501906Y392950D01*
X501978Y392952D01*
X502027Y392970D01*
X502078Y392979D01*
X502142Y393012D01*
X502209Y393037D01*
X502250Y393069D01*
X502296Y393094D01*
X502345Y393146D01*
X502401Y393190D01*
X502429Y393234D01*
X502465Y393272D01*
X502495Y393337D01*
X502534Y393397D01*
X502547Y393448D01*
X502569Y393495D01*
X502577Y393566D01*
X502594Y393636D01*
X502590Y393688D01*
X502596Y393739D01*
X502581Y393810D01*
X502575Y393881D01*
X502555Y393929D01*
X502544Y393980D01*
X502507Y394041D01*
X502479Y394107D01*
X502434Y394163D01*
X502417Y394191D01*
X502400Y394206D01*
X502374Y394238D01*
X442303Y454309D01*
X442229Y454362D01*
X442159Y454422D01*
X442129Y454434D01*
X442103Y454453D01*
X442016Y454480D01*
X441931Y454514D01*
X441890Y454518D01*
X441868Y454525D01*
X441836Y454524D01*
X441765Y454532D01*
X392538Y454532D01*
X390390Y455422D01*
X373035Y472777D01*
X371795Y474018D01*
X371741Y474056D01*
X371694Y474102D01*
X371676Y474112D01*
X369367Y476422D01*
X368133Y479400D01*
X368133Y482625D01*
X369367Y485603D01*
X371647Y487883D01*
X374625Y489117D01*
X377850Y489117D01*
X380828Y487883D01*
X382049Y486663D01*
X382065Y486651D01*
X382078Y486635D01*
X382143Y486593D01*
X382185Y486557D01*
X382209Y486548D01*
X382249Y486519D01*
X382268Y486513D01*
X382285Y486502D01*
X382383Y486478D01*
X382413Y486465D01*
X382429Y486464D01*
X382484Y486447D01*
X382504Y486447D01*
X382523Y486442D01*
X382583Y486447D01*
X382595Y486447D01*
X382606Y486449D01*
X382626Y486450D01*
X382730Y486453D01*
X382749Y486460D01*
X382769Y486461D01*
X382822Y486484D01*
X382838Y486487D01*
X382872Y486505D01*
X382961Y486538D01*
X382977Y486550D01*
X382995Y486558D01*
X383040Y486594D01*
X383055Y486602D01*
X383071Y486619D01*
X383126Y486663D01*
X384347Y487883D01*
X387325Y489117D01*
X390550Y489117D01*
X393528Y487883D01*
X395808Y485603D01*
X397042Y482625D01*
X397042Y481486D01*
X397057Y481396D01*
X397064Y481305D01*
X397077Y481275D01*
X397082Y481243D01*
X397125Y481163D01*
X397160Y481079D01*
X397186Y481047D01*
X397197Y481026D01*
X397220Y481004D01*
X397265Y480948D01*
X403835Y474378D01*
X403909Y474325D01*
X403978Y474266D01*
X404008Y474253D01*
X404034Y474235D01*
X404121Y474208D01*
X404206Y474174D01*
X404247Y474169D01*
X404269Y474162D01*
X404302Y474163D01*
X404373Y474155D01*
X436494Y474155D01*
X436565Y474167D01*
X436637Y474169D01*
X436686Y474187D01*
X436737Y474195D01*
X436800Y474229D01*
X436868Y474253D01*
X436908Y474286D01*
X436954Y474310D01*
X437004Y474362D01*
X437060Y474407D01*
X437088Y474451D01*
X437124Y474488D01*
X437154Y474553D01*
X437193Y474614D01*
X437205Y474664D01*
X437227Y474711D01*
X437235Y474783D01*
X437253Y474852D01*
X437249Y474904D01*
X437254Y474956D01*
X437239Y475026D01*
X437234Y475097D01*
X437213Y475145D01*
X437202Y475196D01*
X437165Y475258D01*
X437137Y475324D01*
X437092Y475380D01*
X437076Y475407D01*
X437058Y475423D01*
X437032Y475455D01*
X423672Y488815D01*
X422782Y490963D01*
X422782Y608452D01*
X422768Y608542D01*
X422760Y608633D01*
X422748Y608663D01*
X422743Y608695D01*
X422700Y608775D01*
X422664Y608859D01*
X422638Y608891D01*
X422627Y608912D01*
X422604Y608934D01*
X422559Y608990D01*
X393765Y637785D01*
X393691Y637838D01*
X393621Y637897D01*
X393591Y637910D01*
X393565Y637928D01*
X393478Y637955D01*
X393393Y637989D01*
X393352Y637994D01*
X393330Y638001D01*
X393298Y638000D01*
X393227Y638008D01*
X392088Y638008D01*
X389109Y639242D01*
X386829Y641522D01*
X385595Y644500D01*
X385595Y647725D01*
X386829Y650703D01*
X389109Y652983D01*
X392088Y654217D01*
X395312Y654217D01*
X398291Y652983D01*
X400571Y650703D01*
X401805Y647725D01*
X401805Y646586D01*
X401819Y646496D01*
X401827Y646405D01*
X401839Y646375D01*
X401844Y646343D01*
X401887Y646263D01*
X401923Y646179D01*
X401949Y646147D01*
X401960Y646126D01*
X401983Y646104D01*
X402028Y646048D01*
X433578Y614497D01*
X434468Y612350D01*
X434468Y494860D01*
X434482Y494770D01*
X434490Y494679D01*
X434502Y494650D01*
X434507Y494618D01*
X434550Y494537D01*
X434586Y494453D01*
X434612Y494421D01*
X434623Y494400D01*
X434646Y494378D01*
X434691Y494322D01*
X445295Y483718D01*
X445353Y483676D01*
X445405Y483626D01*
X445453Y483604D01*
X445495Y483574D01*
X445563Y483553D01*
X445629Y483523D01*
X445680Y483517D01*
X445730Y483502D01*
X445802Y483504D01*
X445873Y483496D01*
X445924Y483507D01*
X445976Y483508D01*
X446043Y483533D01*
X446113Y483548D01*
X446158Y483575D01*
X446207Y483593D01*
X446263Y483637D01*
X446324Y483674D01*
X446358Y483714D01*
X446399Y483746D01*
X446438Y483807D01*
X446484Y483861D01*
X446504Y483909D01*
X446532Y483953D01*
X446549Y484023D01*
X446576Y484089D01*
X446584Y484161D01*
X446592Y484192D01*
X446590Y484215D01*
X446595Y484256D01*
X446595Y587791D01*
X446580Y587881D01*
X446573Y587972D01*
X446560Y588001D01*
X446555Y588033D01*
X446512Y588114D01*
X446477Y588198D01*
X446451Y588230D01*
X446440Y588251D01*
X446417Y588273D01*
X446372Y588329D01*
X445567Y589134D01*
X444333Y592113D01*
X444333Y595337D01*
X445567Y598316D01*
X447847Y600596D01*
X450825Y601830D01*
X453282Y601830D01*
X453353Y601841D01*
X453425Y601843D01*
X453474Y601861D01*
X453525Y601869D01*
X453588Y601903D01*
X453656Y601928D01*
X453696Y601960D01*
X453742Y601985D01*
X453792Y602037D01*
X453848Y602081D01*
X453876Y602125D01*
X453912Y602163D01*
X453942Y602228D01*
X453981Y602288D01*
X453993Y602339D01*
X454015Y602386D01*
X454023Y602457D01*
X454041Y602527D01*
X454037Y602579D01*
X454042Y602630D01*
X454027Y602701D01*
X454022Y602772D01*
X454001Y602820D01*
X453990Y602871D01*
X453953Y602932D01*
X453925Y602998D01*
X453880Y603054D01*
X453864Y603082D01*
X453846Y603097D01*
X453820Y603129D01*
X427102Y629847D01*
X427028Y629900D01*
X426959Y629960D01*
X426929Y629972D01*
X426903Y629991D01*
X426816Y630018D01*
X426731Y630052D01*
X426690Y630056D01*
X426668Y630063D01*
X426635Y630062D01*
X426564Y630070D01*
X425425Y630070D01*
X422447Y631304D01*
X420167Y633584D01*
X418933Y636563D01*
X418933Y639787D01*
X420167Y642766D01*
X422447Y645046D01*
X424042Y645707D01*
X424081Y645731D01*
X424124Y645747D01*
X424185Y645795D01*
X424251Y645836D01*
X424280Y645872D01*
X424316Y645900D01*
X424358Y645966D01*
X424408Y646026D01*
X424424Y646069D01*
X424449Y646107D01*
X424468Y646183D01*
X424496Y646255D01*
X424498Y646301D01*
X424509Y646346D01*
X424503Y646423D01*
X424506Y646501D01*
X424494Y646545D01*
X424490Y646591D01*
X424460Y646663D01*
X424438Y646737D01*
X424412Y646775D01*
X424394Y646817D01*
X424308Y646924D01*
X424298Y646939D01*
X424294Y646942D01*
X424289Y646948D01*
X423927Y647310D01*
X423853Y647363D01*
X423784Y647422D01*
X423754Y647434D01*
X423728Y647453D01*
X423640Y647480D01*
X423556Y647514D01*
X423515Y647519D01*
X423492Y647526D01*
X423460Y647525D01*
X423389Y647533D01*
X422250Y647533D01*
X419272Y648767D01*
X416992Y651047D01*
X415758Y654025D01*
X415758Y657250D01*
X416179Y658267D01*
X416190Y658312D01*
X416209Y658354D01*
X416218Y658431D01*
X416235Y658507D01*
X416231Y658552D01*
X416236Y658598D01*
X416220Y658674D01*
X416212Y658752D01*
X416194Y658793D01*
X416184Y658838D01*
X416144Y658905D01*
X416112Y658976D01*
X416081Y659010D01*
X416058Y659049D01*
X415999Y659100D01*
X415946Y659157D01*
X415906Y659180D01*
X415871Y659209D01*
X415799Y659238D01*
X415730Y659276D01*
X415685Y659284D01*
X415643Y659301D01*
X415507Y659316D01*
X415488Y659320D01*
X415483Y659319D01*
X415476Y659320D01*
X342460Y659320D01*
X342370Y659305D01*
X342279Y659298D01*
X342250Y659285D01*
X342218Y659280D01*
X342137Y659237D01*
X342053Y659202D01*
X342021Y659176D01*
X342000Y659165D01*
X341978Y659142D01*
X341922Y659097D01*
X302928Y620103D01*
X302875Y620029D01*
X302816Y619959D01*
X302803Y619929D01*
X302785Y619903D01*
X302758Y619816D01*
X302724Y619731D01*
X302719Y619690D01*
X302712Y619668D01*
X302713Y619636D01*
X302705Y619565D01*
X302705Y572672D01*
X302720Y572582D01*
X302727Y572491D01*
X302740Y572461D01*
X302745Y572429D01*
X302788Y572348D01*
X302823Y572265D01*
X302849Y572232D01*
X302860Y572212D01*
X302883Y572190D01*
X302928Y572134D01*
X303733Y571328D01*
X304967Y568350D01*
X304967Y565125D01*
X303733Y562147D01*
X301453Y559867D01*
X298475Y558633D01*
X297336Y558633D01*
X297246Y558618D01*
X297155Y558611D01*
X297125Y558598D01*
X297093Y558593D01*
X297013Y558550D01*
X296929Y558515D01*
X296897Y558489D01*
X296876Y558478D01*
X296854Y558455D01*
X296798Y558410D01*
X291816Y553428D01*
X291763Y553354D01*
X291703Y553284D01*
X291691Y553254D01*
X291672Y553228D01*
X291645Y553141D01*
X291611Y553056D01*
X291607Y553015D01*
X291600Y552993D01*
X291601Y552961D01*
X291593Y552890D01*
X291593Y541193D01*
X291608Y541097D01*
X291618Y541000D01*
X291628Y540976D01*
X291632Y540951D01*
X291678Y540865D01*
X291718Y540775D01*
X291735Y540756D01*
X291748Y540733D01*
X291818Y540666D01*
X291884Y540594D01*
X291907Y540582D01*
X291926Y540564D01*
X292014Y540523D01*
X292100Y540476D01*
X292125Y540471D01*
X292149Y540460D01*
X292246Y540449D01*
X292342Y540432D01*
X292368Y540436D01*
X292393Y540433D01*
X292488Y540454D01*
X292585Y540468D01*
X292608Y540480D01*
X292634Y540485D01*
X292717Y540535D01*
X292804Y540579D01*
X292823Y540598D01*
X292845Y540611D01*
X292908Y540686D01*
X292976Y540755D01*
X292992Y540784D01*
X293005Y540798D01*
X293017Y540829D01*
X293057Y540902D01*
X293167Y541166D01*
X295447Y543446D01*
X298425Y544680D01*
X301650Y544680D01*
X304628Y543446D01*
X306908Y541166D01*
X308142Y538187D01*
X308142Y534963D01*
X306908Y531984D01*
X306103Y531179D01*
X306050Y531105D01*
X305991Y531035D01*
X305978Y531005D01*
X305960Y530979D01*
X305933Y530892D01*
X305899Y530807D01*
X305894Y530766D01*
X305887Y530744D01*
X305888Y530712D01*
X305880Y530641D01*
X305880Y499623D01*
X305895Y499533D01*
X305902Y499442D01*
X305915Y499412D01*
X305920Y499380D01*
X305963Y499300D01*
X305998Y499216D01*
X306024Y499184D01*
X306035Y499163D01*
X306058Y499141D01*
X306103Y499085D01*
X412026Y393162D01*
X412100Y393109D01*
X412170Y393049D01*
X412200Y393037D01*
X412226Y393018D01*
X412313Y392991D01*
X412398Y392957D01*
X412439Y392953D01*
X412461Y392946D01*
X412493Y392947D01*
X412564Y392939D01*
X423863Y392939D01*
X423933Y392950D01*
G37*
G36*
X570003Y392954D02*
X570003Y392954D01*
X570094Y392961D01*
X570123Y392973D01*
X570155Y392979D01*
X570236Y393021D01*
X570320Y393057D01*
X570352Y393083D01*
X570373Y393094D01*
X570395Y393117D01*
X570451Y393162D01*
X573626Y396337D01*
X573679Y396411D01*
X573738Y396480D01*
X573751Y396510D01*
X573769Y396536D01*
X573796Y396623D01*
X573830Y396708D01*
X573835Y396749D01*
X573842Y396772D01*
X573841Y396804D01*
X573849Y396875D01*
X573849Y490538D01*
X573834Y490628D01*
X573827Y490719D01*
X573814Y490748D01*
X573809Y490780D01*
X573766Y490861D01*
X573731Y490945D01*
X573705Y490977D01*
X573694Y490998D01*
X573671Y491020D01*
X573626Y491076D01*
X540288Y524413D01*
X540214Y524466D01*
X540145Y524526D01*
X540115Y524538D01*
X540089Y524557D01*
X540002Y524584D01*
X539917Y524618D01*
X539876Y524622D01*
X539853Y524629D01*
X539821Y524628D01*
X539750Y524636D01*
X533400Y524636D01*
X533310Y524622D01*
X533219Y524614D01*
X533189Y524602D01*
X533157Y524597D01*
X533077Y524554D01*
X532993Y524518D01*
X532961Y524492D01*
X532940Y524481D01*
X532918Y524458D01*
X532862Y524413D01*
X526735Y518286D01*
X525881Y518286D01*
X525785Y518271D01*
X525688Y518261D01*
X525664Y518251D01*
X525638Y518247D01*
X525552Y518201D01*
X525463Y518161D01*
X525444Y518144D01*
X525421Y518131D01*
X525354Y518061D01*
X525282Y517995D01*
X525270Y517972D01*
X525252Y517953D01*
X525211Y517865D01*
X525164Y517779D01*
X525159Y517754D01*
X525148Y517730D01*
X525137Y517633D01*
X525120Y517537D01*
X525124Y517511D01*
X525121Y517486D01*
X525142Y517390D01*
X525156Y517294D01*
X525168Y517271D01*
X525173Y517245D01*
X525223Y517162D01*
X525267Y517075D01*
X525286Y517056D01*
X525299Y517034D01*
X525373Y516971D01*
X525443Y516903D01*
X525471Y516887D01*
X525486Y516874D01*
X525517Y516862D01*
X525590Y516822D01*
X528038Y515807D01*
X531682Y512163D01*
X533655Y507402D01*
X533655Y502248D01*
X531682Y497487D01*
X528038Y493843D01*
X523277Y491870D01*
X518123Y491870D01*
X513362Y493843D01*
X509718Y497487D01*
X507745Y502248D01*
X507745Y507402D01*
X509718Y512163D01*
X513362Y515807D01*
X515810Y516822D01*
X515893Y516873D01*
X515979Y516919D01*
X515997Y516938D01*
X516019Y516951D01*
X516081Y517026D01*
X516148Y517097D01*
X516159Y517121D01*
X516176Y517141D01*
X516211Y517232D01*
X516252Y517320D01*
X516255Y517346D01*
X516264Y517370D01*
X516268Y517468D01*
X516279Y517564D01*
X516274Y517590D01*
X516275Y517616D01*
X516248Y517710D01*
X516227Y517805D01*
X516213Y517827D01*
X516206Y517852D01*
X516151Y517932D01*
X516101Y518016D01*
X516081Y518033D01*
X516066Y518054D01*
X515988Y518113D01*
X515914Y518176D01*
X515890Y518186D01*
X515869Y518201D01*
X515776Y518231D01*
X515686Y518268D01*
X515653Y518271D01*
X515635Y518277D01*
X515602Y518277D01*
X515519Y518286D01*
X514665Y518286D01*
X508761Y524190D01*
X508761Y536260D01*
X514665Y542164D01*
X515519Y542164D01*
X515615Y542179D01*
X515712Y542189D01*
X515736Y542199D01*
X515762Y542204D01*
X515848Y542249D01*
X515937Y542289D01*
X515956Y542306D01*
X515979Y542319D01*
X516046Y542389D01*
X516118Y542455D01*
X516130Y542478D01*
X516148Y542497D01*
X516189Y542585D01*
X516236Y542671D01*
X516241Y542696D01*
X516252Y542720D01*
X516263Y542817D01*
X516280Y542913D01*
X516276Y542939D01*
X516279Y542964D01*
X516259Y543059D01*
X516244Y543156D01*
X516232Y543179D01*
X516227Y543205D01*
X516177Y543288D01*
X516133Y543375D01*
X516114Y543394D01*
X516101Y543416D01*
X516027Y543479D01*
X515957Y543547D01*
X515929Y543563D01*
X515914Y543576D01*
X515883Y543588D01*
X515810Y543628D01*
X513362Y544643D01*
X509718Y548287D01*
X509293Y549312D01*
X509231Y549412D01*
X509171Y549512D01*
X509166Y549516D01*
X509163Y549521D01*
X509073Y549596D01*
X508984Y549672D01*
X508978Y549674D01*
X508974Y549678D01*
X508865Y549720D01*
X508756Y549764D01*
X508749Y549765D01*
X508744Y549766D01*
X508726Y549767D01*
X508589Y549782D01*
X508425Y549782D01*
X506278Y550672D01*
X461842Y595108D01*
X461784Y595150D01*
X461732Y595199D01*
X461684Y595221D01*
X461642Y595251D01*
X461574Y595272D01*
X461508Y595303D01*
X461457Y595308D01*
X461407Y595324D01*
X461335Y595322D01*
X461264Y595330D01*
X461213Y595319D01*
X461161Y595317D01*
X461094Y595293D01*
X461024Y595278D01*
X460979Y595251D01*
X460930Y595233D01*
X460874Y595188D01*
X460813Y595151D01*
X460779Y595112D01*
X460738Y595079D01*
X460699Y595019D01*
X460653Y594964D01*
X460633Y594916D01*
X460605Y594872D01*
X460588Y594803D01*
X460561Y594736D01*
X460553Y594665D01*
X460545Y594634D01*
X460547Y594611D01*
X460542Y594570D01*
X460542Y592113D01*
X459308Y589134D01*
X458503Y588329D01*
X458450Y588255D01*
X458391Y588185D01*
X458378Y588155D01*
X458360Y588129D01*
X458333Y588042D01*
X458299Y587957D01*
X458294Y587916D01*
X458287Y587894D01*
X458288Y587862D01*
X458280Y587791D01*
X458280Y478985D01*
X458295Y478895D01*
X458302Y478804D01*
X458315Y478775D01*
X458320Y478743D01*
X458363Y478662D01*
X458398Y478578D01*
X458424Y478546D01*
X458435Y478525D01*
X458458Y478503D01*
X458503Y478447D01*
X485404Y451546D01*
X485441Y451519D01*
X485473Y451486D01*
X485541Y451448D01*
X485604Y451403D01*
X485648Y451389D01*
X485688Y451367D01*
X485765Y451353D01*
X485839Y451330D01*
X485885Y451331D01*
X485930Y451323D01*
X486007Y451335D01*
X486085Y451337D01*
X486128Y451352D01*
X486173Y451359D01*
X486243Y451394D01*
X486316Y451421D01*
X486352Y451450D01*
X486393Y451471D01*
X486447Y451526D01*
X486508Y451575D01*
X486533Y451613D01*
X486565Y451646D01*
X486631Y451766D01*
X486641Y451782D01*
X486642Y451787D01*
X486646Y451793D01*
X486842Y452266D01*
X489122Y454546D01*
X492100Y455780D01*
X495325Y455780D01*
X498303Y454546D01*
X500583Y452266D01*
X501817Y449287D01*
X501817Y448148D01*
X501832Y448058D01*
X501839Y447967D01*
X501852Y447938D01*
X501857Y447906D01*
X501900Y447825D01*
X501935Y447741D01*
X501961Y447709D01*
X501972Y447688D01*
X501995Y447666D01*
X502040Y447610D01*
X556489Y393162D01*
X556563Y393109D01*
X556632Y393049D01*
X556662Y393037D01*
X556688Y393018D01*
X556775Y392991D01*
X556860Y392957D01*
X556901Y392953D01*
X556923Y392946D01*
X556956Y392947D01*
X557027Y392939D01*
X569913Y392939D01*
X570003Y392954D01*
G37*
%LPC*%
G36*
X165551Y173003D02*
X165551Y173003D01*
X161256Y174782D01*
X157969Y178069D01*
X156190Y182363D01*
X156190Y187012D01*
X157969Y191306D01*
X161256Y194593D01*
X163550Y195543D01*
X163649Y195605D01*
X163749Y195665D01*
X163754Y195670D01*
X163759Y195673D01*
X163833Y195763D01*
X163909Y195852D01*
X163912Y195858D01*
X163916Y195863D01*
X163957Y195971D01*
X164001Y196080D01*
X164002Y196088D01*
X164004Y196092D01*
X164005Y196110D01*
X164020Y196247D01*
X164020Y266608D01*
X164008Y266678D01*
X164006Y266750D01*
X163988Y266799D01*
X163980Y266850D01*
X163946Y266914D01*
X163922Y266981D01*
X163889Y267022D01*
X163865Y267068D01*
X163813Y267117D01*
X163768Y267173D01*
X163724Y267201D01*
X163687Y267237D01*
X163622Y267267D01*
X163561Y267306D01*
X163511Y267319D01*
X163464Y267341D01*
X163392Y267349D01*
X163323Y267366D01*
X163271Y267362D01*
X163219Y267368D01*
X163149Y267353D01*
X163078Y267347D01*
X163030Y267327D01*
X162979Y267316D01*
X162917Y267279D01*
X162851Y267251D01*
X162795Y267206D01*
X162768Y267189D01*
X162752Y267172D01*
X162720Y267146D01*
X161753Y266179D01*
X158775Y264945D01*
X155550Y264945D01*
X152572Y266179D01*
X151605Y267146D01*
X151547Y267188D01*
X151495Y267237D01*
X151447Y267259D01*
X151405Y267289D01*
X151337Y267311D01*
X151271Y267341D01*
X151220Y267346D01*
X151170Y267362D01*
X151098Y267360D01*
X151027Y267368D01*
X150976Y267357D01*
X150924Y267355D01*
X150857Y267331D01*
X150787Y267316D01*
X150742Y267289D01*
X150693Y267271D01*
X150637Y267226D01*
X150576Y267189D01*
X150542Y267150D01*
X150501Y267117D01*
X150462Y267057D01*
X150416Y267003D01*
X150396Y266954D01*
X150368Y266910D01*
X150351Y266841D01*
X150324Y266774D01*
X150316Y266703D01*
X150308Y266672D01*
X150310Y266649D01*
X150305Y266608D01*
X150305Y200242D01*
X150316Y200177D01*
X150316Y200112D01*
X150340Y200032D01*
X150345Y199999D01*
X150354Y199982D01*
X150363Y199951D01*
X150980Y198462D01*
X150980Y195238D01*
X149746Y192259D01*
X147466Y189979D01*
X144487Y188745D01*
X141263Y188745D01*
X138284Y189979D01*
X136004Y192259D01*
X134770Y195238D01*
X134770Y198462D01*
X136004Y201441D01*
X138356Y203793D01*
X138358Y203794D01*
X138361Y203798D01*
X138391Y203828D01*
X138423Y203873D01*
X138433Y203884D01*
X138509Y203974D01*
X138511Y203979D01*
X138515Y203983D01*
X138529Y204020D01*
X138535Y204028D01*
X138544Y204059D01*
X138557Y204092D01*
X138601Y204202D01*
X138602Y204209D01*
X138604Y204213D01*
X138604Y204229D01*
X138620Y204369D01*
X138620Y267116D01*
X138605Y267206D01*
X138598Y267297D01*
X138585Y267326D01*
X138580Y267358D01*
X138537Y267439D01*
X138502Y267523D01*
X138476Y267555D01*
X138465Y267576D01*
X138442Y267598D01*
X138397Y267654D01*
X137592Y268459D01*
X136931Y270054D01*
X136907Y270093D01*
X136891Y270137D01*
X136842Y270197D01*
X136801Y270263D01*
X136766Y270293D01*
X136737Y270329D01*
X136672Y270371D01*
X136612Y270420D01*
X136569Y270437D01*
X136530Y270462D01*
X136455Y270481D01*
X136382Y270508D01*
X136336Y270510D01*
X136292Y270522D01*
X136214Y270516D01*
X136136Y270519D01*
X136092Y270506D01*
X136047Y270502D01*
X135975Y270472D01*
X135900Y270450D01*
X135862Y270424D01*
X135820Y270406D01*
X135714Y270321D01*
X135698Y270310D01*
X135695Y270306D01*
X135689Y270301D01*
X120366Y254978D01*
X120313Y254904D01*
X120253Y254834D01*
X120241Y254804D01*
X120222Y254778D01*
X120195Y254691D01*
X120161Y254606D01*
X120157Y254565D01*
X120150Y254543D01*
X120151Y254511D01*
X120143Y254440D01*
X120143Y213150D01*
X119253Y211003D01*
X106753Y198502D01*
X106700Y198428D01*
X106640Y198359D01*
X106628Y198329D01*
X106609Y198303D01*
X106582Y198216D01*
X106548Y198131D01*
X106544Y198090D01*
X106537Y198068D01*
X106538Y198035D01*
X106530Y197964D01*
X106530Y196825D01*
X105296Y193847D01*
X103016Y191567D01*
X100037Y190333D01*
X96813Y190333D01*
X93834Y191567D01*
X91554Y193847D01*
X90320Y196825D01*
X90320Y200050D01*
X91554Y203028D01*
X93834Y205308D01*
X96813Y206542D01*
X97952Y206542D01*
X98042Y206557D01*
X98133Y206564D01*
X98162Y206577D01*
X98194Y206582D01*
X98275Y206625D01*
X98359Y206660D01*
X98391Y206686D01*
X98412Y206697D01*
X98434Y206720D01*
X98490Y206765D01*
X108234Y216510D01*
X108287Y216584D01*
X108347Y216653D01*
X108359Y216683D01*
X108378Y216709D01*
X108405Y216796D01*
X108439Y216881D01*
X108443Y216922D01*
X108450Y216944D01*
X108449Y216977D01*
X108457Y217048D01*
X108457Y258337D01*
X109347Y260485D01*
X134803Y285941D01*
X136950Y286830D01*
X150387Y286830D01*
X152535Y285941D01*
X157098Y281378D01*
X157172Y281325D01*
X157241Y281265D01*
X157271Y281253D01*
X157297Y281234D01*
X157384Y281207D01*
X157469Y281173D01*
X157510Y281169D01*
X157532Y281162D01*
X157565Y281163D01*
X157636Y281155D01*
X158775Y281155D01*
X161753Y279921D01*
X162974Y278700D01*
X162990Y278688D01*
X163003Y278673D01*
X163090Y278617D01*
X163174Y278557D01*
X163193Y278551D01*
X163210Y278540D01*
X163310Y278515D01*
X163409Y278484D01*
X163429Y278485D01*
X163448Y278480D01*
X163551Y278488D01*
X163655Y278491D01*
X163674Y278497D01*
X163693Y278499D01*
X163788Y278539D01*
X163886Y278575D01*
X163902Y278588D01*
X163920Y278595D01*
X164051Y278700D01*
X165272Y279921D01*
X168250Y281155D01*
X171475Y281155D01*
X174453Y279921D01*
X176733Y277641D01*
X177967Y274662D01*
X177967Y271438D01*
X176733Y268459D01*
X175928Y267654D01*
X175875Y267580D01*
X175816Y267510D01*
X175803Y267480D01*
X175785Y267454D01*
X175758Y267367D01*
X175724Y267282D01*
X175719Y267241D01*
X175712Y267219D01*
X175713Y267187D01*
X175705Y267116D01*
X175705Y193697D01*
X175720Y193607D01*
X175727Y193516D01*
X175740Y193487D01*
X175745Y193455D01*
X175788Y193374D01*
X175823Y193290D01*
X175849Y193258D01*
X175860Y193237D01*
X175883Y193215D01*
X175928Y193159D01*
X177781Y191306D01*
X179560Y187012D01*
X179560Y182363D01*
X177781Y178069D01*
X174494Y174782D01*
X170199Y173003D01*
X165551Y173003D01*
G37*
%LPD*%
%LPC*%
G36*
X165551Y28003D02*
X165551Y28003D01*
X161256Y29782D01*
X157969Y33069D01*
X156190Y37363D01*
X156190Y42012D01*
X157969Y46306D01*
X161256Y49593D01*
X165551Y51372D01*
X170199Y51372D01*
X174494Y49593D01*
X175423Y48664D01*
X175481Y48623D01*
X175533Y48573D01*
X175580Y48551D01*
X175622Y48521D01*
X175691Y48500D01*
X175756Y48470D01*
X175808Y48464D01*
X175858Y48449D01*
X175929Y48450D01*
X176000Y48443D01*
X176051Y48454D01*
X176103Y48455D01*
X176171Y48480D01*
X176241Y48495D01*
X176286Y48521D01*
X176334Y48539D01*
X176390Y48584D01*
X176452Y48621D01*
X176486Y48661D01*
X176526Y48693D01*
X176565Y48753D01*
X176612Y48808D01*
X176631Y48856D01*
X176659Y48900D01*
X176677Y48969D01*
X176704Y49036D01*
X176712Y49107D01*
X176720Y49138D01*
X176718Y49162D01*
X176722Y49203D01*
X176722Y55172D01*
X176711Y55243D01*
X176709Y55315D01*
X176691Y55364D01*
X176683Y55415D01*
X176649Y55478D01*
X176624Y55546D01*
X176592Y55586D01*
X176567Y55632D01*
X176515Y55682D01*
X176471Y55738D01*
X176427Y55766D01*
X176389Y55802D01*
X176324Y55832D01*
X176264Y55871D01*
X176213Y55883D01*
X176166Y55905D01*
X176095Y55913D01*
X176025Y55931D01*
X175973Y55927D01*
X175922Y55932D01*
X175851Y55917D01*
X175780Y55912D01*
X175732Y55891D01*
X175681Y55880D01*
X175620Y55843D01*
X175554Y55815D01*
X175498Y55771D01*
X175470Y55754D01*
X175455Y55736D01*
X175423Y55711D01*
X174494Y54782D01*
X170199Y53003D01*
X165551Y53003D01*
X161256Y54782D01*
X157969Y58069D01*
X156190Y62363D01*
X156190Y67012D01*
X157969Y71306D01*
X161256Y74593D01*
X165551Y76372D01*
X170199Y76372D01*
X174494Y74593D01*
X177781Y71306D01*
X179560Y67012D01*
X179560Y66660D01*
X179571Y66589D01*
X179573Y66518D01*
X179591Y66469D01*
X179599Y66417D01*
X179633Y66354D01*
X179658Y66287D01*
X179690Y66246D01*
X179715Y66200D01*
X179767Y66151D01*
X179811Y66095D01*
X179855Y66066D01*
X179893Y66031D01*
X179958Y66000D01*
X180018Y65962D01*
X180069Y65949D01*
X180116Y65927D01*
X180187Y65919D01*
X180257Y65902D01*
X180309Y65906D01*
X180360Y65900D01*
X180431Y65915D01*
X180502Y65921D01*
X180550Y65941D01*
X180601Y65952D01*
X180662Y65989D01*
X180728Y66017D01*
X180784Y66062D01*
X180812Y66078D01*
X180827Y66096D01*
X180859Y66122D01*
X186977Y72239D01*
X195670Y75840D01*
X205080Y75840D01*
X213773Y72239D01*
X220427Y65586D01*
X224028Y56892D01*
X224028Y47483D01*
X220427Y38789D01*
X213773Y32136D01*
X205080Y28535D01*
X195670Y28535D01*
X186977Y32136D01*
X180859Y38253D01*
X180801Y38295D01*
X180749Y38344D01*
X180702Y38366D01*
X180660Y38397D01*
X180591Y38418D01*
X180526Y38448D01*
X180474Y38454D01*
X180424Y38469D01*
X180353Y38467D01*
X180282Y38475D01*
X180231Y38464D01*
X180179Y38463D01*
X180111Y38438D01*
X180041Y38423D01*
X179996Y38396D01*
X179948Y38378D01*
X179892Y38333D01*
X179830Y38297D01*
X179796Y38257D01*
X179756Y38225D01*
X179717Y38164D01*
X179670Y38110D01*
X179651Y38061D01*
X179623Y38018D01*
X179605Y37948D01*
X179578Y37882D01*
X179570Y37810D01*
X179562Y37779D01*
X179564Y37756D01*
X179560Y37715D01*
X179560Y37363D01*
X177781Y33069D01*
X174494Y29782D01*
X170199Y28003D01*
X165551Y28003D01*
G37*
%LPD*%
%LPC*%
G36*
X411239Y162266D02*
X411239Y162266D01*
X408447Y163422D01*
X406310Y165559D01*
X405153Y168351D01*
X405153Y171374D01*
X406310Y174166D01*
X408447Y176303D01*
X411239Y177459D01*
X412128Y177459D01*
X412218Y177474D01*
X412309Y177481D01*
X412339Y177494D01*
X412370Y177499D01*
X412451Y177542D01*
X412535Y177577D01*
X412567Y177603D01*
X412588Y177614D01*
X412610Y177637D01*
X412666Y177682D01*
X438159Y203175D01*
X440213Y204026D01*
X489830Y204026D01*
X489920Y204041D01*
X490011Y204048D01*
X490041Y204061D01*
X490073Y204066D01*
X490153Y204109D01*
X490237Y204144D01*
X490269Y204170D01*
X490290Y204181D01*
X490312Y204204D01*
X490368Y204249D01*
X490997Y204878D01*
X493789Y206034D01*
X496811Y206034D01*
X499603Y204878D01*
X500232Y204249D01*
X500306Y204196D01*
X500375Y204137D01*
X500405Y204124D01*
X500431Y204106D01*
X500518Y204079D01*
X500603Y204045D01*
X500644Y204040D01*
X500667Y204033D01*
X500699Y204034D01*
X500770Y204026D01*
X542218Y204026D01*
X542308Y204041D01*
X542399Y204048D01*
X542428Y204061D01*
X542460Y204066D01*
X542541Y204109D01*
X542625Y204144D01*
X542657Y204170D01*
X542678Y204181D01*
X542700Y204204D01*
X542756Y204249D01*
X543384Y204878D01*
X546176Y206034D01*
X549199Y206034D01*
X551991Y204878D01*
X552619Y204249D01*
X552693Y204196D01*
X552763Y204137D01*
X552793Y204124D01*
X552819Y204106D01*
X552906Y204079D01*
X552991Y204045D01*
X553032Y204040D01*
X553054Y204033D01*
X553086Y204034D01*
X553157Y204026D01*
X594605Y204026D01*
X594695Y204041D01*
X594786Y204048D01*
X594816Y204061D01*
X594848Y204066D01*
X594928Y204109D01*
X595012Y204144D01*
X595044Y204170D01*
X595065Y204181D01*
X595087Y204204D01*
X595143Y204249D01*
X595772Y204878D01*
X598564Y206034D01*
X601586Y206034D01*
X604378Y204878D01*
X606515Y202741D01*
X607672Y199949D01*
X607672Y196926D01*
X606515Y194134D01*
X604378Y191997D01*
X601586Y190841D01*
X598564Y190841D01*
X595772Y191997D01*
X595143Y192626D01*
X595069Y192679D01*
X595000Y192738D01*
X594970Y192751D01*
X594944Y192769D01*
X594857Y192796D01*
X594772Y192830D01*
X594731Y192835D01*
X594708Y192842D01*
X594676Y192841D01*
X594605Y192849D01*
X553157Y192849D01*
X553067Y192834D01*
X552976Y192827D01*
X552947Y192814D01*
X552915Y192809D01*
X552834Y192766D01*
X552750Y192731D01*
X552718Y192705D01*
X552697Y192694D01*
X552675Y192671D01*
X552619Y192626D01*
X551991Y191997D01*
X549199Y190841D01*
X546176Y190841D01*
X543384Y191997D01*
X542756Y192626D01*
X542682Y192679D01*
X542612Y192738D01*
X542582Y192751D01*
X542556Y192769D01*
X542469Y192796D01*
X542384Y192830D01*
X542343Y192835D01*
X542321Y192842D01*
X542289Y192841D01*
X542218Y192849D01*
X500770Y192849D01*
X500680Y192834D01*
X500589Y192827D01*
X500559Y192814D01*
X500527Y192809D01*
X500447Y192766D01*
X500363Y192731D01*
X500331Y192705D01*
X500310Y192694D01*
X500288Y192671D01*
X500232Y192626D01*
X499603Y191997D01*
X496811Y190841D01*
X493789Y190841D01*
X490997Y191997D01*
X490368Y192626D01*
X490294Y192679D01*
X490225Y192738D01*
X490195Y192751D01*
X490169Y192769D01*
X490082Y192796D01*
X489997Y192830D01*
X489956Y192835D01*
X489933Y192842D01*
X489901Y192841D01*
X489830Y192849D01*
X443955Y192849D01*
X443865Y192834D01*
X443774Y192827D01*
X443744Y192814D01*
X443713Y192809D01*
X443632Y192766D01*
X443548Y192731D01*
X443516Y192705D01*
X443495Y192694D01*
X443473Y192671D01*
X443417Y192626D01*
X420570Y169779D01*
X420517Y169705D01*
X420457Y169635D01*
X420445Y169605D01*
X420426Y169579D01*
X420399Y169492D01*
X420365Y169407D01*
X420361Y169366D01*
X420354Y169344D01*
X420355Y169312D01*
X420347Y169240D01*
X420347Y168351D01*
X419190Y165559D01*
X417053Y163422D01*
X414261Y162266D01*
X411239Y162266D01*
G37*
%LPD*%
%LPC*%
G36*
X633383Y118871D02*
X633383Y118871D01*
X630395Y120109D01*
X628002Y122503D01*
X620532Y129972D01*
X620516Y129984D01*
X620504Y129999D01*
X620435Y130044D01*
X620402Y130072D01*
X620383Y130079D01*
X620333Y130115D01*
X620314Y130121D01*
X620297Y130132D01*
X620196Y130157D01*
X620098Y130188D01*
X620078Y130187D01*
X620058Y130192D01*
X619955Y130184D01*
X619852Y130181D01*
X619833Y130175D01*
X619813Y130173D01*
X619742Y130143D01*
X619738Y130142D01*
X619729Y130137D01*
X619718Y130133D01*
X619621Y130097D01*
X619605Y130084D01*
X619587Y130077D01*
X619532Y130033D01*
X619521Y130027D01*
X619509Y130015D01*
X619456Y129972D01*
X610454Y120970D01*
X607840Y119887D01*
X599731Y119887D01*
X599666Y119877D01*
X599601Y119876D01*
X599521Y119853D01*
X599488Y119848D01*
X599471Y119838D01*
X599440Y119829D01*
X598411Y119403D01*
X595389Y119403D01*
X592597Y120560D01*
X590460Y122697D01*
X589303Y125489D01*
X589303Y128511D01*
X590460Y131303D01*
X592597Y133440D01*
X595389Y134597D01*
X598411Y134597D01*
X599440Y134171D01*
X599503Y134156D01*
X599564Y134131D01*
X599647Y134122D01*
X599679Y134115D01*
X599698Y134116D01*
X599731Y134113D01*
X603163Y134113D01*
X603254Y134127D01*
X603344Y134135D01*
X603374Y134147D01*
X603406Y134152D01*
X603487Y134195D01*
X603571Y134231D01*
X603603Y134257D01*
X603624Y134268D01*
X603646Y134291D01*
X603702Y134336D01*
X612698Y143332D01*
X612736Y143385D01*
X612782Y143432D01*
X612823Y143505D01*
X612842Y143532D01*
X612847Y143550D01*
X612863Y143579D01*
X613821Y145892D01*
X616108Y148179D01*
X619096Y149416D01*
X622329Y149416D01*
X625317Y148179D01*
X638144Y135352D01*
X638218Y135299D01*
X638287Y135239D01*
X638318Y135227D01*
X638344Y135208D01*
X638431Y135181D01*
X638516Y135147D01*
X638557Y135143D01*
X638579Y135136D01*
X638611Y135137D01*
X638682Y135129D01*
X725517Y135129D01*
X728505Y133891D01*
X730791Y131605D01*
X732029Y128617D01*
X732029Y125383D01*
X730791Y122395D01*
X728505Y120109D01*
X725517Y118871D01*
X633383Y118871D01*
G37*
%LPD*%
%LPC*%
G36*
X806421Y118871D02*
X806421Y118871D01*
X803433Y120109D01*
X801146Y122395D01*
X799909Y125383D01*
X799909Y128617D01*
X801146Y131605D01*
X803433Y133891D01*
X806421Y135129D01*
X933479Y135129D01*
X936467Y133891D01*
X938754Y131605D01*
X939991Y128617D01*
X939991Y125383D01*
X938754Y122395D01*
X936467Y120109D01*
X933479Y118871D01*
X806421Y118871D01*
G37*
%LPD*%
%LPC*%
G36*
X115551Y28003D02*
X115551Y28003D01*
X111256Y29782D01*
X107969Y33069D01*
X106190Y37363D01*
X106190Y37715D01*
X106179Y37786D01*
X106177Y37857D01*
X106159Y37906D01*
X106151Y37958D01*
X106117Y38021D01*
X106092Y38088D01*
X106060Y38129D01*
X106035Y38175D01*
X105983Y38224D01*
X105939Y38280D01*
X105895Y38309D01*
X105857Y38344D01*
X105792Y38375D01*
X105732Y38413D01*
X105681Y38426D01*
X105634Y38448D01*
X105563Y38456D01*
X105493Y38473D01*
X105441Y38469D01*
X105390Y38475D01*
X105319Y38460D01*
X105248Y38454D01*
X105200Y38434D01*
X105149Y38423D01*
X105088Y38386D01*
X105022Y38358D01*
X104966Y38313D01*
X104938Y38297D01*
X104923Y38279D01*
X104891Y38253D01*
X98773Y32136D01*
X90080Y28535D01*
X80670Y28535D01*
X71977Y32136D01*
X65323Y38789D01*
X61722Y47483D01*
X61722Y56892D01*
X65323Y65586D01*
X71977Y72239D01*
X80670Y75840D01*
X90080Y75840D01*
X98773Y72239D01*
X105427Y65586D01*
X107322Y61011D01*
X107371Y60931D01*
X107414Y60848D01*
X107436Y60827D01*
X107451Y60802D01*
X107523Y60742D01*
X107591Y60677D01*
X107618Y60664D01*
X107641Y60645D01*
X107728Y60611D01*
X107812Y60571D01*
X107842Y60568D01*
X107870Y60557D01*
X107905Y60555D01*
X107896Y60541D01*
X107840Y60466D01*
X107831Y60437D01*
X107815Y60412D01*
X107793Y60321D01*
X107764Y60232D01*
X107764Y60202D01*
X107757Y60173D01*
X107765Y60080D01*
X107766Y59986D01*
X107777Y59950D01*
X107779Y59928D01*
X107798Y59877D01*
X107813Y59825D01*
X109028Y56892D01*
X109028Y49203D01*
X109039Y49132D01*
X109041Y49060D01*
X109059Y49011D01*
X109067Y48960D01*
X109101Y48897D01*
X109126Y48829D01*
X109158Y48789D01*
X109183Y48743D01*
X109235Y48693D01*
X109279Y48637D01*
X109323Y48609D01*
X109361Y48573D01*
X109426Y48543D01*
X109486Y48504D01*
X109537Y48492D01*
X109584Y48470D01*
X109655Y48462D01*
X109725Y48444D01*
X109777Y48448D01*
X109828Y48443D01*
X109899Y48458D01*
X109970Y48463D01*
X110018Y48484D01*
X110069Y48495D01*
X110130Y48532D01*
X110196Y48560D01*
X110252Y48604D01*
X110280Y48621D01*
X110295Y48639D01*
X110327Y48664D01*
X111256Y49593D01*
X115551Y51372D01*
X120199Y51372D01*
X124494Y49593D01*
X127781Y46306D01*
X129560Y42012D01*
X129560Y37363D01*
X127781Y33069D01*
X124494Y29782D01*
X120199Y28003D01*
X115551Y28003D01*
G37*
%LPD*%
G36*
X574673Y255790D02*
X574673Y255790D01*
X574745Y255792D01*
X574794Y255810D01*
X574845Y255818D01*
X574909Y255852D01*
X574976Y255877D01*
X575017Y255909D01*
X575063Y255934D01*
X575112Y255985D01*
X575168Y256030D01*
X575196Y256074D01*
X575232Y256112D01*
X575262Y256177D01*
X575301Y256237D01*
X575314Y256288D01*
X575336Y256335D01*
X575344Y256406D01*
X575361Y256476D01*
X575357Y256528D01*
X575363Y256579D01*
X575348Y256650D01*
X575342Y256721D01*
X575322Y256769D01*
X575311Y256820D01*
X575274Y256881D01*
X575246Y256947D01*
X575201Y257003D01*
X575184Y257031D01*
X575176Y257038D01*
X575175Y257040D01*
X575163Y257050D01*
X575141Y257078D01*
X574585Y257634D01*
X573428Y260426D01*
X573428Y263449D01*
X574585Y266241D01*
X575467Y267123D01*
X575520Y267197D01*
X575580Y267267D01*
X575592Y267297D01*
X575611Y267323D01*
X575638Y267410D01*
X575672Y267495D01*
X575676Y267536D01*
X575683Y267558D01*
X575682Y267590D01*
X575690Y267661D01*
X575690Y329262D01*
X575676Y329353D01*
X575668Y329443D01*
X575656Y329473D01*
X575651Y329505D01*
X575608Y329586D01*
X575572Y329670D01*
X575546Y329702D01*
X575535Y329723D01*
X575512Y329745D01*
X575467Y329801D01*
X567022Y338246D01*
X566964Y338288D01*
X566912Y338338D01*
X566864Y338359D01*
X566822Y338390D01*
X566754Y338411D01*
X566688Y338441D01*
X566637Y338447D01*
X566587Y338462D01*
X566515Y338460D01*
X566444Y338468D01*
X566393Y338457D01*
X566341Y338456D01*
X566274Y338431D01*
X566204Y338416D01*
X566159Y338389D01*
X566110Y338371D01*
X566054Y338327D01*
X565993Y338290D01*
X565959Y338250D01*
X565918Y338218D01*
X565879Y338157D01*
X565833Y338103D01*
X565813Y338055D01*
X565785Y338011D01*
X565768Y337941D01*
X565741Y337875D01*
X565733Y337803D01*
X565725Y337772D01*
X565727Y337749D01*
X565722Y337708D01*
X565722Y318026D01*
X564910Y316066D01*
X535783Y286938D01*
X535730Y286864D01*
X535670Y286795D01*
X535658Y286765D01*
X535639Y286738D01*
X535612Y286652D01*
X535578Y286567D01*
X535574Y286526D01*
X535567Y286503D01*
X535568Y286471D01*
X535560Y286400D01*
X535560Y267661D01*
X535574Y267571D01*
X535582Y267480D01*
X535594Y267451D01*
X535599Y267419D01*
X535642Y267338D01*
X535678Y267254D01*
X535704Y267222D01*
X535715Y267201D01*
X535738Y267179D01*
X535783Y267123D01*
X536665Y266241D01*
X537822Y263449D01*
X537822Y260426D01*
X536665Y257634D01*
X536109Y257078D01*
X536067Y257020D01*
X536018Y256968D01*
X535996Y256921D01*
X535966Y256879D01*
X535945Y256810D01*
X535914Y256745D01*
X535909Y256693D01*
X535893Y256643D01*
X535895Y256572D01*
X535887Y256501D01*
X535898Y256450D01*
X535900Y256398D01*
X535924Y256330D01*
X535939Y256260D01*
X535966Y256215D01*
X535984Y256167D01*
X536029Y256111D01*
X536066Y256049D01*
X536105Y256015D01*
X536138Y255975D01*
X536198Y255936D01*
X536253Y255889D01*
X536301Y255870D01*
X536345Y255842D01*
X536414Y255824D01*
X536481Y255797D01*
X536552Y255789D01*
X536583Y255781D01*
X536606Y255783D01*
X536647Y255779D01*
X574603Y255779D01*
X574673Y255790D01*
G37*
%LPC*%
G36*
X257150Y495133D02*
X257150Y495133D01*
X254172Y496367D01*
X253366Y497172D01*
X253292Y497225D01*
X253223Y497284D01*
X253193Y497297D01*
X253167Y497315D01*
X253080Y497342D01*
X252995Y497376D01*
X252954Y497381D01*
X252932Y497388D01*
X252899Y497387D01*
X252828Y497395D01*
X192513Y497395D01*
X190365Y498284D01*
X156972Y531678D01*
X156082Y533825D01*
X156082Y568741D01*
X156068Y568831D01*
X156060Y568922D01*
X156048Y568951D01*
X156043Y568983D01*
X156000Y569064D01*
X155964Y569148D01*
X155938Y569180D01*
X155927Y569201D01*
X155904Y569223D01*
X155859Y569279D01*
X155054Y570084D01*
X153820Y573063D01*
X153820Y576287D01*
X155054Y579266D01*
X157334Y581546D01*
X160313Y582780D01*
X163537Y582780D01*
X166516Y581546D01*
X168796Y579266D01*
X170030Y576287D01*
X170030Y573063D01*
X168796Y570084D01*
X167991Y569279D01*
X167938Y569205D01*
X167878Y569135D01*
X167866Y569105D01*
X167847Y569079D01*
X167820Y568992D01*
X167786Y568907D01*
X167782Y568866D01*
X167775Y568844D01*
X167776Y568812D01*
X167768Y568741D01*
X167768Y537723D01*
X167782Y537633D01*
X167790Y537542D01*
X167802Y537512D01*
X167807Y537480D01*
X167850Y537400D01*
X167886Y537316D01*
X167912Y537284D01*
X167923Y537263D01*
X167946Y537241D01*
X167991Y537185D01*
X195872Y509303D01*
X195946Y509250D01*
X196016Y509191D01*
X196046Y509178D01*
X196072Y509160D01*
X196159Y509133D01*
X196244Y509099D01*
X196285Y509094D01*
X196307Y509087D01*
X196339Y509088D01*
X196410Y509080D01*
X252828Y509080D01*
X252918Y509095D01*
X253009Y509102D01*
X253039Y509115D01*
X253071Y509120D01*
X253152Y509163D01*
X253235Y509198D01*
X253268Y509224D01*
X253288Y509235D01*
X253310Y509258D01*
X253366Y509303D01*
X254172Y510108D01*
X257150Y511342D01*
X260375Y511342D01*
X263353Y510108D01*
X265633Y507828D01*
X266867Y504850D01*
X266867Y501625D01*
X265633Y498647D01*
X263353Y496367D01*
X260375Y495133D01*
X257150Y495133D01*
G37*
%LPD*%
%LPC*%
G36*
X183170Y91035D02*
X183170Y91035D01*
X174477Y94636D01*
X167823Y101289D01*
X164222Y109983D01*
X164222Y119392D01*
X167823Y128086D01*
X174477Y134739D01*
X183170Y138340D01*
X192580Y138340D01*
X201273Y134739D01*
X207927Y128086D01*
X211528Y119392D01*
X211528Y109983D01*
X207927Y101289D01*
X201273Y94636D01*
X192580Y91035D01*
X183170Y91035D01*
G37*
%LPD*%
%LPC*%
G36*
X93170Y91035D02*
X93170Y91035D01*
X84477Y94636D01*
X77823Y101289D01*
X74222Y109983D01*
X74222Y119392D01*
X77823Y128086D01*
X84477Y134739D01*
X93170Y138340D01*
X102580Y138340D01*
X111273Y134739D01*
X117927Y128086D01*
X121528Y119392D01*
X121528Y109983D01*
X117927Y101289D01*
X111273Y94636D01*
X102580Y91035D01*
X93170Y91035D01*
G37*
%LPD*%
%LPC*%
G36*
X782714Y309903D02*
X782714Y309903D01*
X779922Y311060D01*
X779293Y311688D01*
X779219Y311741D01*
X779150Y311801D01*
X779120Y311813D01*
X779094Y311832D01*
X779007Y311859D01*
X778922Y311893D01*
X778881Y311897D01*
X778858Y311904D01*
X778826Y311903D01*
X778755Y311911D01*
X729138Y311911D01*
X727084Y312762D01*
X685716Y354130D01*
X685642Y354183D01*
X685573Y354243D01*
X685542Y354255D01*
X685516Y354274D01*
X685429Y354301D01*
X685344Y354335D01*
X685304Y354339D01*
X685281Y354346D01*
X685249Y354345D01*
X685178Y354353D01*
X684289Y354353D01*
X681497Y355510D01*
X679360Y357647D01*
X678203Y360439D01*
X678203Y363461D01*
X679360Y366253D01*
X681497Y368390D01*
X684289Y369547D01*
X687311Y369547D01*
X690103Y368390D01*
X692240Y366253D01*
X693397Y363461D01*
X693397Y362572D01*
X693411Y362482D01*
X693419Y362391D01*
X693431Y362361D01*
X693436Y362330D01*
X693479Y362249D01*
X693515Y362165D01*
X693541Y362133D01*
X693552Y362112D01*
X693575Y362090D01*
X693620Y362034D01*
X732342Y323312D01*
X732416Y323259D01*
X732485Y323199D01*
X732516Y323187D01*
X732542Y323168D01*
X732629Y323141D01*
X732714Y323107D01*
X732754Y323103D01*
X732777Y323096D01*
X732809Y323097D01*
X732880Y323089D01*
X778755Y323089D01*
X778845Y323103D01*
X778936Y323111D01*
X778966Y323123D01*
X778998Y323128D01*
X779078Y323171D01*
X779162Y323207D01*
X779194Y323233D01*
X779215Y323244D01*
X779237Y323267D01*
X779293Y323312D01*
X779922Y323940D01*
X782714Y325097D01*
X785736Y325097D01*
X788528Y323940D01*
X790665Y321803D01*
X791822Y319011D01*
X791822Y315989D01*
X790665Y313197D01*
X788528Y311060D01*
X785736Y309903D01*
X782714Y309903D01*
G37*
%LPD*%
%LPC*%
G36*
X225400Y682458D02*
X225400Y682458D01*
X222422Y683692D01*
X220142Y685972D01*
X218908Y688950D01*
X218908Y692175D01*
X220142Y695153D01*
X222422Y697433D01*
X225400Y698667D01*
X228625Y698667D01*
X231603Y697433D01*
X232409Y696628D01*
X232483Y696575D01*
X232552Y696516D01*
X232582Y696503D01*
X232608Y696485D01*
X232695Y696458D01*
X232780Y696424D01*
X232821Y696419D01*
X232843Y696412D01*
X232876Y696413D01*
X232947Y696405D01*
X329028Y696405D01*
X329118Y696420D01*
X329209Y696427D01*
X329239Y696440D01*
X329271Y696445D01*
X329352Y696488D01*
X329435Y696523D01*
X329468Y696549D01*
X329488Y696560D01*
X329510Y696583D01*
X329566Y696628D01*
X330372Y697433D01*
X333350Y698667D01*
X336575Y698667D01*
X339553Y697433D01*
X341833Y695153D01*
X343067Y692175D01*
X343067Y688950D01*
X341833Y685972D01*
X339553Y683692D01*
X336575Y682458D01*
X333350Y682458D01*
X330372Y683692D01*
X329566Y684497D01*
X329492Y684550D01*
X329423Y684609D01*
X329393Y684622D01*
X329367Y684640D01*
X329280Y684667D01*
X329195Y684701D01*
X329154Y684706D01*
X329132Y684713D01*
X329099Y684712D01*
X329028Y684720D01*
X232947Y684720D01*
X232857Y684705D01*
X232766Y684698D01*
X232736Y684685D01*
X232704Y684680D01*
X232623Y684637D01*
X232540Y684602D01*
X232507Y684576D01*
X232487Y684565D01*
X232465Y684542D01*
X232409Y684497D01*
X231603Y683692D01*
X228625Y682458D01*
X225400Y682458D01*
G37*
%LPD*%
%LPC*%
G36*
X837001Y398102D02*
X837001Y398102D01*
X831645Y400321D01*
X827546Y404420D01*
X825327Y409776D01*
X825327Y435574D01*
X827546Y440930D01*
X831645Y445029D01*
X837001Y447248D01*
X842799Y447248D01*
X848155Y445029D01*
X852254Y440930D01*
X854473Y435574D01*
X854473Y409776D01*
X852254Y404420D01*
X848155Y400321D01*
X842799Y398102D01*
X837001Y398102D01*
G37*
%LPD*%
G36*
X637845Y290867D02*
X637845Y290867D01*
X637897Y290869D01*
X637964Y290893D01*
X638034Y290909D01*
X638079Y290935D01*
X638128Y290953D01*
X638184Y290998D01*
X638245Y291035D01*
X638279Y291074D01*
X638320Y291107D01*
X638359Y291167D01*
X638405Y291222D01*
X638425Y291270D01*
X638453Y291314D01*
X638470Y291383D01*
X638497Y291450D01*
X638505Y291521D01*
X638513Y291552D01*
X638511Y291576D01*
X638516Y291616D01*
X638516Y292024D01*
X639672Y294816D01*
X640555Y295698D01*
X640608Y295772D01*
X640667Y295842D01*
X640680Y295872D01*
X640698Y295898D01*
X640725Y295985D01*
X640759Y296070D01*
X640764Y296111D01*
X640771Y296133D01*
X640770Y296165D01*
X640778Y296236D01*
X640778Y332437D01*
X640763Y332528D01*
X640756Y332618D01*
X640743Y332648D01*
X640738Y332680D01*
X640695Y332761D01*
X640660Y332845D01*
X640634Y332877D01*
X640623Y332898D01*
X640600Y332920D01*
X640555Y332976D01*
X625076Y348455D01*
X625002Y348508D01*
X624932Y348567D01*
X624902Y348580D01*
X624876Y348598D01*
X624789Y348625D01*
X624704Y348659D01*
X624663Y348664D01*
X624641Y348671D01*
X624609Y348670D01*
X624537Y348678D01*
X589392Y348678D01*
X589321Y348666D01*
X589250Y348664D01*
X589201Y348646D01*
X589149Y348638D01*
X589086Y348605D01*
X589019Y348580D01*
X588978Y348547D01*
X588932Y348523D01*
X588883Y348471D01*
X588827Y348426D01*
X588798Y348382D01*
X588762Y348345D01*
X588732Y348280D01*
X588694Y348219D01*
X588681Y348169D01*
X588659Y348122D01*
X588651Y348050D01*
X588633Y347981D01*
X588638Y347929D01*
X588632Y347877D01*
X588647Y347807D01*
X588653Y347736D01*
X588673Y347688D01*
X588684Y347637D01*
X588721Y347575D01*
X588749Y347509D01*
X588794Y347453D01*
X588810Y347426D01*
X588824Y347414D01*
X588827Y347409D01*
X588834Y347403D01*
X588854Y347378D01*
X598887Y337345D01*
X598961Y337292D01*
X599030Y337233D01*
X599060Y337220D01*
X599086Y337202D01*
X599173Y337175D01*
X599258Y337141D01*
X599299Y337136D01*
X599322Y337129D01*
X599354Y337130D01*
X599425Y337122D01*
X616576Y337122D01*
X616666Y337137D01*
X616757Y337144D01*
X616787Y337157D01*
X616819Y337162D01*
X616899Y337205D01*
X616983Y337240D01*
X617016Y337266D01*
X617036Y337277D01*
X617058Y337300D01*
X617114Y337345D01*
X617997Y338228D01*
X620789Y339384D01*
X623811Y339384D01*
X626603Y338228D01*
X628740Y336091D01*
X629897Y333299D01*
X629897Y330276D01*
X628740Y327484D01*
X626603Y325347D01*
X623811Y324191D01*
X620789Y324191D01*
X617997Y325347D01*
X617114Y326230D01*
X617040Y326283D01*
X616971Y326342D01*
X616941Y326354D01*
X616915Y326373D01*
X616828Y326400D01*
X616743Y326434D01*
X616702Y326439D01*
X616680Y326446D01*
X616647Y326445D01*
X616576Y326453D01*
X603679Y326453D01*
X603609Y326441D01*
X603537Y326439D01*
X603488Y326421D01*
X603437Y326413D01*
X603374Y326380D01*
X603306Y326355D01*
X603265Y326322D01*
X603219Y326298D01*
X603170Y326246D01*
X603114Y326201D01*
X603086Y326157D01*
X603050Y326120D01*
X603020Y326055D01*
X602981Y325994D01*
X602968Y325944D01*
X602946Y325897D01*
X602938Y325825D01*
X602921Y325756D01*
X602925Y325704D01*
X602919Y325652D01*
X602935Y325582D01*
X602940Y325511D01*
X602960Y325463D01*
X602972Y325412D01*
X603008Y325350D01*
X603036Y325284D01*
X603081Y325228D01*
X603098Y325201D01*
X603115Y325185D01*
X603141Y325153D01*
X637216Y291078D01*
X637274Y291036D01*
X637326Y290987D01*
X637374Y290965D01*
X637416Y290935D01*
X637484Y290914D01*
X637550Y290883D01*
X637601Y290878D01*
X637651Y290862D01*
X637723Y290864D01*
X637794Y290856D01*
X637845Y290867D01*
G37*
%LPC*%
G36*
X492201Y76541D02*
X492201Y76541D01*
X489409Y77697D01*
X487272Y79834D01*
X486116Y82626D01*
X486116Y85649D01*
X487272Y88441D01*
X489409Y90578D01*
X490438Y91004D01*
X490494Y91038D01*
X490554Y91064D01*
X490619Y91116D01*
X490647Y91133D01*
X490659Y91148D01*
X490685Y91169D01*
X518258Y118742D01*
X520873Y119825D01*
X543269Y119825D01*
X543334Y119836D01*
X543399Y119836D01*
X543479Y119860D01*
X543512Y119865D01*
X543529Y119874D01*
X543560Y119883D01*
X544589Y120309D01*
X547611Y120309D01*
X550403Y119153D01*
X552540Y117016D01*
X553697Y114224D01*
X553697Y111201D01*
X552540Y108409D01*
X550403Y106272D01*
X547611Y105116D01*
X544589Y105116D01*
X543560Y105542D01*
X543497Y105557D01*
X543436Y105581D01*
X543353Y105590D01*
X543321Y105598D01*
X543302Y105596D01*
X543269Y105600D01*
X525549Y105600D01*
X525459Y105585D01*
X525368Y105578D01*
X525338Y105565D01*
X525306Y105560D01*
X525226Y105517D01*
X525142Y105482D01*
X525110Y105456D01*
X525089Y105445D01*
X525067Y105422D01*
X525011Y105377D01*
X500744Y81110D01*
X500706Y81057D01*
X500660Y81010D01*
X500619Y80937D01*
X500600Y80910D01*
X500595Y80892D01*
X500579Y80863D01*
X500153Y79834D01*
X498016Y77697D01*
X495224Y76541D01*
X492201Y76541D01*
G37*
%LPD*%
%LPC*%
G36*
X382563Y522120D02*
X382563Y522120D01*
X379584Y523354D01*
X377304Y525634D01*
X376070Y528613D01*
X376070Y531837D01*
X377304Y534816D01*
X377601Y535113D01*
X377654Y535187D01*
X377714Y535257D01*
X377726Y535287D01*
X377745Y535313D01*
X377772Y535400D01*
X377806Y535485D01*
X377810Y535526D01*
X377817Y535548D01*
X377816Y535580D01*
X377824Y535651D01*
X377824Y541013D01*
X378791Y543347D01*
X402835Y567391D01*
X402881Y567456D01*
X402897Y567473D01*
X402901Y567480D01*
X402947Y567535D01*
X402960Y567565D01*
X402978Y567591D01*
X403005Y567678D01*
X403039Y567763D01*
X403044Y567804D01*
X403051Y567826D01*
X403050Y567858D01*
X403058Y567929D01*
X403058Y568350D01*
X404292Y571328D01*
X406572Y573608D01*
X409550Y574842D01*
X412775Y574842D01*
X415753Y573608D01*
X418033Y571328D01*
X419267Y568350D01*
X419267Y565125D01*
X418033Y562147D01*
X415753Y559867D01*
X412775Y558633D01*
X412354Y558633D01*
X412264Y558618D01*
X412173Y558611D01*
X412144Y558598D01*
X412112Y558593D01*
X412031Y558550D01*
X411947Y558515D01*
X411915Y558489D01*
X411894Y558478D01*
X411872Y558455D01*
X411816Y558410D01*
X390749Y537342D01*
X390696Y537268D01*
X390636Y537199D01*
X390624Y537169D01*
X390605Y537143D01*
X390578Y537056D01*
X390544Y536971D01*
X390540Y536930D01*
X390533Y536908D01*
X390534Y536875D01*
X390526Y536804D01*
X390526Y535651D01*
X390540Y535561D01*
X390548Y535470D01*
X390560Y535441D01*
X390565Y535409D01*
X390608Y535328D01*
X390644Y535244D01*
X390670Y535212D01*
X390681Y535191D01*
X390704Y535169D01*
X390749Y535113D01*
X391046Y534816D01*
X392280Y531837D01*
X392280Y528613D01*
X391046Y525634D01*
X388766Y523354D01*
X385787Y522120D01*
X382563Y522120D01*
G37*
%LPD*%
%LPC*%
G36*
X536091Y35623D02*
X536091Y35623D01*
X532263Y37208D01*
X529333Y40138D01*
X527748Y43966D01*
X527748Y57634D01*
X529333Y61462D01*
X532263Y64392D01*
X536091Y65977D01*
X549759Y65977D01*
X553587Y64392D01*
X556517Y61462D01*
X558102Y57634D01*
X558102Y43966D01*
X556517Y40138D01*
X553587Y37208D01*
X549759Y35623D01*
X536091Y35623D01*
G37*
%LPD*%
%LPC*%
G36*
X586891Y35623D02*
X586891Y35623D01*
X583063Y37208D01*
X580133Y40138D01*
X578548Y43966D01*
X578548Y57634D01*
X580133Y61462D01*
X583063Y64392D01*
X586891Y65977D01*
X600559Y65977D01*
X604387Y64392D01*
X607317Y61462D01*
X608902Y57634D01*
X608902Y43966D01*
X607317Y40138D01*
X604387Y37208D01*
X600559Y35623D01*
X586891Y35623D01*
G37*
%LPD*%
%LPC*%
G36*
X637691Y35623D02*
X637691Y35623D01*
X633863Y37208D01*
X630933Y40138D01*
X629348Y43966D01*
X629348Y57634D01*
X630933Y61462D01*
X633863Y64392D01*
X637691Y65977D01*
X651359Y65977D01*
X655187Y64392D01*
X658117Y61462D01*
X659702Y57634D01*
X659702Y43966D01*
X658117Y40138D01*
X655187Y37208D01*
X651359Y35623D01*
X637691Y35623D01*
G37*
%LPD*%
%LPC*%
G36*
X485291Y35623D02*
X485291Y35623D01*
X481463Y37208D01*
X478533Y40138D01*
X476948Y43966D01*
X476948Y57634D01*
X478533Y61462D01*
X481463Y64392D01*
X485291Y65977D01*
X498959Y65977D01*
X502787Y64392D01*
X505717Y61462D01*
X507302Y57634D01*
X507302Y43966D01*
X505717Y40138D01*
X502787Y37208D01*
X498959Y35623D01*
X485291Y35623D01*
G37*
%LPD*%
G36*
X510154Y563687D02*
X510154Y563687D01*
X510257Y563689D01*
X510276Y563696D01*
X510296Y563698D01*
X510391Y563738D01*
X510488Y563774D01*
X510504Y563786D01*
X510522Y563794D01*
X510653Y563899D01*
X513362Y566607D01*
X515810Y567622D01*
X515871Y567660D01*
X515937Y567689D01*
X515975Y567724D01*
X516019Y567751D01*
X516065Y567807D01*
X516118Y567855D01*
X516143Y567901D01*
X516176Y567941D01*
X516202Y568008D01*
X516236Y568071D01*
X516246Y568122D01*
X516264Y568170D01*
X516267Y568242D01*
X516280Y568313D01*
X516273Y568364D01*
X516275Y568416D01*
X516255Y568485D01*
X516244Y568556D01*
X516221Y568602D01*
X516206Y568652D01*
X516165Y568711D01*
X516133Y568775D01*
X516096Y568812D01*
X516066Y568854D01*
X516008Y568897D01*
X515957Y568947D01*
X515894Y568982D01*
X515869Y569001D01*
X515846Y569008D01*
X515810Y569028D01*
X513362Y570043D01*
X509718Y573687D01*
X507745Y578448D01*
X507745Y583602D01*
X509718Y588363D01*
X513362Y592007D01*
X515810Y593022D01*
X515871Y593060D01*
X515937Y593089D01*
X515975Y593124D01*
X516019Y593151D01*
X516065Y593207D01*
X516118Y593255D01*
X516143Y593301D01*
X516176Y593341D01*
X516202Y593408D01*
X516236Y593471D01*
X516246Y593522D01*
X516264Y593570D01*
X516267Y593642D01*
X516280Y593713D01*
X516273Y593764D01*
X516275Y593816D01*
X516255Y593885D01*
X516244Y593956D01*
X516221Y594002D01*
X516206Y594052D01*
X516165Y594111D01*
X516133Y594175D01*
X516096Y594212D01*
X516066Y594254D01*
X516008Y594297D01*
X515957Y594347D01*
X515894Y594382D01*
X515869Y594401D01*
X515846Y594408D01*
X515810Y594428D01*
X513362Y595443D01*
X509718Y599087D01*
X509293Y600112D01*
X509231Y600212D01*
X509171Y600312D01*
X509166Y600316D01*
X509163Y600321D01*
X509073Y600396D01*
X508984Y600472D01*
X508978Y600474D01*
X508974Y600478D01*
X508865Y600520D01*
X508756Y600564D01*
X508749Y600565D01*
X508744Y600566D01*
X508726Y600567D01*
X508589Y600582D01*
X474731Y600582D01*
X474660Y600571D01*
X474588Y600569D01*
X474539Y600551D01*
X474488Y600543D01*
X474425Y600509D01*
X474357Y600484D01*
X474317Y600452D01*
X474271Y600427D01*
X474221Y600376D01*
X474165Y600331D01*
X474137Y600287D01*
X474101Y600249D01*
X474071Y600184D01*
X474032Y600124D01*
X474020Y600073D01*
X473998Y600026D01*
X473990Y599955D01*
X473972Y599885D01*
X473976Y599833D01*
X473971Y599782D01*
X473986Y599711D01*
X473991Y599640D01*
X474012Y599592D01*
X474023Y599541D01*
X474060Y599480D01*
X474088Y599414D01*
X474133Y599358D01*
X474149Y599330D01*
X474167Y599315D01*
X474193Y599283D01*
X509577Y563899D01*
X509593Y563887D01*
X509605Y563872D01*
X509693Y563815D01*
X509776Y563755D01*
X509795Y563749D01*
X509812Y563739D01*
X509913Y563713D01*
X510011Y563683D01*
X510031Y563683D01*
X510051Y563679D01*
X510154Y563687D01*
G37*
%LPC*%
G36*
X165075Y442745D02*
X165075Y442745D01*
X162097Y443979D01*
X159817Y446259D01*
X158583Y449238D01*
X158583Y452462D01*
X159817Y455441D01*
X160622Y456246D01*
X160668Y456310D01*
X160687Y456330D01*
X160691Y456339D01*
X160734Y456390D01*
X160747Y456420D01*
X160765Y456446D01*
X160792Y456533D01*
X160826Y456618D01*
X160831Y456659D01*
X160838Y456681D01*
X160837Y456713D01*
X160845Y456784D01*
X160845Y476666D01*
X160830Y476756D01*
X160823Y476847D01*
X160810Y476876D01*
X160805Y476908D01*
X160762Y476989D01*
X160727Y477073D01*
X160701Y477105D01*
X160690Y477126D01*
X160667Y477148D01*
X160622Y477204D01*
X159817Y478009D01*
X158583Y480988D01*
X158583Y484212D01*
X159817Y487191D01*
X162097Y489471D01*
X165075Y490705D01*
X168300Y490705D01*
X171278Y489471D01*
X173558Y487191D01*
X174792Y484212D01*
X174792Y480988D01*
X173558Y478009D01*
X172753Y477204D01*
X172700Y477130D01*
X172641Y477060D01*
X172628Y477030D01*
X172610Y477004D01*
X172583Y476917D01*
X172549Y476832D01*
X172544Y476791D01*
X172537Y476769D01*
X172538Y476737D01*
X172530Y476666D01*
X172530Y456784D01*
X172545Y456694D01*
X172552Y456603D01*
X172565Y456574D01*
X172570Y456542D01*
X172613Y456461D01*
X172648Y456377D01*
X172674Y456345D01*
X172685Y456324D01*
X172708Y456302D01*
X172735Y456269D01*
X172736Y456267D01*
X172737Y456266D01*
X172753Y456246D01*
X173558Y455441D01*
X174792Y452462D01*
X174792Y449238D01*
X173558Y446259D01*
X171278Y443979D01*
X168300Y442745D01*
X165075Y442745D01*
G37*
%LPD*%
%LPC*%
G36*
X82322Y463900D02*
X82322Y463900D01*
X77374Y465949D01*
X73587Y469736D01*
X71537Y474685D01*
X71537Y480040D01*
X73587Y484989D01*
X77374Y488776D01*
X82322Y490825D01*
X87678Y490825D01*
X92626Y488776D01*
X96413Y484989D01*
X98463Y480040D01*
X98463Y474685D01*
X96413Y469736D01*
X92626Y465949D01*
X87678Y463900D01*
X82322Y463900D01*
G37*
%LPD*%
%LPC*%
G36*
X82322Y398900D02*
X82322Y398900D01*
X77374Y400949D01*
X73587Y404736D01*
X71537Y409685D01*
X71537Y415040D01*
X73587Y419989D01*
X77374Y423776D01*
X82322Y425825D01*
X87678Y425825D01*
X92626Y423776D01*
X96413Y419989D01*
X98463Y415040D01*
X98463Y409685D01*
X96413Y404736D01*
X92626Y400949D01*
X87678Y398900D01*
X82322Y398900D01*
G37*
%LPD*%
%LPC*%
G36*
X518123Y644270D02*
X518123Y644270D01*
X513362Y646243D01*
X509718Y649887D01*
X507745Y654648D01*
X507745Y659802D01*
X509718Y664563D01*
X513362Y668207D01*
X518123Y670180D01*
X523277Y670180D01*
X528038Y668207D01*
X531682Y664563D01*
X533655Y659802D01*
X533655Y654648D01*
X531682Y649887D01*
X528038Y646243D01*
X523277Y644270D01*
X518123Y644270D01*
G37*
%LPD*%
%LPC*%
G36*
X77354Y712152D02*
X77354Y712152D01*
X73619Y713699D01*
X70761Y716557D01*
X69214Y720291D01*
X69214Y724334D01*
X70761Y728068D01*
X73619Y730926D01*
X77354Y732473D01*
X81396Y732473D01*
X85131Y730926D01*
X87989Y728068D01*
X89536Y724334D01*
X89536Y720291D01*
X87989Y716557D01*
X85131Y713699D01*
X81396Y712152D01*
X77354Y712152D01*
G37*
%LPD*%
%LPC*%
G36*
X871423Y474198D02*
X871423Y474198D01*
X871423Y485216D01*
X880887Y485216D01*
X882837Y484907D01*
X884714Y484297D01*
X886473Y483401D01*
X888070Y482241D01*
X889466Y480845D01*
X890626Y479248D01*
X891522Y477489D01*
X892132Y475612D01*
X892356Y474198D01*
X871423Y474198D01*
G37*
%LPD*%
%LPC*%
G36*
X904423Y424198D02*
X904423Y424198D01*
X904423Y445131D01*
X905837Y444907D01*
X907714Y444297D01*
X909473Y443401D01*
X911070Y442241D01*
X912466Y440845D01*
X913626Y439248D01*
X914522Y437489D01*
X915132Y435612D01*
X915441Y433662D01*
X915441Y424198D01*
X904423Y424198D01*
G37*
%LPD*%
%LPC*%
G36*
X904423Y421152D02*
X904423Y421152D01*
X915441Y421152D01*
X915441Y411688D01*
X915132Y409738D01*
X914522Y407861D01*
X913626Y406102D01*
X912466Y404505D01*
X911070Y403109D01*
X909473Y401949D01*
X907714Y401053D01*
X905837Y400443D01*
X904423Y400219D01*
X904423Y421152D01*
G37*
%LPD*%
%LPC*%
G36*
X847444Y474198D02*
X847444Y474198D01*
X847668Y475612D01*
X848278Y477489D01*
X849174Y479248D01*
X850334Y480845D01*
X851730Y482241D01*
X853327Y483401D01*
X855086Y484297D01*
X856963Y484907D01*
X858913Y485216D01*
X868377Y485216D01*
X868377Y474198D01*
X847444Y474198D01*
G37*
%LPD*%
%LPC*%
G36*
X871423Y460134D02*
X871423Y460134D01*
X871423Y471152D01*
X892356Y471152D01*
X892132Y469738D01*
X891522Y467861D01*
X890626Y466102D01*
X889466Y464505D01*
X888070Y463109D01*
X886473Y461949D01*
X884714Y461053D01*
X882837Y460443D01*
X880887Y460134D01*
X871423Y460134D01*
G37*
%LPD*%
%LPC*%
G36*
X890359Y424198D02*
X890359Y424198D01*
X890359Y433662D01*
X890668Y435612D01*
X891278Y437489D01*
X892174Y439248D01*
X893334Y440845D01*
X894730Y442241D01*
X896327Y443401D01*
X898086Y444297D01*
X899963Y444907D01*
X901377Y445131D01*
X901377Y424198D01*
X890359Y424198D01*
G37*
%LPD*%
%LPC*%
G36*
X858913Y460134D02*
X858913Y460134D01*
X856963Y460443D01*
X855086Y461053D01*
X853327Y461949D01*
X851730Y463109D01*
X850334Y464505D01*
X849174Y466102D01*
X848278Y467861D01*
X847668Y469738D01*
X847444Y471152D01*
X868377Y471152D01*
X868377Y460134D01*
X858913Y460134D01*
G37*
%LPD*%
%LPC*%
G36*
X899963Y400443D02*
X899963Y400443D01*
X898086Y401053D01*
X896327Y401949D01*
X894730Y403109D01*
X893334Y404505D01*
X892174Y406102D01*
X891278Y407861D01*
X890668Y409738D01*
X890359Y411688D01*
X890359Y421152D01*
X901377Y421152D01*
X901377Y400219D01*
X899963Y400443D01*
G37*
%LPD*%
%LPC*%
G36*
X101536Y803339D02*
X101536Y803339D01*
X110935Y803339D01*
X110935Y795621D01*
X110666Y793923D01*
X110135Y792288D01*
X109354Y790756D01*
X108344Y789365D01*
X107128Y788149D01*
X105737Y787139D01*
X104205Y786358D01*
X102570Y785827D01*
X101536Y785663D01*
X101536Y803339D01*
G37*
%LPD*%
%LPC*%
G36*
X253936Y803339D02*
X253936Y803339D01*
X263335Y803339D01*
X263335Y795621D01*
X263066Y793923D01*
X262535Y792288D01*
X261754Y790756D01*
X260744Y789365D01*
X259528Y788149D01*
X258137Y787139D01*
X256605Y786358D01*
X254970Y785827D01*
X253936Y785663D01*
X253936Y803339D01*
G37*
%LPD*%
%LPC*%
G36*
X482536Y803339D02*
X482536Y803339D01*
X491935Y803339D01*
X491935Y795621D01*
X491666Y793923D01*
X491135Y792288D01*
X490354Y790756D01*
X489344Y789365D01*
X488128Y788149D01*
X486737Y787139D01*
X485205Y786358D01*
X483570Y785827D01*
X482536Y785663D01*
X482536Y803339D01*
G37*
%LPD*%
%LPC*%
G36*
X330136Y803339D02*
X330136Y803339D01*
X339535Y803339D01*
X339535Y795621D01*
X339266Y793923D01*
X338735Y792288D01*
X337954Y790756D01*
X336944Y789365D01*
X335728Y788149D01*
X334337Y787139D01*
X332805Y786358D01*
X331170Y785827D01*
X330136Y785663D01*
X330136Y803339D01*
G37*
%LPD*%
%LPC*%
G36*
X279336Y803339D02*
X279336Y803339D01*
X288735Y803339D01*
X288735Y795621D01*
X288466Y793923D01*
X287935Y792288D01*
X287154Y790756D01*
X286144Y789365D01*
X284928Y788149D01*
X283537Y787139D01*
X282005Y786358D01*
X280370Y785827D01*
X279336Y785663D01*
X279336Y803339D01*
G37*
%LPD*%
%LPC*%
G36*
X304736Y803339D02*
X304736Y803339D01*
X314135Y803339D01*
X314135Y795621D01*
X313866Y793923D01*
X313335Y792288D01*
X312554Y790756D01*
X311544Y789365D01*
X310328Y788149D01*
X308937Y787139D01*
X307405Y786358D01*
X305770Y785827D01*
X304736Y785663D01*
X304736Y803339D01*
G37*
%LPD*%
%LPC*%
G36*
X326055Y785827D02*
X326055Y785827D01*
X324420Y786358D01*
X322888Y787139D01*
X321497Y788149D01*
X320281Y789365D01*
X319271Y790756D01*
X318490Y792288D01*
X317959Y793923D01*
X317690Y795621D01*
X317690Y803339D01*
X327089Y803339D01*
X327089Y785663D01*
X326055Y785827D01*
G37*
%LPD*%
%LPC*%
G36*
X300655Y785827D02*
X300655Y785827D01*
X299020Y786358D01*
X297488Y787139D01*
X296097Y788149D01*
X294881Y789365D01*
X293871Y790756D01*
X293090Y792288D01*
X292559Y793923D01*
X292290Y795621D01*
X292290Y803339D01*
X301689Y803339D01*
X301689Y785663D01*
X300655Y785827D01*
G37*
%LPD*%
%LPC*%
G36*
X275255Y785827D02*
X275255Y785827D01*
X273620Y786358D01*
X272088Y787139D01*
X270697Y788149D01*
X269481Y789365D01*
X268471Y790756D01*
X267690Y792288D01*
X267159Y793923D01*
X266890Y795621D01*
X266890Y803339D01*
X276289Y803339D01*
X276289Y785663D01*
X275255Y785827D01*
G37*
%LPD*%
%LPC*%
G36*
X97455Y785827D02*
X97455Y785827D01*
X95820Y786358D01*
X94288Y787139D01*
X92897Y788149D01*
X91681Y789365D01*
X90671Y790756D01*
X89890Y792288D01*
X89359Y793923D01*
X89090Y795621D01*
X89090Y803339D01*
X98489Y803339D01*
X98489Y785663D01*
X97455Y785827D01*
G37*
%LPD*%
%LPC*%
G36*
X478455Y785827D02*
X478455Y785827D01*
X476820Y786358D01*
X475288Y787139D01*
X473897Y788149D01*
X472681Y789365D01*
X471671Y790756D01*
X470890Y792288D01*
X470359Y793923D01*
X470090Y795621D01*
X470090Y803339D01*
X479489Y803339D01*
X479489Y785663D01*
X478455Y785827D01*
G37*
%LPD*%
%LPC*%
G36*
X249855Y785827D02*
X249855Y785827D01*
X248220Y786358D01*
X246688Y787139D01*
X245297Y788149D01*
X244081Y789365D01*
X243071Y790756D01*
X242290Y792288D01*
X241759Y793923D01*
X241490Y795621D01*
X241490Y803339D01*
X250889Y803339D01*
X250889Y785663D01*
X249855Y785827D01*
G37*
%LPD*%
%LPC*%
G36*
X828611Y784161D02*
X828611Y784161D01*
X828611Y800304D01*
X829467Y800168D01*
X830988Y799674D01*
X832413Y798948D01*
X833707Y798008D01*
X834838Y796877D01*
X835778Y795583D01*
X836504Y794158D01*
X836998Y792637D01*
X837248Y791057D01*
X837248Y784161D01*
X828611Y784161D01*
G37*
%LPD*%
%LPC*%
G36*
X828611Y781114D02*
X828611Y781114D01*
X837248Y781114D01*
X837248Y774218D01*
X836998Y772638D01*
X836504Y771117D01*
X835778Y769692D01*
X834838Y768398D01*
X833707Y767267D01*
X832413Y766327D01*
X830988Y765601D01*
X829467Y765107D01*
X828611Y764971D01*
X828611Y781114D01*
G37*
%LPD*%
%LPC*%
G36*
X816927Y784161D02*
X816927Y784161D01*
X816927Y791057D01*
X817177Y792637D01*
X817671Y794158D01*
X818397Y795583D01*
X819337Y796877D01*
X820468Y798008D01*
X821762Y798948D01*
X823187Y799674D01*
X824708Y800168D01*
X825564Y800304D01*
X825564Y784161D01*
X816927Y784161D01*
G37*
%LPD*%
%LPC*%
G36*
X824708Y765107D02*
X824708Y765107D01*
X823187Y765601D01*
X821762Y766327D01*
X820468Y767267D01*
X819337Y768398D01*
X818397Y769692D01*
X817671Y771117D01*
X817177Y772638D01*
X816927Y774218D01*
X816927Y781114D01*
X825564Y781114D01*
X825564Y764971D01*
X824708Y765107D01*
G37*
%LPD*%
%LPC*%
G36*
X522223Y633348D02*
X522223Y633348D01*
X522223Y642643D01*
X523258Y642479D01*
X524893Y641947D01*
X526425Y641167D01*
X527816Y640156D01*
X529031Y638941D01*
X530042Y637550D01*
X530822Y636018D01*
X531354Y634383D01*
X531518Y633348D01*
X522223Y633348D01*
G37*
%LPD*%
%LPC*%
G36*
X509882Y633348D02*
X509882Y633348D01*
X510046Y634383D01*
X510578Y636018D01*
X511358Y637550D01*
X512369Y638941D01*
X513584Y640156D01*
X514975Y641167D01*
X516507Y641947D01*
X518142Y642479D01*
X519177Y642643D01*
X519177Y633348D01*
X509882Y633348D01*
G37*
%LPD*%
%LPC*%
G36*
X522223Y630302D02*
X522223Y630302D01*
X531518Y630302D01*
X531354Y629267D01*
X530822Y627632D01*
X530042Y626100D01*
X529031Y624709D01*
X527816Y623494D01*
X526425Y622483D01*
X524893Y621703D01*
X523258Y621171D01*
X522223Y621007D01*
X522223Y630302D01*
G37*
%LPD*%
%LPC*%
G36*
X518142Y621171D02*
X518142Y621171D01*
X516507Y621703D01*
X514975Y622483D01*
X513584Y623494D01*
X512369Y624709D01*
X511358Y626100D01*
X510578Y627632D01*
X510046Y629267D01*
X509882Y630302D01*
X519177Y630302D01*
X519177Y621007D01*
X518142Y621171D01*
G37*
%LPD*%
%LPC*%
G36*
X115615Y55272D02*
X115615Y55272D01*
X114170Y55742D01*
X112816Y56432D01*
X111587Y57325D01*
X110512Y58399D01*
X109619Y59628D01*
X109195Y60462D01*
X109139Y60537D01*
X109090Y60617D01*
X109067Y60636D01*
X109049Y60660D01*
X108973Y60714D01*
X108900Y60774D01*
X108872Y60784D01*
X108848Y60802D01*
X108758Y60828D01*
X108671Y60862D01*
X108641Y60863D01*
X108639Y60863D01*
X108672Y60901D01*
X108683Y60928D01*
X108701Y60953D01*
X108730Y61041D01*
X108766Y61128D01*
X108768Y61158D01*
X108777Y61186D01*
X108777Y61280D01*
X108783Y61373D01*
X108775Y61410D01*
X108775Y61432D01*
X108760Y61484D01*
X108749Y61537D01*
X108460Y62427D01*
X108343Y63164D01*
X116352Y63164D01*
X116352Y55156D01*
X115615Y55272D01*
G37*
%LPD*%
%LPC*%
G36*
X119398Y186211D02*
X119398Y186211D01*
X119398Y194219D01*
X120135Y194103D01*
X121580Y193633D01*
X122934Y192943D01*
X124163Y192050D01*
X125238Y190976D01*
X126131Y189747D01*
X126821Y188393D01*
X127290Y186948D01*
X127407Y186211D01*
X119398Y186211D01*
G37*
%LPD*%
%LPC*%
G36*
X144398Y41211D02*
X144398Y41211D01*
X144398Y49219D01*
X145135Y49103D01*
X146580Y48633D01*
X147934Y47943D01*
X149163Y47050D01*
X150238Y45976D01*
X151131Y44747D01*
X151821Y43393D01*
X152290Y41948D01*
X152407Y41211D01*
X144398Y41211D01*
G37*
%LPD*%
%LPC*%
G36*
X119398Y66211D02*
X119398Y66211D01*
X119398Y74219D01*
X120135Y74103D01*
X121580Y73633D01*
X122934Y72943D01*
X124163Y72050D01*
X125238Y70976D01*
X126131Y69747D01*
X126821Y68393D01*
X127290Y66948D01*
X127407Y66211D01*
X119398Y66211D01*
G37*
%LPD*%
%LPC*%
G36*
X119398Y183164D02*
X119398Y183164D01*
X127407Y183164D01*
X127290Y182427D01*
X126821Y180982D01*
X126131Y179628D01*
X125238Y178399D01*
X124163Y177325D01*
X122934Y176432D01*
X121580Y175742D01*
X120135Y175272D01*
X119398Y175156D01*
X119398Y183164D01*
G37*
%LPD*%
%LPC*%
G36*
X144398Y38164D02*
X144398Y38164D01*
X152407Y38164D01*
X152290Y37427D01*
X151821Y35982D01*
X151131Y34628D01*
X150238Y33399D01*
X149163Y32325D01*
X147934Y31432D01*
X146580Y30742D01*
X145135Y30272D01*
X144398Y30156D01*
X144398Y38164D01*
G37*
%LPD*%
%LPC*%
G36*
X133343Y41211D02*
X133343Y41211D01*
X133460Y41948D01*
X133929Y43393D01*
X134619Y44747D01*
X135512Y45976D01*
X136587Y47050D01*
X137816Y47943D01*
X139170Y48633D01*
X140615Y49103D01*
X141352Y49219D01*
X141352Y41211D01*
X133343Y41211D01*
G37*
%LPD*%
%LPC*%
G36*
X108343Y186211D02*
X108343Y186211D01*
X108460Y186948D01*
X108929Y188393D01*
X109619Y189747D01*
X110512Y190976D01*
X111587Y192050D01*
X112816Y192943D01*
X114170Y193633D01*
X115615Y194103D01*
X116352Y194219D01*
X116352Y186211D01*
X108343Y186211D01*
G37*
%LPD*%
%LPC*%
G36*
X119398Y63164D02*
X119398Y63164D01*
X127407Y63164D01*
X127290Y62427D01*
X126821Y60982D01*
X126131Y59628D01*
X125238Y58399D01*
X124163Y57325D01*
X122934Y56432D01*
X121580Y55742D01*
X120135Y55272D01*
X119398Y55156D01*
X119398Y63164D01*
G37*
%LPD*%
%LPC*%
G36*
X108343Y66211D02*
X108343Y66211D01*
X108460Y66948D01*
X108929Y68393D01*
X109619Y69747D01*
X110512Y70976D01*
X111587Y72050D01*
X112816Y72943D01*
X114170Y73633D01*
X115615Y74103D01*
X116352Y74219D01*
X116352Y66211D01*
X108343Y66211D01*
G37*
%LPD*%
%LPC*%
G36*
X115615Y175272D02*
X115615Y175272D01*
X114170Y175742D01*
X112816Y176432D01*
X111587Y177325D01*
X110512Y178399D01*
X109619Y179628D01*
X108929Y180982D01*
X108460Y182427D01*
X108343Y183164D01*
X116352Y183164D01*
X116352Y175156D01*
X115615Y175272D01*
G37*
%LPD*%
%LPC*%
G36*
X140615Y30272D02*
X140615Y30272D01*
X139170Y30742D01*
X137816Y31432D01*
X136587Y32325D01*
X135512Y33399D01*
X134619Y34628D01*
X133929Y35982D01*
X133460Y37427D01*
X133343Y38164D01*
X141352Y38164D01*
X141352Y30156D01*
X140615Y30272D01*
G37*
%LPD*%
%LPC*%
G36*
X55498Y698436D02*
X55498Y698436D01*
X55498Y704898D01*
X56346Y704729D01*
X57825Y704116D01*
X59157Y703226D01*
X60289Y702094D01*
X61179Y700763D01*
X61791Y699284D01*
X61960Y698436D01*
X55498Y698436D01*
G37*
%LPD*%
%LPC*%
G36*
X55498Y695389D02*
X55498Y695389D01*
X61960Y695389D01*
X61791Y694541D01*
X61179Y693062D01*
X60289Y691731D01*
X59157Y690599D01*
X57825Y689709D01*
X56346Y689096D01*
X55498Y688927D01*
X55498Y695389D01*
G37*
%LPD*%
%LPC*%
G36*
X45990Y698436D02*
X45990Y698436D01*
X46159Y699284D01*
X46771Y700763D01*
X47661Y702094D01*
X48793Y703226D01*
X50125Y704116D01*
X51604Y704729D01*
X52452Y704898D01*
X52452Y698436D01*
X45990Y698436D01*
G37*
%LPD*%
%LPC*%
G36*
X51604Y689096D02*
X51604Y689096D01*
X50125Y689709D01*
X48793Y690599D01*
X47661Y691731D01*
X46771Y693062D01*
X46159Y694541D01*
X45990Y695389D01*
X52452Y695389D01*
X52452Y688927D01*
X51604Y689096D01*
G37*
%LPD*%
%LPC*%
G36*
X117874Y64687D02*
X117874Y64687D01*
X117874Y64688D01*
X117876Y64688D01*
X117876Y64687D01*
X117874Y64687D01*
G37*
%LPD*%
%LPC*%
G36*
X53974Y696912D02*
X53974Y696912D01*
X53974Y696913D01*
X53976Y696913D01*
X53976Y696912D01*
X53974Y696912D01*
G37*
%LPD*%
%LPC*%
G36*
X827087Y782637D02*
X827087Y782637D01*
X827087Y782638D01*
X827088Y782638D01*
X827088Y782637D01*
X827087Y782637D01*
G37*
%LPD*%
%LPC*%
G36*
X117874Y184687D02*
X117874Y184687D01*
X117874Y184688D01*
X117876Y184688D01*
X117876Y184687D01*
X117874Y184687D01*
G37*
%LPD*%
%LPC*%
G36*
X520699Y631824D02*
X520699Y631824D01*
X520699Y631826D01*
X520701Y631826D01*
X520701Y631824D01*
X520699Y631824D01*
G37*
%LPD*%
%LPC*%
G36*
X142874Y39687D02*
X142874Y39687D01*
X142874Y39688D01*
X142876Y39688D01*
X142876Y39687D01*
X142874Y39687D01*
G37*
%LPD*%
%LPC*%
G36*
X902899Y422674D02*
X902899Y422674D01*
X902899Y422676D01*
X902901Y422676D01*
X902901Y422674D01*
X902899Y422674D01*
G37*
%LPD*%
%LPC*%
G36*
X869899Y472674D02*
X869899Y472674D01*
X869899Y472676D01*
X869901Y472676D01*
X869901Y472674D01*
X869899Y472674D01*
G37*
%LPD*%
D10*
X100013Y796481D02*
X100013Y813245D01*
X125413Y813245D02*
X125413Y796481D01*
X150813Y796481D02*
X150813Y813245D01*
X176213Y813245D02*
X176213Y796481D01*
X201613Y796481D02*
X201613Y813245D01*
X227013Y813245D02*
X227013Y796481D01*
X252413Y796481D02*
X252413Y813245D01*
X277813Y813245D02*
X277813Y796481D01*
X303213Y796481D02*
X303213Y813245D01*
X328613Y813245D02*
X328613Y796481D01*
X354013Y796481D02*
X354013Y813245D01*
X379413Y813245D02*
X379413Y796481D01*
X404813Y796481D02*
X404813Y813245D01*
X430213Y813245D02*
X430213Y796481D01*
X455613Y796481D02*
X455613Y813245D01*
X481013Y813245D02*
X481013Y796481D01*
D11*
X53975Y696913D03*
X79375Y722313D03*
X53975Y747713D03*
D12*
X167875Y39688D03*
X117875Y39688D03*
X142875Y39688D03*
X117875Y184688D03*
X167875Y184688D03*
D13*
X187875Y114688D03*
X97875Y114688D03*
X200375Y52188D03*
X85375Y52188D03*
D12*
X167875Y64688D03*
X117875Y64688D03*
D14*
X839900Y412675D02*
X839900Y432675D01*
X902900Y432675D02*
X902900Y412675D01*
X879900Y472675D02*
X859900Y472675D01*
D15*
X750888Y775018D02*
X750888Y790258D01*
X776288Y790258D02*
X776288Y775018D01*
X801688Y775018D02*
X801688Y790258D01*
X827088Y790258D02*
X827088Y775018D01*
X852488Y775018D02*
X852488Y790258D01*
X877888Y790258D02*
X877888Y775018D01*
D16*
X520700Y581025D03*
X520700Y555625D03*
X520700Y530225D03*
X520700Y504825D03*
X520700Y606425D03*
X520700Y631825D03*
X520700Y657225D03*
D17*
X491914Y51050D03*
X542714Y51050D03*
X593514Y51050D03*
X644314Y51050D03*
D18*
X85000Y412363D03*
X85000Y477363D03*
D19*
X368300Y601663D03*
X385763Y698500D03*
X962025Y358775D03*
X188913Y779463D03*
X214313Y779463D03*
X239713Y779463D03*
X188913Y730250D03*
X214313Y730250D03*
X249238Y730250D03*
X163513Y779463D03*
X160338Y730250D03*
X384175Y735013D03*
X442913Y782638D03*
X595313Y679450D03*
X455613Y692150D03*
X14288Y776288D03*
X52388Y815975D03*
X114300Y723900D03*
X706438Y802481D03*
X768350Y527050D03*
X392113Y782638D03*
X417513Y782638D03*
X438150Y735013D03*
X153988Y627063D03*
X280988Y14288D03*
X577850Y793750D03*
X498475Y315913D03*
X755650Y439738D03*
X812800Y511175D03*
X925513Y814388D03*
X965200Y776288D03*
X265113Y779463D03*
X768350Y498475D03*
X284163Y631825D03*
X481013Y657225D03*
X358775Y566738D03*
X228600Y527844D03*
X695325Y96838D03*
X884238Y195263D03*
X274638Y368300D03*
X253206Y208756D03*
X874713Y384175D03*
X560388Y404813D03*
X517525Y349250D03*
X808038Y53975D03*
X963613Y55563D03*
X923925Y15875D03*
X15875Y55563D03*
X53975Y15875D03*
X684213Y17463D03*
X962025Y531813D03*
X258763Y368300D03*
X709613Y396875D03*
X628650Y698500D03*
X647700Y541338D03*
X280194Y198438D03*
X874713Y396875D03*
X252413Y15081D03*
X352425Y695325D03*
X360363Y508000D03*
D20*
X79375Y696913D03*
D19*
X846138Y168275D03*
X814388Y215900D03*
X838200Y298450D03*
X220663Y574675D03*
X495300Y593725D03*
X479425Y119063D03*
X414338Y534988D03*
X441325Y534988D03*
X600075Y527050D03*
X614363Y633413D03*
X449263Y433388D03*
X414338Y396875D03*
X269875Y485775D03*
X188913Y485775D03*
X168275Y403225D03*
X77788Y155575D03*
X177800Y155575D03*
X19050Y347663D03*
X123825Y444500D03*
X114300Y511175D03*
X441325Y14288D03*
X325438Y520700D03*
X449263Y182563D03*
X595313Y177800D03*
X646113Y198438D03*
X688975Y220663D03*
X688975Y255588D03*
X482600Y277813D03*
X541338Y277813D03*
X571500Y323850D03*
X593725Y277813D03*
X633413Y312738D03*
X650875Y255588D03*
X490538Y233363D03*
X546100Y233363D03*
X598488Y233363D03*
X400050Y125413D03*
X325438Y184150D03*
X307975Y284163D03*
X427038Y384175D03*
X709613Y384175D03*
X722313Y304800D03*
X762000Y288925D03*
X741363Y149225D03*
X666750Y142875D03*
X920750Y166688D03*
X735013Y61913D03*
X517525Y84138D03*
X568325Y84138D03*
X619125Y68263D03*
X658813Y112713D03*
D21*
X874713Y384175D02*
X874713Y396875D01*
D19*
X371475Y263525D03*
X438150Y233363D03*
X420688Y296863D03*
X809625Y352425D03*
X368300Y180975D03*
X415925Y214313D03*
X539750Y125413D03*
X781050Y90488D03*
X833438Y90488D03*
X777875Y14288D03*
X866775Y14288D03*
X96838Y258763D03*
X132000Y334488D03*
X174625Y295275D03*
X52388Y514350D03*
X141288Y552450D03*
X411163Y612775D03*
X492125Y479425D03*
X827088Y384175D03*
X549275Y323850D03*
X365125Y396875D03*
X365125Y384175D03*
X490538Y396875D03*
X581025Y384175D03*
X960438Y419100D03*
X179388Y549275D03*
X55563Y619125D03*
X298450Y419100D03*
X550863Y473075D03*
D21*
X581025Y493713D02*
X581025Y392113D01*
X581025Y493713D02*
X544513Y530225D01*
X520700Y530225D01*
X581025Y388938D02*
X581025Y384175D01*
X574675Y385763D02*
X581025Y392113D01*
X574675Y385763D02*
X587375Y385763D01*
X581025Y392113D01*
X581025Y388938D01*
X584200Y385763D01*
X579438Y385763D01*
D19*
X500063Y384175D03*
D21*
X325438Y501650D02*
X325438Y520700D01*
X325438Y501650D02*
X441325Y385763D01*
X481013Y385763D01*
X517525Y349250D01*
D19*
X590550Y315913D03*
X638175Y358775D03*
X439738Y333375D03*
X193675Y625475D03*
X477838Y534988D03*
X361950Y481013D03*
X285750Y525463D03*
D22*
X285750Y555625D01*
X296863Y566738D01*
D19*
X296863Y566738D03*
D22*
X296863Y622300D01*
X339725Y665163D01*
X463550Y665163D01*
X492125Y693738D01*
X603250Y693738D01*
X630238Y666750D01*
X630238Y481013D01*
X638175Y473075D01*
D19*
X638175Y473075D03*
D23*
X130175Y757238D02*
X125413Y762000D01*
X130175Y757238D02*
X136525Y750888D01*
D24*
X142875Y750888D01*
D19*
X493713Y750888D03*
D23*
X358775Y750888D02*
X142875Y750888D01*
D24*
X358775Y750888D02*
X363538Y746125D01*
X368300Y750888D01*
D23*
X358775Y750888D01*
X368300Y750888D02*
X493713Y750888D01*
D19*
X363538Y746125D03*
X812800Y552450D03*
X795338Y552450D03*
X795338Y569913D03*
X830263Y552450D03*
X830263Y569913D03*
X773113Y552450D03*
X852488Y552450D03*
X773113Y569913D03*
X812800Y569913D03*
X852488Y569913D03*
X852488Y587375D03*
X852488Y604838D03*
X852488Y622300D03*
X852488Y639763D03*
X830263Y587375D03*
X812800Y587375D03*
X795338Y587375D03*
X773113Y587375D03*
X773113Y604838D03*
X795338Y604838D03*
X812800Y604838D03*
X830263Y604838D03*
X830263Y622300D03*
X812800Y622300D03*
X795338Y622300D03*
X773113Y622300D03*
X773113Y639763D03*
X795338Y639763D03*
X812800Y639763D03*
X830263Y639763D03*
D23*
X125413Y762000D02*
X120650Y757238D01*
D24*
X130175Y757238D01*
D23*
X120650Y757238D02*
X114300Y750888D01*
D24*
X111125Y747713D01*
D23*
X31750Y736600D02*
X31750Y371475D01*
D19*
X142875Y750888D03*
X666750Y671513D03*
X874713Y587375D03*
X750888Y587375D03*
X750888Y604838D03*
X666750Y560388D03*
X874713Y622300D03*
X733425Y735013D03*
X941388Y560388D03*
X874713Y569913D03*
X750888Y622300D03*
X874713Y604838D03*
X750888Y552450D03*
X750888Y569913D03*
X941388Y706438D03*
X874713Y552450D03*
D23*
X79375Y747713D02*
X53975Y747713D01*
X42863Y747713D01*
X31750Y736600D01*
D24*
X125413Y762000D02*
X125413Y804863D01*
D19*
X852488Y744538D03*
D20*
X79375Y747713D03*
D23*
X114300Y750888D02*
X142875Y750888D01*
D25*
X666750Y560388D02*
X666750Y552450D01*
X663575Y549275D01*
X655638Y557213D01*
X655638Y671513D01*
X655638Y712788D01*
X677863Y735013D01*
X798513Y735013D01*
X808038Y744538D01*
X877888Y744538D01*
X889000Y755650D01*
X925513Y755650D01*
X952500Y728663D01*
X952500Y557213D01*
X944563Y549275D01*
X663575Y549275D01*
X661988Y671513D02*
X655638Y671513D01*
X663575Y671513D02*
X666750Y671513D01*
X663575Y671513D02*
X661988Y671513D01*
X661988Y709613D01*
X681038Y728663D01*
X933450Y728663D01*
X947738Y714375D01*
X947738Y723900D01*
X922338Y749300D01*
X889000Y749300D01*
X876300Y736600D01*
X800100Y735013D01*
X798513Y735013D01*
X800100Y735013D02*
X800100Y736600D01*
X803275Y739775D01*
X869950Y739775D01*
X874713Y735013D01*
X884238Y735013D01*
X885825Y736600D01*
X892175Y742950D01*
X922338Y742950D01*
X933450Y731838D01*
X890588Y731838D01*
X885825Y736600D01*
X920750Y736600D01*
X946150Y711200D01*
X946150Y558800D01*
X941388Y554038D01*
X941388Y560388D01*
X939800Y560388D01*
X935038Y555625D01*
X666750Y555625D01*
X661988Y560388D01*
X661988Y669925D01*
X663575Y671513D01*
X666750Y671513D02*
X693738Y671513D01*
X695325Y669925D01*
D26*
X682625Y669925D01*
X681038Y668338D01*
X681038Y574675D01*
X679450Y573088D01*
X925513Y573088D01*
X927100Y571500D01*
X927100Y704850D01*
X923925Y708025D01*
X685800Y708025D01*
X681038Y703263D01*
X681038Y681038D01*
X679450Y679450D01*
X906463Y679450D01*
X906463Y604838D01*
X911225Y600075D01*
X717550Y600075D01*
X711200Y606425D01*
X711200Y646113D01*
X709613Y647700D01*
X882650Y647700D01*
X893763Y636588D01*
X893763Y631825D01*
X892175Y630238D01*
X744538Y630238D01*
X738188Y623888D01*
D23*
X142875Y750888D02*
X139700Y747713D01*
X79375Y747713D01*
X31750Y371475D02*
X44450Y358775D01*
X52388Y350838D01*
D19*
X52388Y350838D03*
X44450Y358775D03*
X504825Y750888D03*
D23*
X493713Y750888D01*
D19*
X460375Y247650D03*
X506413Y247650D03*
D25*
X460375Y247650D01*
D19*
X558800Y247650D03*
D25*
X506413Y247650D01*
D19*
X611188Y247650D03*
D25*
X558800Y247650D01*
D19*
X808038Y127000D03*
X931863Y127000D03*
D25*
X808038Y127000D01*
D19*
X731838Y238125D03*
D25*
X901700Y238125D01*
D19*
X901700Y238125D03*
D27*
X460375Y247650D02*
X369888Y247650D01*
X368300Y246063D01*
D19*
X368300Y246063D03*
D25*
X620713Y238125D02*
X731838Y238125D01*
X620713Y238125D02*
X611188Y247650D01*
D19*
X227013Y690563D03*
D22*
X334963Y690563D01*
D19*
X334963Y690563D03*
X144463Y273050D03*
D22*
X144463Y198438D01*
X142875Y196850D01*
D19*
X142875Y196850D03*
X157163Y273050D03*
D22*
X149225Y280988D01*
X138113Y280988D01*
X114300Y257175D01*
X114300Y214313D01*
X98425Y198438D01*
D19*
X98425Y198438D03*
X169863Y273050D03*
D22*
X169863Y186675D01*
X167875Y184688D01*
X452438Y476250D02*
X452438Y593725D01*
D19*
X452438Y593725D03*
D22*
X452438Y476250D02*
X596900Y331788D01*
D19*
X622300Y331788D03*
D22*
X596900Y331788D01*
D19*
X166688Y450850D03*
D22*
X166688Y482600D01*
D19*
X166688Y482600D03*
X215900Y603250D03*
D22*
X284163Y671513D01*
X458788Y671513D01*
X488950Y701675D01*
X603250Y701675D01*
X647700Y746125D01*
X790575Y746125D01*
X801688Y757238D01*
X871538Y757238D01*
X877888Y763588D01*
X877888Y782638D01*
D19*
X296863Y717550D03*
D22*
X590550Y717550D01*
X615950Y742950D01*
D19*
X615950Y742950D03*
X258763Y503238D03*
D22*
X193675Y503238D01*
X161925Y534988D01*
X161925Y574675D01*
D19*
X161925Y574675D03*
X284163Y725488D03*
D22*
X776288Y765175D02*
X776288Y782638D01*
X776288Y765175D02*
X769938Y758825D01*
X614363Y758825D01*
X581025Y725488D01*
X284163Y725488D01*
D19*
X271463Y709613D03*
D22*
X801688Y769938D02*
X801688Y782638D01*
X801688Y769938D02*
X784225Y752475D01*
X642938Y752475D01*
X600075Y709613D01*
X271463Y709613D01*
D20*
X53975Y722313D03*
D19*
X604838Y407988D03*
D28*
X708025Y304800D01*
X708025Y284163D01*
D19*
X708025Y284163D03*
D29*
X542925Y50800D02*
X547688Y46038D01*
X538163Y46038D01*
X538163Y55563D01*
X547688Y55563D01*
X547688Y46038D01*
X542925Y50800D02*
X542925Y50839D01*
X542714Y51050D01*
D19*
X600075Y198438D03*
X547688Y198438D03*
X495300Y198438D03*
D28*
X547688Y198438D01*
X600075Y198438D01*
X495300Y198438D02*
X441325Y198438D01*
D19*
X412750Y169863D03*
D28*
X441325Y198438D01*
D29*
X492125Y50800D02*
X496888Y46038D01*
X487363Y46038D01*
X487363Y55563D01*
X496888Y55563D01*
X496888Y46077D01*
X496888Y46038D01*
X496888Y46077D02*
X491914Y51050D01*
D19*
X546100Y112713D03*
X493713Y84138D03*
D27*
X522288Y112713D02*
X546100Y112713D01*
X522288Y112713D02*
X493713Y84138D01*
D21*
X593514Y51050D02*
X593725Y51261D01*
D29*
X593725Y50800D02*
X598488Y46038D01*
X588963Y46038D01*
X588963Y55563D01*
X598488Y55563D01*
X598488Y46077D01*
X598488Y46038D01*
X598488Y46077D02*
X593514Y51050D01*
D19*
X596900Y127000D03*
X620713Y141288D03*
D27*
X606425Y127000D02*
X596900Y127000D01*
X606425Y127000D02*
X620713Y141288D01*
D25*
X635000Y127000D01*
X723900Y127000D01*
D19*
X723900Y127000D03*
X685800Y361950D03*
D28*
X730250Y317500D01*
X784225Y317500D01*
D19*
X784225Y317500D03*
X423863Y655638D03*
D22*
X473075Y606425D02*
X520700Y606425D01*
X473075Y606425D02*
X423863Y655638D01*
D19*
X427038Y638175D03*
D22*
X509588Y555625D02*
X520700Y555625D01*
X509588Y555625D02*
X427038Y638175D01*
D19*
X493713Y447675D03*
D22*
X587375Y354013D01*
X627063Y354013D01*
X646113Y334963D01*
X646113Y290513D01*
D19*
X646113Y290513D03*
X300038Y536575D03*
D22*
X300038Y496888D01*
X447675Y349250D01*
D19*
X447675Y349250D03*
X384175Y530225D03*
X411163Y566738D03*
D30*
X384175Y539750D01*
X384175Y530225D01*
D19*
X388938Y481013D03*
D22*
X401638Y468313D02*
X444500Y468313D01*
X401638Y468313D02*
X388938Y481013D01*
X444500Y468313D02*
X581025Y331788D01*
X581025Y261938D01*
D19*
X581025Y261938D03*
X376238Y481013D03*
D22*
X393700Y460375D02*
X444500Y460375D01*
X393700Y460375D02*
X376238Y477838D01*
X376238Y481013D01*
X444500Y460375D02*
X560388Y344488D01*
X560388Y319088D01*
X530225Y288925D01*
X530225Y261938D01*
D19*
X530225Y261938D03*
X393700Y646113D03*
D22*
X428625Y611188D01*
X428625Y492125D01*
X635000Y285750D01*
X635000Y261938D01*
D19*
X635000Y261938D03*
D27*
X647700Y54436D02*
X644314Y51050D01*
D29*
X644525Y50800D02*
X649288Y46038D01*
X639763Y46038D01*
X639763Y55563D01*
X649288Y55563D01*
X649288Y46077D01*
X649288Y46038D01*
X649288Y46077D02*
X644314Y51050D01*
D19*
X320675Y428625D03*
D29*
X593725Y95250D02*
X665163Y95250D01*
X593725Y95250D02*
X549275Y139700D01*
D19*
X549275Y139700D03*
D29*
X471488Y139700D01*
X465138Y146050D01*
D19*
X465138Y146050D03*
D29*
X320675Y358775D02*
X320675Y428625D01*
X320675Y358775D02*
X341313Y338138D01*
X665163Y95250D02*
X728663Y31750D01*
D19*
X728663Y31750D03*
D29*
X465138Y146050D02*
X371475Y146050D01*
X341313Y176213D01*
X341313Y338138D01*
X728663Y31750D02*
X738188Y31750D01*
D19*
X738188Y31750D03*
M02*
