G04 EAGLE Gerber RS-274X export*
G75*
%MOMM*%
%FSLAX34Y34*%
%LPD*%
%IN*%
%IPPOS*%
%AMOC8*
5,1,8,0,0,1.08239X$1,22.5*%
G01*
%ADD10C,0.254000*%


D10*
X0Y0D02*
X979488Y0D01*
X979488Y830263D01*
X0Y830263D01*
X0Y0D01*
X853900Y472675D02*
X853919Y472239D01*
X853976Y471807D01*
X854070Y471381D01*
X854202Y470965D01*
X854368Y470562D01*
X854570Y470175D01*
X854804Y469807D01*
X855070Y469461D01*
X855364Y469139D01*
X855686Y468845D01*
X856032Y468579D01*
X856400Y468345D01*
X856787Y468143D01*
X857190Y467977D01*
X857606Y467845D01*
X858032Y467751D01*
X858464Y467694D01*
X858900Y467675D01*
X880900Y467675D01*
X881336Y467694D01*
X881768Y467751D01*
X882194Y467845D01*
X882610Y467977D01*
X883013Y468143D01*
X883400Y468345D01*
X883768Y468579D01*
X884114Y468845D01*
X884436Y469139D01*
X884730Y469461D01*
X884996Y469807D01*
X885230Y470175D01*
X885432Y470562D01*
X885598Y470965D01*
X885730Y471381D01*
X885824Y471807D01*
X885881Y472239D01*
X885900Y472675D01*
X885881Y473111D01*
X885824Y473543D01*
X885730Y473969D01*
X885598Y474385D01*
X885432Y474788D01*
X885230Y475175D01*
X884996Y475543D01*
X884730Y475889D01*
X884436Y476211D01*
X884114Y476505D01*
X883768Y476771D01*
X883400Y477005D01*
X883013Y477207D01*
X882610Y477373D01*
X882194Y477505D01*
X881768Y477599D01*
X881336Y477656D01*
X880900Y477675D01*
X858900Y477675D01*
X858464Y477656D01*
X858032Y477599D01*
X857606Y477505D01*
X857190Y477373D01*
X856787Y477207D01*
X856400Y477005D01*
X856032Y476771D01*
X855686Y476505D01*
X855364Y476211D01*
X855070Y475889D01*
X854804Y475543D01*
X854570Y475175D01*
X854368Y474788D01*
X854202Y474385D01*
X854070Y473969D01*
X853976Y473543D01*
X853919Y473111D01*
X853900Y472675D01*
X897900Y411675D02*
X897919Y411239D01*
X897976Y410807D01*
X898070Y410381D01*
X898202Y409965D01*
X898368Y409562D01*
X898570Y409175D01*
X898804Y408807D01*
X899070Y408461D01*
X899364Y408139D01*
X899686Y407845D01*
X900032Y407579D01*
X900400Y407345D01*
X900787Y407143D01*
X901190Y406977D01*
X901606Y406845D01*
X902032Y406751D01*
X902464Y406694D01*
X902900Y406675D01*
X903336Y406694D01*
X903768Y406751D01*
X904194Y406845D01*
X904610Y406977D01*
X905013Y407143D01*
X905400Y407345D01*
X905768Y407579D01*
X906114Y407845D01*
X906436Y408139D01*
X906730Y408461D01*
X906996Y408807D01*
X907230Y409175D01*
X907432Y409562D01*
X907598Y409965D01*
X907730Y410381D01*
X907824Y410807D01*
X907881Y411239D01*
X907900Y411675D01*
X907900Y433675D01*
X907881Y434111D01*
X907824Y434543D01*
X907730Y434969D01*
X907598Y435385D01*
X907432Y435788D01*
X907230Y436175D01*
X906996Y436543D01*
X906730Y436889D01*
X906436Y437211D01*
X906114Y437505D01*
X905768Y437771D01*
X905400Y438005D01*
X905013Y438207D01*
X904610Y438373D01*
X904194Y438505D01*
X903768Y438599D01*
X903336Y438656D01*
X902900Y438675D01*
X902464Y438656D01*
X902032Y438599D01*
X901606Y438505D01*
X901190Y438373D01*
X900787Y438207D01*
X900400Y438005D01*
X900032Y437771D01*
X899686Y437505D01*
X899364Y437211D01*
X899070Y436889D01*
X898804Y436543D01*
X898570Y436175D01*
X898368Y435788D01*
X898202Y435385D01*
X898070Y434969D01*
X897976Y434543D01*
X897919Y434111D01*
X897900Y433675D01*
X897900Y411675D01*
X834900Y411675D02*
X834919Y411239D01*
X834976Y410807D01*
X835070Y410381D01*
X835202Y409965D01*
X835368Y409562D01*
X835570Y409175D01*
X835804Y408807D01*
X836070Y408461D01*
X836364Y408139D01*
X836686Y407845D01*
X837032Y407579D01*
X837400Y407345D01*
X837787Y407143D01*
X838190Y406977D01*
X838606Y406845D01*
X839032Y406751D01*
X839464Y406694D01*
X839900Y406675D01*
X840336Y406694D01*
X840768Y406751D01*
X841194Y406845D01*
X841610Y406977D01*
X842013Y407143D01*
X842400Y407345D01*
X842768Y407579D01*
X843114Y407845D01*
X843436Y408139D01*
X843730Y408461D01*
X843996Y408807D01*
X844230Y409175D01*
X844432Y409562D01*
X844598Y409965D01*
X844730Y410381D01*
X844824Y410807D01*
X844881Y411239D01*
X844900Y411675D01*
X844900Y433675D01*
X844881Y434111D01*
X844824Y434543D01*
X844730Y434969D01*
X844598Y435385D01*
X844432Y435788D01*
X844230Y436175D01*
X843996Y436543D01*
X843730Y436889D01*
X843436Y437211D01*
X843114Y437505D01*
X842768Y437771D01*
X842400Y438005D01*
X842013Y438207D01*
X841610Y438373D01*
X841194Y438505D01*
X840768Y438599D01*
X840336Y438656D01*
X839900Y438675D01*
X839464Y438656D01*
X839032Y438599D01*
X838606Y438505D01*
X838190Y438373D01*
X837787Y438207D01*
X837400Y438005D01*
X837032Y437771D01*
X836686Y437505D01*
X836364Y437211D01*
X836070Y436889D01*
X835804Y436543D01*
X835570Y436175D01*
X835368Y435788D01*
X835202Y435385D01*
X835070Y434969D01*
X834976Y434543D01*
X834919Y434111D01*
X834900Y433675D01*
X834900Y411675D01*
X38606Y24106D02*
X38535Y23109D01*
X38393Y22119D01*
X38180Y21142D01*
X37898Y20182D01*
X37549Y19245D01*
X37133Y18336D01*
X36654Y17458D01*
X36113Y16617D01*
X35514Y15816D01*
X34859Y15060D01*
X34152Y14353D01*
X33396Y13698D01*
X32596Y13099D01*
X31755Y12558D01*
X30877Y12079D01*
X29967Y11664D01*
X29030Y11314D01*
X28071Y11032D01*
X27094Y10820D01*
X26104Y10678D01*
X25106Y10606D01*
X24106Y10606D01*
X23109Y10678D01*
X22119Y10820D01*
X21142Y11032D01*
X20182Y11314D01*
X19245Y11664D01*
X18336Y12079D01*
X17458Y12558D01*
X16617Y13099D01*
X15816Y13698D01*
X15060Y14353D01*
X14353Y15060D01*
X13698Y15816D01*
X13099Y16617D01*
X12558Y17458D01*
X12079Y18336D01*
X11664Y19245D01*
X11314Y20182D01*
X11032Y21142D01*
X10820Y22119D01*
X10678Y23109D01*
X10606Y24106D01*
X10606Y25106D01*
X10678Y26104D01*
X10820Y27094D01*
X11032Y28071D01*
X11314Y29030D01*
X11664Y29967D01*
X12079Y30877D01*
X12558Y31755D01*
X13099Y32596D01*
X13698Y33396D01*
X14353Y34152D01*
X15060Y34859D01*
X15816Y35514D01*
X16617Y36113D01*
X17458Y36654D01*
X18336Y37133D01*
X19245Y37549D01*
X20182Y37898D01*
X21142Y38180D01*
X22119Y38393D01*
X23109Y38535D01*
X24106Y38606D01*
X25106Y38606D01*
X26104Y38535D01*
X27094Y38393D01*
X28071Y38180D01*
X29030Y37898D01*
X29967Y37549D01*
X30877Y37133D01*
X31755Y36654D01*
X32596Y36113D01*
X33396Y35514D01*
X34152Y34859D01*
X34859Y34152D01*
X35514Y33396D01*
X36113Y32596D01*
X36654Y31755D01*
X37133Y30877D01*
X37549Y29967D01*
X37898Y29030D01*
X38180Y28071D01*
X38393Y27094D01*
X38535Y26104D01*
X38606Y25106D01*
X38606Y24106D01*
X968881Y24106D02*
X968810Y23109D01*
X968668Y22119D01*
X968455Y21142D01*
X968173Y20182D01*
X967824Y19245D01*
X967408Y18336D01*
X966929Y17458D01*
X966388Y16617D01*
X965789Y15816D01*
X965134Y15060D01*
X964427Y14353D01*
X963671Y13698D01*
X962871Y13099D01*
X962030Y12558D01*
X961152Y12079D01*
X960242Y11664D01*
X959305Y11314D01*
X958346Y11032D01*
X957369Y10820D01*
X956379Y10678D01*
X955381Y10606D01*
X954381Y10606D01*
X953384Y10678D01*
X952394Y10820D01*
X951417Y11032D01*
X950457Y11314D01*
X949520Y11664D01*
X948611Y12079D01*
X947733Y12558D01*
X946892Y13099D01*
X946091Y13698D01*
X945335Y14353D01*
X944628Y15060D01*
X943973Y15816D01*
X943374Y16617D01*
X942833Y17458D01*
X942354Y18336D01*
X941939Y19245D01*
X941589Y20182D01*
X941307Y21142D01*
X941095Y22119D01*
X940953Y23109D01*
X940881Y24106D01*
X940881Y25106D01*
X940953Y26104D01*
X941095Y27094D01*
X941307Y28071D01*
X941589Y29030D01*
X941939Y29967D01*
X942354Y30877D01*
X942833Y31755D01*
X943374Y32596D01*
X943973Y33396D01*
X944628Y34152D01*
X945335Y34859D01*
X946091Y35514D01*
X946892Y36113D01*
X947733Y36654D01*
X948611Y37133D01*
X949520Y37549D01*
X950457Y37898D01*
X951417Y38180D01*
X952394Y38393D01*
X953384Y38535D01*
X954381Y38606D01*
X955381Y38606D01*
X956379Y38535D01*
X957369Y38393D01*
X958346Y38180D01*
X959305Y37898D01*
X960242Y37549D01*
X961152Y37133D01*
X962030Y36654D01*
X962871Y36113D01*
X963671Y35514D01*
X964427Y34859D01*
X965134Y34152D01*
X965789Y33396D01*
X966388Y32596D01*
X966929Y31755D01*
X967408Y30877D01*
X967824Y29967D01*
X968173Y29030D01*
X968455Y28071D01*
X968668Y27094D01*
X968810Y26104D01*
X968881Y25106D01*
X968881Y24106D01*
X39013Y804363D02*
X38941Y803365D01*
X38799Y802375D01*
X38586Y801398D01*
X38305Y800439D01*
X37955Y799502D01*
X37540Y798592D01*
X37060Y797714D01*
X36520Y796873D01*
X35920Y796072D01*
X35266Y795317D01*
X34558Y794609D01*
X33803Y793955D01*
X33002Y793355D01*
X32161Y792815D01*
X31283Y792335D01*
X30373Y791920D01*
X29437Y791570D01*
X28477Y791289D01*
X27500Y791076D01*
X26510Y790934D01*
X25513Y790863D01*
X24513Y790863D01*
X23515Y790934D01*
X22525Y791076D01*
X21548Y791289D01*
X20589Y791570D01*
X19652Y791920D01*
X18742Y792335D01*
X17864Y792815D01*
X17023Y793355D01*
X16222Y793955D01*
X15467Y794609D01*
X14759Y795317D01*
X14105Y796072D01*
X13505Y796873D01*
X12965Y797714D01*
X12485Y798592D01*
X12070Y799502D01*
X11720Y800439D01*
X11439Y801398D01*
X11226Y802375D01*
X11084Y803365D01*
X11013Y804363D01*
X11013Y805363D01*
X11084Y806360D01*
X11226Y807350D01*
X11439Y808327D01*
X11720Y809287D01*
X12070Y810223D01*
X12485Y811133D01*
X12965Y812011D01*
X13505Y812852D01*
X14105Y813653D01*
X14759Y814408D01*
X15467Y815116D01*
X16222Y815770D01*
X17023Y816370D01*
X17864Y816910D01*
X18742Y817390D01*
X19652Y817805D01*
X20589Y818155D01*
X21548Y818436D01*
X22525Y818649D01*
X23515Y818791D01*
X24513Y818863D01*
X25513Y818863D01*
X26510Y818791D01*
X27500Y818649D01*
X28477Y818436D01*
X29437Y818155D01*
X30373Y817805D01*
X31283Y817390D01*
X32161Y816910D01*
X33002Y816370D01*
X33803Y815770D01*
X34558Y815116D01*
X35266Y814408D01*
X35920Y813653D01*
X36520Y812852D01*
X37060Y812011D01*
X37540Y811133D01*
X37955Y810223D01*
X38305Y809287D01*
X38586Y808327D01*
X38799Y807350D01*
X38941Y806360D01*
X39013Y805363D01*
X39013Y804363D01*
X39013Y254363D02*
X38941Y253365D01*
X38799Y252375D01*
X38586Y251398D01*
X38305Y250439D01*
X37955Y249502D01*
X37540Y248592D01*
X37060Y247714D01*
X36520Y246873D01*
X35920Y246072D01*
X35266Y245317D01*
X34558Y244609D01*
X33803Y243955D01*
X33002Y243355D01*
X32161Y242815D01*
X31283Y242335D01*
X30373Y241920D01*
X29437Y241570D01*
X28477Y241289D01*
X27500Y241076D01*
X26510Y240934D01*
X25513Y240863D01*
X24513Y240863D01*
X23515Y240934D01*
X22525Y241076D01*
X21548Y241289D01*
X20589Y241570D01*
X19652Y241920D01*
X18742Y242335D01*
X17864Y242815D01*
X17023Y243355D01*
X16222Y243955D01*
X15467Y244609D01*
X14759Y245317D01*
X14105Y246072D01*
X13505Y246873D01*
X12965Y247714D01*
X12485Y248592D01*
X12070Y249502D01*
X11720Y250439D01*
X11439Y251398D01*
X11226Y252375D01*
X11084Y253365D01*
X11013Y254363D01*
X11013Y255363D01*
X11084Y256360D01*
X11226Y257350D01*
X11439Y258327D01*
X11720Y259287D01*
X12070Y260223D01*
X12485Y261133D01*
X12965Y262011D01*
X13505Y262852D01*
X14105Y263653D01*
X14759Y264408D01*
X15467Y265116D01*
X16222Y265770D01*
X17023Y266370D01*
X17864Y266910D01*
X18742Y267390D01*
X19652Y267805D01*
X20589Y268155D01*
X21548Y268436D01*
X22525Y268649D01*
X23515Y268791D01*
X24513Y268863D01*
X25513Y268863D01*
X26510Y268791D01*
X27500Y268649D01*
X28477Y268436D01*
X29437Y268155D01*
X30373Y267805D01*
X31283Y267390D01*
X32161Y266910D01*
X33002Y266370D01*
X33803Y265770D01*
X34558Y265116D01*
X35266Y264408D01*
X35920Y263653D01*
X36520Y262852D01*
X37060Y262011D01*
X37540Y261133D01*
X37955Y260223D01*
X38305Y259287D01*
X38586Y258327D01*
X38799Y257350D01*
X38941Y256360D01*
X39013Y255363D01*
X39013Y254363D01*
X969013Y804363D02*
X968941Y803365D01*
X968799Y802375D01*
X968586Y801398D01*
X968305Y800439D01*
X967955Y799502D01*
X967540Y798592D01*
X967060Y797714D01*
X966520Y796873D01*
X965920Y796072D01*
X965266Y795317D01*
X964558Y794609D01*
X963803Y793955D01*
X963002Y793355D01*
X962161Y792815D01*
X961283Y792335D01*
X960373Y791920D01*
X959437Y791570D01*
X958477Y791289D01*
X957500Y791076D01*
X956510Y790934D01*
X955513Y790863D01*
X954513Y790863D01*
X953515Y790934D01*
X952525Y791076D01*
X951548Y791289D01*
X950589Y791570D01*
X949652Y791920D01*
X948742Y792335D01*
X947864Y792815D01*
X947023Y793355D01*
X946222Y793955D01*
X945467Y794609D01*
X944759Y795317D01*
X944105Y796072D01*
X943505Y796873D01*
X942965Y797714D01*
X942485Y798592D01*
X942070Y799502D01*
X941720Y800439D01*
X941439Y801398D01*
X941226Y802375D01*
X941084Y803365D01*
X941013Y804363D01*
X941013Y805363D01*
X941084Y806360D01*
X941226Y807350D01*
X941439Y808327D01*
X941720Y809287D01*
X942070Y810223D01*
X942485Y811133D01*
X942965Y812011D01*
X943505Y812852D01*
X944105Y813653D01*
X944759Y814408D01*
X945467Y815116D01*
X946222Y815770D01*
X947023Y816370D01*
X947864Y816910D01*
X948742Y817390D01*
X949652Y817805D01*
X950589Y818155D01*
X951548Y818436D01*
X952525Y818649D01*
X953515Y818791D01*
X954513Y818863D01*
X955513Y818863D01*
X956510Y818791D01*
X957500Y818649D01*
X958477Y818436D01*
X959437Y818155D01*
X960373Y817805D01*
X961283Y817390D01*
X962161Y816910D01*
X963002Y816370D01*
X963803Y815770D01*
X964558Y815116D01*
X965266Y814408D01*
X965920Y813653D01*
X966520Y812852D01*
X967060Y812011D01*
X967540Y811133D01*
X967955Y810223D01*
X968305Y809287D01*
X968586Y808327D01*
X968799Y807350D01*
X968941Y806360D01*
X969013Y805363D01*
X969013Y804363D01*
X969013Y254363D02*
X968941Y253365D01*
X968799Y252375D01*
X968586Y251398D01*
X968305Y250439D01*
X967955Y249502D01*
X967540Y248592D01*
X967060Y247714D01*
X966520Y246873D01*
X965920Y246072D01*
X965266Y245317D01*
X964558Y244609D01*
X963803Y243955D01*
X963002Y243355D01*
X962161Y242815D01*
X961283Y242335D01*
X960373Y241920D01*
X959437Y241570D01*
X958477Y241289D01*
X957500Y241076D01*
X956510Y240934D01*
X955513Y240863D01*
X954513Y240863D01*
X953515Y240934D01*
X952525Y241076D01*
X951548Y241289D01*
X950589Y241570D01*
X949652Y241920D01*
X948742Y242335D01*
X947864Y242815D01*
X947023Y243355D01*
X946222Y243955D01*
X945467Y244609D01*
X944759Y245317D01*
X944105Y246072D01*
X943505Y246873D01*
X942965Y247714D01*
X942485Y248592D01*
X942070Y249502D01*
X941720Y250439D01*
X941439Y251398D01*
X941226Y252375D01*
X941084Y253365D01*
X941013Y254363D01*
X941013Y255363D01*
X941084Y256360D01*
X941226Y257350D01*
X941439Y258327D01*
X941720Y259287D01*
X942070Y260223D01*
X942485Y261133D01*
X942965Y262011D01*
X943505Y262852D01*
X944105Y263653D01*
X944759Y264408D01*
X945467Y265116D01*
X946222Y265770D01*
X947023Y266370D01*
X947864Y266910D01*
X948742Y267390D01*
X949652Y267805D01*
X950589Y268155D01*
X951548Y268436D01*
X952525Y268649D01*
X953515Y268791D01*
X954513Y268863D01*
X955513Y268863D01*
X956510Y268791D01*
X957500Y268649D01*
X958477Y268436D01*
X959437Y268155D01*
X960373Y267805D01*
X961283Y267390D01*
X962161Y266910D01*
X963002Y266370D01*
X963803Y265770D01*
X964558Y265116D01*
X965266Y264408D01*
X965920Y263653D01*
X966520Y262852D01*
X967060Y262011D01*
X967540Y261133D01*
X967955Y260223D01*
X968305Y259287D01*
X968586Y258327D01*
X968799Y257350D01*
X968941Y256360D01*
X969013Y255363D01*
X969013Y254363D01*
M02*
