G04 EAGLE Gerber RS-274X export*
G75*
%MOMM*%
%FSLAX34Y34*%
%LPD*%
%INSoldermask Bottom*%
%IPPOS*%
%AMOC8*
5,1,8,0,0,1.08239X$1,22.5*%
G01*
%ADD10C,3.003200*%
%ADD11C,1.879600*%
%ADD12C,1.320800*%
%ADD13C,1.625600*%
%ADD14C,4.019200*%
%ADD15C,2.203200*%
%ADD16C,1.727200*%
%ADD17C,1.879600*%
%ADD18C,2.203200*%
%ADD19C,1.981200*%
%ADD20C,0.909600*%
%ADD21C,1.473200*%


D10*
X24606Y24606D03*
X954881Y24606D03*
D11*
X100013Y796481D02*
X100013Y813245D01*
X125413Y813245D02*
X125413Y796481D01*
X150813Y796481D02*
X150813Y813245D01*
X176213Y813245D02*
X176213Y796481D01*
X201613Y796481D02*
X201613Y813245D01*
X227013Y813245D02*
X227013Y796481D01*
X252413Y796481D02*
X252413Y813245D01*
X277813Y813245D02*
X277813Y796481D01*
X303213Y796481D02*
X303213Y813245D01*
X328613Y813245D02*
X328613Y796481D01*
X354013Y796481D02*
X354013Y813245D01*
X379413Y813245D02*
X379413Y796481D01*
X404813Y796481D02*
X404813Y813245D01*
X430213Y813245D02*
X430213Y796481D01*
X455613Y796481D02*
X455613Y813245D01*
X481013Y813245D02*
X481013Y796481D01*
D10*
X25013Y804863D03*
X25013Y254863D03*
X955013Y804863D03*
X955013Y254863D03*
D12*
X53975Y696913D03*
X79375Y722313D03*
X53975Y747713D03*
D13*
X167875Y39688D03*
X117875Y39688D03*
X142875Y39688D03*
X117875Y184688D03*
X167875Y184688D03*
D14*
X187875Y114688D03*
X97875Y114688D03*
X200375Y52188D03*
X85375Y52188D03*
D13*
X167875Y64688D03*
X117875Y64688D03*
D15*
X839900Y412675D02*
X839900Y432675D01*
X902900Y432675D02*
X902900Y412675D01*
X879900Y472675D02*
X859900Y472675D01*
D16*
X750888Y775018D02*
X750888Y790258D01*
X776288Y790258D02*
X776288Y775018D01*
X801688Y775018D02*
X801688Y790258D01*
X827088Y790258D02*
X827088Y775018D01*
X852488Y775018D02*
X852488Y790258D01*
X877888Y790258D02*
X877888Y775018D01*
D17*
X520700Y581025D03*
X520700Y555625D03*
X520700Y530225D03*
X520700Y504825D03*
X520700Y606425D03*
X520700Y631825D03*
X520700Y657225D03*
D18*
X491914Y51050D03*
X542714Y51050D03*
X593514Y51050D03*
X644314Y51050D03*
D19*
X85000Y412363D03*
X85000Y477363D03*
D20*
X368300Y601663D03*
X385763Y698500D03*
X962025Y358775D03*
X188913Y779463D03*
X214313Y779463D03*
X239713Y779463D03*
X188913Y730250D03*
X214313Y730250D03*
X249238Y730250D03*
X163513Y779463D03*
X160338Y730250D03*
X384175Y735013D03*
X442913Y782638D03*
X595313Y679450D03*
X455613Y692150D03*
X14288Y776288D03*
X52388Y815975D03*
X114300Y723900D03*
X706438Y802481D03*
X768350Y527050D03*
X392113Y782638D03*
X417513Y782638D03*
X438150Y735013D03*
X153988Y627063D03*
X280988Y14288D03*
X577850Y793750D03*
X498475Y315913D03*
X755650Y439738D03*
X812800Y511175D03*
X925513Y814388D03*
X965200Y776288D03*
X265113Y779463D03*
X768350Y498475D03*
X284163Y631825D03*
X481013Y657225D03*
X358775Y566738D03*
X228600Y527844D03*
X695325Y96838D03*
X884238Y195263D03*
X274638Y368300D03*
X253206Y208756D03*
X874713Y384175D03*
X560388Y404813D03*
X517525Y349250D03*
X808038Y53975D03*
X963613Y55563D03*
X923925Y15875D03*
X15875Y55563D03*
X53975Y15875D03*
X684213Y17463D03*
X962025Y531813D03*
X258763Y368300D03*
X709613Y396875D03*
X628650Y698500D03*
X647700Y541338D03*
X280194Y198438D03*
X874713Y396875D03*
X252413Y15081D03*
X352425Y695325D03*
X360363Y508000D03*
D21*
X79375Y696913D03*
D20*
X846138Y168275D03*
X814388Y215900D03*
X838200Y298450D03*
X220663Y574675D03*
X495300Y593725D03*
X479425Y119063D03*
X414338Y534988D03*
X441325Y534988D03*
X600075Y527050D03*
X614363Y633413D03*
X449263Y433388D03*
X414338Y396875D03*
X269875Y485775D03*
X188913Y485775D03*
X168275Y403225D03*
X77788Y155575D03*
X177800Y155575D03*
X19050Y347663D03*
X123825Y444500D03*
X114300Y511175D03*
X441325Y14288D03*
X325438Y520700D03*
X449263Y182563D03*
X595313Y177800D03*
X646113Y198438D03*
X688975Y220663D03*
X688975Y255588D03*
X482600Y277813D03*
X541338Y277813D03*
X571500Y323850D03*
X593725Y277813D03*
X633413Y312738D03*
X650875Y255588D03*
X490538Y233363D03*
X546100Y233363D03*
X598488Y233363D03*
X400050Y125413D03*
X325438Y184150D03*
X307975Y284163D03*
X427038Y384175D03*
X709613Y384175D03*
X722313Y304800D03*
X762000Y288925D03*
X741363Y149225D03*
X666750Y142875D03*
X920750Y166688D03*
X735013Y61913D03*
X517525Y84138D03*
X568325Y84138D03*
X619125Y68263D03*
X658813Y112713D03*
X371475Y263525D03*
X438150Y233363D03*
X420688Y296863D03*
X809625Y352425D03*
X368300Y180975D03*
X415925Y214313D03*
X539750Y125413D03*
X781050Y90488D03*
X833438Y90488D03*
X777875Y14288D03*
X866775Y14288D03*
X96838Y258763D03*
X132000Y334488D03*
X174625Y295275D03*
X52388Y514350D03*
X141288Y552450D03*
X411163Y612775D03*
X492125Y479425D03*
X827088Y384175D03*
X549275Y323850D03*
X365125Y396875D03*
X365125Y384175D03*
X490538Y396875D03*
X581025Y384175D03*
X960438Y419100D03*
X179388Y549275D03*
X55563Y619125D03*
X298450Y419100D03*
X550863Y473075D03*
X500063Y384175D03*
X590550Y315913D03*
X638175Y358775D03*
X439738Y333375D03*
X193675Y625475D03*
X477838Y534988D03*
X361950Y481013D03*
X285750Y525463D03*
X296863Y566738D03*
X638175Y473075D03*
X493713Y750888D03*
X363538Y746125D03*
X812800Y552450D03*
X795338Y552450D03*
X795338Y569913D03*
X830263Y552450D03*
X830263Y569913D03*
X773113Y552450D03*
X852488Y552450D03*
X773113Y569913D03*
X812800Y569913D03*
X852488Y569913D03*
X852488Y587375D03*
X852488Y604838D03*
X852488Y622300D03*
X852488Y639763D03*
X830263Y587375D03*
X812800Y587375D03*
X795338Y587375D03*
X773113Y587375D03*
X773113Y604838D03*
X795338Y604838D03*
X812800Y604838D03*
X830263Y604838D03*
X830263Y622300D03*
X812800Y622300D03*
X795338Y622300D03*
X773113Y622300D03*
X773113Y639763D03*
X795338Y639763D03*
X812800Y639763D03*
X830263Y639763D03*
X142875Y750888D03*
X666750Y671513D03*
X874713Y587375D03*
X750888Y587375D03*
X750888Y604838D03*
X666750Y560388D03*
X874713Y622300D03*
X733425Y735013D03*
X941388Y560388D03*
X874713Y569913D03*
X750888Y622300D03*
X874713Y604838D03*
X750888Y552450D03*
X750888Y569913D03*
X941388Y706438D03*
X874713Y552450D03*
X852488Y744538D03*
D21*
X79375Y747713D03*
D20*
X52388Y350838D03*
X44450Y358775D03*
X504825Y750888D03*
X460375Y247650D03*
X506413Y247650D03*
X558800Y247650D03*
X611188Y247650D03*
X808038Y127000D03*
X931863Y127000D03*
X731838Y238125D03*
X901700Y238125D03*
X368300Y246063D03*
X227013Y690563D03*
X334963Y690563D03*
X144463Y273050D03*
X142875Y196850D03*
X157163Y273050D03*
X98425Y198438D03*
X169863Y273050D03*
X452438Y593725D03*
X622300Y331788D03*
X166688Y450850D03*
X166688Y482600D03*
X215900Y603250D03*
X296863Y717550D03*
X615950Y742950D03*
X258763Y503238D03*
X161925Y574675D03*
X284163Y725488D03*
X271463Y709613D03*
D21*
X53975Y722313D03*
D20*
X604838Y407988D03*
X708025Y284163D03*
X600075Y198438D03*
X547688Y198438D03*
X495300Y198438D03*
X412750Y169863D03*
X546100Y112713D03*
X493713Y84138D03*
X596900Y127000D03*
X620713Y141288D03*
X723900Y127000D03*
X685800Y361950D03*
X784225Y317500D03*
X423863Y655638D03*
X427038Y638175D03*
X493713Y447675D03*
X646113Y290513D03*
X300038Y536575D03*
X447675Y349250D03*
X384175Y530225D03*
X411163Y566738D03*
X388938Y481013D03*
X581025Y261938D03*
X376238Y481013D03*
X530225Y261938D03*
X393700Y646113D03*
X635000Y261938D03*
X320675Y428625D03*
X549275Y139700D03*
X465138Y146050D03*
X728663Y31750D03*
X738188Y31750D03*
M02*
